<svg xmlns="http://www.w3.org/2000/svg" width="296" height="76" version="1.1">
  <g transform="translate(782.29881,-654.4062)">
    <path d="m-618.9 654.6c-1.8 0-3.5 1.4-3.9 3.1L-634.2 707.6c-0.4 1.7 0.7 3.1 2.4 3.1l8.2 0c1.7 0 3.5-1.4 3.9-3.1L-616.9 695.5c0.4-1.7 2.1-3.1 3.9-3.1l2.3 0c10 0 17.7-2 23.3-6.1 5.5-4.1 8.3-9.5 8.3-16.2 0-2.9-0.5-5.4-1.6-7.3-1-2-2.6-3.6-4.5-4.8-2-1.2-4.4-2.1-7.1-2.6-2.7-0.5-5.9-0.7-9.6-0.7l-17.1 0zm115.3 0.3 0 2.3-0.9 0 0 1.1 0.9 0 0 4.2c0 1 0.2 1.7 0.6 2.1 0.4 0.4 1 0.7 1.8 0.7 0.2 0 0.5 0 0.8-0.1 0.3 0 0.6-0.1 0.8-0.2l0-1.2-0.1 0c-0.1 0-0.3 0.1-0.5 0.2-0.2 0.1-0.5 0.1-0.7 0.1-0.4 0-0.6-0.1-0.8-0.2-0.2-0.1-0.3-0.2-0.4-0.4-0.1-0.2-0.2-0.4-0.2-0.7 0-0.2 0-0.6 0-1l0-3.6 2.8 0 0-1.1-2.7 0 0-2.3-1.3 0zm-17 0.1c-1.7 0-3.4 1.3-3.8 2.9 0 0.1 0 0.1-0.1 0.2 0 0-0.2 0.8-0.5 2.2l-10 45.4c-0.2 1-0.4 1.7-0.4 1.9l0 0c-0.3 1.6 0.6 2.9 2.2 3l0 0 7.6 0c1.7 0 3.3-1.3 3.8-2.9 0-0.1 0.1-0.1 0.1-0.2l10.9-49.4c0.4-1.7-0.7-3.1-2.5-3.1l-7.3 0c0 0 0 0 0 0zm26.6 2c-0.5 0-0.9 0.1-1.3 0.3-0.4 0.2-0.8 0.5-1.2 0.8l0-0.9-1.3 0 0 7.9 1.3 0 0-5.9c0.4-0.3 0.7-0.5 1.1-0.7 0.4-0.2 0.7-0.2 1.1-0.2 0.4 0 0.7 0.1 0.9 0.2 0.2 0.1 0.4 0.2 0.5 0.4 0.1 0.2 0.2 0.5 0.2 0.8 0 0.3 0 0.6 0 1l0 4.5 1.3 0 0-5.1c0-0.1 0-0.3 0-0.4 0-0.1 0-0.3-0.1-0.4 0.4-0.3 0.8-0.5 1.1-0.7 0.4-0.2 0.7-0.3 1.1-0.3 0.4 0 0.7 0.1 0.9 0.2 0.2 0.1 0.4 0.3 0.5 0.5 0.1 0.2 0.2 0.4 0.2 0.8 0 0.3 0 0.6 0 1l0 4.5 1.3 0 0-5.2c0-0.9-0.2-1.7-0.6-2.2-0.4-0.5-1.1-0.8-1.9-0.8-0.5 0-1 0.1-1.4 0.3-0.4 0.2-1 0.5-1.5 1-0.2-0.4-0.5-0.7-0.8-0.9-0.4-0.2-0.8-0.3-1.4-0.3zm-112.8 8 2.7 0c3.1 0 5.5 0.5 7.1 1.6 1.6 1.1 2.3 2.7 2.3 4.9 0 3.3-1.2 5.9-3.7 7.7-2.4 1.8-5.9 2.7-10.3 2.7l-2 0c-1.8 0-2.9-1.4-2.5-3.1l2.4-10.6c0.4-1.7 2.1-3.1 3.9-3.1zm50.8 2.2c-3.3 0-6.6 0.3-9.9 0.8-2.4 0.4-2.7 0.4-4.2 0.8-3.1 0.7-3.6 3.8-3.6 3.8l-1 4.1c-0.6 2.6 0.9 2.5 1.6 2.3 1.4-0.4 2.1-0.8 4.8-1.4 2.6-0.6 5.4-1 7.7-1 3.3 0 5.7 0.3 7.4 1 1.6 0.7 2.5 1.9 2.5 3.7 0 0.4 0 0.8-0.1 1.2-0.1 0.3-0.4 0.6-1.2 0.8-4.7 0.3-8 0.7-12 1.3-4 0.6-7.4 1.5-10.3 2.8-3.1 1.4-5.4 3.2-7 5.5-1.6 2.3-2.3 5.2-2.3 8.5 0 3.2 1.1 5.7 3.3 7.7 2.2 2 5.1 2.9 8.6 2.9 2.2 0 3.9-0.2 5.1-0.5 1.2-0.3 2.5-0.7 3.9-1.3 1-0.4 2.2-1.1 3.4-1.9 1.2-0.8 2-1.3 3.1-2l0 0.1-0.3 1.3c0 0 0 0 0 0l0 0c-0.3 1.6 0.6 2.9 2.2 3l0 0 0.1 0c1 0 4.6 0 6.3 0l1.2 0c0.1 0 0.1 0 0.1 0 1.6-0.2 3.1-1.5 3.5-3.1l6-25.7c0.1-0.6 0.2-1.3 0.3-2.1 0.1-0.8 0.2-1.5 0.1-1.9 0-3.6-1.5-6.3-4.6-8.1-3.1-1.7-7.9-2.6-14.6-2.6zm2.8 23.6c0.3 0 0.4 0.1 0.3 1-0.1 0.5-1.1 4.9-1.6 6.9-0.1 0.6-1 1.5-1.3 1.7-1 0.6-2.1 1.2-3.2 1.6-1.5 0.6-2.9 0.9-4.2 0.9-2 0-3.6-0.3-4.6-0.9-1.1-0.6-1.6-1.6-1.6-3 0-1.7 0.4-3 1.2-4 0.8-1 2-1.8 3.5-2.4 1.5-0.5 3.3-0.9 5.4-1.2 1.9-0.2 5.5-0.7 6-0.7 0.1 0 0.2 0 0.3 0z" fill="#369"/>
    <path d="m-749.8 654.4-17 0c-1.8 0-3.5 1.4-3.9 3.1l-11.5 49.9c-0.4 1.7 0.7 3.1 2.5 3.1l8.2 0c1.8 0 3.5-1.4 3.9-3.1l2.8-12.1c0.4-1.7 2.1-3.1 3.9-3.1l2.3 0c10 0 17.7-2 23.3-6.1 5.5-4.1 8.3-9.5 8.3-16.2 0-2.9-0.5-5.4-1.6-7.3-1-2-2.5-3.6-4.5-4.8-2-1.2-4.3-2.1-7.1-2.6-2.7-0.5-6-0.7-9.6-0.8zm-4.8 10.4 2.7 0c3.1 0 5.5 0.5 7.1 1.6 1.6 1 2.4 2.7 2.4 4.8 0 3.3-1.2 5.9-3.7 7.7-2.5 1.8-5.9 2.7-10.3 2.7l-2 0c-1.8 0-2.9-1.4-2.5-3.1l2.5-10.6c0.4-1.7 2.1-3.1 3.9-3.1zm50.7 2.3c-3.3 0-6.6 0.2-9.9 0.8-2.4 0.4-2.6 0.5-4.2 0.8-3.1 0.7-3.6 3.8-3.6 3.8l-1 4.1c-0.6 2.6 0.9 2.5 1.6 2.3 1.3-0.4 2.1-0.8 4.8-1.4 2.6-0.6 5.4-1 7.7-1 3.3 0 5.8 0.4 7.4 1.1 1.7 0.7 2.4 1.9 2.4 3.7 0 0.4 0 0.8-0.1 1.2-0.1 0.3-0.4 0.6-1.2 0.8-4.6 0.3-8 0.7-12 1.3-4 0.6-7.4 1.5-10.3 2.8-3.1 1.4-5.4 3.2-7 5.5-1.6 2.3-2.3 5.2-2.3 8.5 0 3.2 1.1 5.8 3.3 7.8 2.2 2 5.1 2.9 8.6 2.9 2.2 0 3.9-0.2 5.1-0.5 1.2-0.3 2.5-0.7 3.9-1.3 1-0.4 2.2-1.1 3.4-1.9 1.2-0.8 2-1.3 3.1-2l0 0.1-0.3 1.3c0 0 0 0 0 0-0.3 1.6 0.6 2.9 2.2 3.1l0 0 0.1 0c1 0 4.6 0 6.3 0l1.2 0c0.1 0 0.1 0 0.1-0.1 1.6-0.2 3.1-1.5 3.5-3l5.9-25.7c0.1-0.6 0.3-1.3 0.3-2.1 0.1-0.8 0.1-1.5 0.1-1.9 0-3.6-1.5-6.3-4.6-8.1-3.1-1.7-7.9-2.6-14.6-2.6zm60.2 0.6c-1.7 0-4 1.4-5.1 3.1 0 0-11.7 20-12.8 22-0.6 1.1-1.2 0.4-1.3 0-0.1-0.5-3.6-21.9-3.6-21.9-0.4-1.7-2.2-3.2-4.4-3.2l-7.3 0c-1.8 0-2.9 1.4-2.5 3.1 0 0 5.6 31.5 6.7 39 0.5 4.1-0.1 4.8-0.1 4.8l-7.2 12.6c-1.1 1.7-0.5 3.1 1.3 3.1l8.4 0c1.7 0 4.1-1.4 5.1-3.1l32.5-54.9c0 0 3.1-4.7 0.2-4.7-2 0-9.8 0-9.8 0zM-701.4 690.8c0.5 0 0.8-0.3 0.6 1-0.1 0.5-1.1 4.9-1.6 6.9-0.1 0.6-0.9 1.5-1.3 1.7-1 0.6-2.1 1.2-3.2 1.7-1.5 0.6-2.9 0.9-4.2 0.9-2 0-3.6-0.3-4.6-0.9-1.1-0.6-1.6-1.6-1.6-3 0-1.7 0.4-3 1.2-4 0.8-1 2-1.8 3.5-2.3 1.5-0.5 3.3-0.9 5.4-1.2 1.9-0.2 5.5-0.7 6-0.7z" fill="#1c3664"/>
  </g>
</svg>