<svg t="1643528659255" class="icon" viewBox="0 0 1024 1024" version="1.1" xmlns="http://www.w3.org/2000/svg" p-id="12197" width="200" height="200"><path d="M475.356 261.395L364.101 128.066H64.998v166.619H65V895.64h895.354V261.395H475.356z m313.079 634.244c-53.354 0-101.031-24.942-132.564-64.081a169.998 169.998 0 0 1-1.969-2.497H129.881V327.974h765.593v253.202l0.035 0.028c39.515 32.323 64.845 82.132 64.845 138.018 0.001 97.433-76.97 176.417-171.919 176.417z" fill="#839495" p-id="12198"></path><path d="M895.509 581.204l-0.035-0.028c-29.37-24.012-66.568-38.37-107.039-38.37-94.948 0-171.919 78.985-171.919 176.417 0 41.528 13.988 79.701 37.386 109.839 0.65 0.838 1.304 1.672 1.969 2.497 31.533 39.14 79.21 64.081 132.564 64.081 94.948 0 171.919-78.985 171.919-176.417 0.001-55.887-25.33-105.696-64.845-138.019z m17.387 167.041h-100.13v102.75h-48.661v-102.75h-100.13v-49.934h100.13v-102.75h48.661v102.75h100.13v49.934z" fill="#287CB0" p-id="12199"></path><path d="M812.766 698.312v-102.75h-48.661v102.75h-100.13v49.933h100.13v102.75h48.661v-102.75h100.13v-49.933z" fill="#FFFFFF" p-id="12200"></path></svg>