<svg t="1643528655877" class="icon" viewBox="0 0 1024 1024" version="1.1" xmlns="http://www.w3.org/2000/svg" p-id="12045" width="200" height="200"><path d="M668.633 64.223H150.701v896h722.158V256.669L668.633 64.223z m17.258 893.418c-58.012 0-109.851-25.797-144.138-66.279H221.246V133.085h389.093v187.958h191.974V632.42c42.965 33.432 70.506 84.949 70.506 142.752 0.001 100.775-83.69 182.469-186.928 182.469z" fill="#819292" p-id="12046"></path><path d="M305.889 418.74h425.547v67.14H305.889zM305.889 578.875h213.898v67.14H305.889zM305.889 739.01h134.529v67.14H305.889z" fill="#819292" p-id="12047"></path><path d="M802.314 632.42c-31.94-24.854-72.401-39.716-116.422-39.716-103.238 0-186.929 81.694-186.929 182.468 0 44.146 16.062 84.63 42.791 116.189 34.286 40.482 86.125 66.279 144.138 66.279 103.238 0 186.929-81.694 186.929-182.468-0.001-57.803-27.543-109.32-70.507-142.752z m18.904 172.771H712.346v106.274h-52.909V805.191H550.565v-51.646h108.872V647.271h52.909v106.274h108.872v51.646z" fill="#287CB0" p-id="12048"></path><path d="M712.346 753.545V647.271h-52.909v106.274H550.565v51.646h108.872v106.274h52.909V805.191h108.872v-51.646z" fill="#FFFFFF" p-id="12049"></path></svg>