<?xml version="1.0" standalone="no"?><!DOCTYPE svg PUBLIC "-//W3C//DTD SVG 1.1//EN" "http://www.w3.org/Graphics/SVG/1.1/DTD/svg11.dtd"><svg t="1652448430914" class="icon" viewBox="0 0 1024 1024" version="1.1" xmlns="http://www.w3.org/2000/svg" p-id="2059" xmlns:xlink="http://www.w3.org/1999/xlink" width="200" height="200"><defs><style type="text/css"></style></defs><path d="M483.84 611.84l-7.68 7.68v-7.68h7.68z" fill="#2CA6E0" p-id="2060"></path><path d="M476.16 619.52v-7.68c-7.68-48.64-30.72-94.72-66.56-130.56-35.84-35.84-84.48-58.88-130.56-66.56-30.72-5.12-64-2.56-94.72 5.12 2.56 0 7.68-2.56 10.24-2.56 25.6 0 46.08 20.48 46.08 46.08 0 20.48-12.8 38.4-30.72 43.52 48.64-10.24 99.84 2.56 135.68 38.4 56.32 56.32 58.88 148.48 2.56 207.36l128-133.12z" fill="#E50012" p-id="2061"></path><path d="M1024 627.2c-5.12-53.76-28.16-104.96-69.12-145.92-38.4-38.4-89.6-61.44-140.8-69.12-23.04-2.56-43.52-2.56-66.56 0 2.56-23.04 2.56-43.52 0-66.56-5.12-51.2-28.16-99.84-69.12-140.8l-7.68-7.68-5.12-5.12-5.12-5.12c-2.56 0-2.56-2.56-5.12-2.56-2.56-2.56-5.12-2.56-7.68-5.12 0 0-2.56 0-5.12-2.56 0 0-2.56 0-2.56-2.56-2.56-2.56-5.12-2.56-7.68-5.12L601.6 153.6h-5.12c-2.56 0-2.56-2.56-5.12-2.56s-2.56 0-5.12-2.56h-2.56c-2.56 0-2.56 0-5.12-2.56-79.36-23.04-171.52-2.56-232.96 61.44-56.32 56.32-79.36 133.12-66.56 207.36 48.64 7.68 94.72 30.72 130.56 66.56-40.96-40.96-53.76-102.4-35.84-153.6 0-2.56 2.56-5.12 2.56-7.68 0 0 0-2.56 2.56-2.56 0-2.56 2.56-5.12 2.56-7.68 0 0 0-2.56 2.56-2.56 0-2.56 2.56-5.12 2.56-5.12s0-2.56 2.56-2.56c2.56-2.56 5.12-5.12 5.12-10.24 2.56-5.12 5.12-7.68 10.24-12.8l5.12-5.12c58.88-58.88 151.04-58.88 209.92 0 56.32 56.32 58.88 148.48 2.56 207.36l-2.56 2.56-2.56 2.56c-58.88 56.32-151.04 56.32-207.36-2.56 35.84 35.84 58.88 84.48 66.56 130.56h7.68l-7.68 7.68-130.56 130.56-2.56 2.56-2.56 2.56c-58.88 56.32-151.04 56.32-207.36-2.56-58.88-58.88-58.88-151.04 0-209.92 20.48-17.92 43.52-30.72 66.56-35.84 2.56 0 5.12 0 5.12-2.56 17.92-5.12 30.72-23.04 30.72-43.52 0-25.6-20.48-46.08-46.08-46.08-5.12 0-7.68 0-10.24 2.56-40.96 10.24-79.36 30.72-110.08 64-92.16 92.16-92.16 243.2 0 337.92 38.4 38.4 89.6 61.44 140.8 69.12 69.12 7.68 143.36-15.36 197.12-69.12l140.8-140.8 130.56-130.56-2.56 2.56 2.56-2.56 7.68-7.68-7.68 7.68c58.88-56.32 151.04-56.32 207.36 2.56 25.6 25.6 38.4 56.32 43.52 89.6v2.56c2.56 23.04 23.04 38.4 46.08 38.4 25.6 0 46.08-20.48 46.08-46.08 2.56-5.12 2.56-7.68 2.56-7.68z" fill="#2CA6E0" p-id="2062"></path><path d="M929.28 824.32m-46.08 0a46.08 46.08 0 1 0 92.16 0 46.08 46.08 0 1 0-92.16 0Z" fill="#2CA6E0" p-id="2063"></path></svg>
