<svg t="1643777394300" class="icon" viewBox="0 0 1024 1024" version="1.1" xmlns="http://www.w3.org/2000/svg" p-id="859"
     width="200" height="200">
    <path d="M413.742545 118.946909c0-27.136 21.992727-49.128727 49.105455-49.128727h98.280727c27.136 0 49.128727 21.992727 49.128728 49.128727v49.128727H905.076364c31.325091 0 47.662545 14.987636 49.035636 44.962909l0.093091 4.189091c0 32.744727-16.384 49.105455-49.128727 49.105455H118.923636c-31.325091 0-47.662545-14.964364-49.035636-44.939636L69.818182 217.204364c0-32.744727 16.384-49.105455 49.128727-49.105455h294.795636V118.923636z"
          p-id="860"></path>
    <path d="M831.348364 315.485091L789.201455 863.418182A98.257455 98.257455 0 0 1 691.2 954.181818H332.8c-51.362909 0-94.045091-39.563636-97.978182-90.763636L192.651636 315.508364h638.696728z m-427.426909 173.917091a36.840727 36.840727 0 0 0-34.909091 38.656l11.613091 220.811636a36.840727 36.840727 0 1 0 73.588363-3.84l-11.496727-220.788363a36.840727 36.840727 0 0 0-38.749091-34.909091l-0.046545 0.069818z m211.944727 0a36.840727 36.840727 0 0 0-38.725818 34.839273l-11.543273 220.788363a36.840727 36.840727 0 1 0 73.611636 3.84l11.543273-220.811636a36.840727 36.840727 0 0 0-34.909091-38.702546v0.046546z"
          p-id="861"></path>
</svg>