<svg xmlns:xlink="http://www.w3.org/1999/xlink" xmlns="http://www.w3.org/2000/svg" version="1.1" viewBox="0 0 600 600" height="600px" width="600px">
    <title>空数据</title>
    <defs>
        <linearGradient id="linearGradient-1" y2="44.0501254%" x2="50%" y1="-29.88559%" x1="50%">
            <stop offset="0%" stop-color="#CFDFFA"></stop>
            <stop offset="100%" stop-opacity="0" stop-color="#EAF0FC"></stop>
        </linearGradient>
        <linearGradient id="linearGradient-2" y2="69.8229089%" x2="53.6226986%" y1="33.7484636%" x1="50%">
            <stop offset="0%" stop-color="#CFDFFA"></stop>
            <stop offset="100%" stop-opacity="0" stop-color="#EAF0FC"></stop>
        </linearGradient>
        <linearGradient id="linearGradient-3" y2="66.4977364%" x2="53.6226986%" y1="36.47456%" x1="50%">
            <stop offset="0%" stop-color="#CFDFFA"></stop>
            <stop offset="100%" stop-opacity="0" stop-color="#EAF0FC"></stop>
        </linearGradient>
        <linearGradient id="linearGradient-4" y2="100%" x2="57.28025%" y1="11.4973736%" x1="50%">
            <stop offset="0%" stop-color="#BFD4FA"></stop>
            <stop offset="100%" stop-color="#5792F0"></stop>
        </linearGradient>
        <linearGradient id="linearGradient-5" y2="131.881015%" x2="51.9400923%" y1="11.4973736%" x1="50%">
            <stop offset="0%" stop-color="#BFD4FA"></stop>
            <stop offset="100%" stop-color="#5792F0"></stop>
        </linearGradient>
        <linearGradient id="linearGradient-6" y2="128.49897%" x2="74.2827921%" y1="13.0877007%" x1="50%">
            <stop offset="0%" stop-color="#BFD4FA"></stop>
            <stop offset="100%" stop-color="#5792F0"></stop>
        </linearGradient>
        <linearGradient id="linearGradient-7" y2="131.881015%" x2="54.0733641%" y1="11.4973736%" x1="50%">
            <stop offset="0%" stop-color="#BFD4FA"></stop>
            <stop offset="100%" stop-color="#5792F0"></stop>
        </linearGradient>
        <linearGradient id="linearGradient-8" y2="131.881015%" x2="51.9795749%" y1="11.4973736%" x1="50%">
            <stop offset="0%" stop-color="#BFD4FA"></stop>
            <stop offset="100%" stop-color="#5792F0"></stop>
        </linearGradient>
        <linearGradient id="linearGradient-9" y2="131.881015%" x2="55.3643684%" y1="11.4973736%" x1="50%">
            <stop offset="0%" stop-color="#BFD4FA"></stop>
            <stop offset="100%" stop-color="#5792F0"></stop>
        </linearGradient>
        <linearGradient id="linearGradient-10" y2="53.7022797%" x2="74.2827921%" y1="48.2590898%" x1="50%">
            <stop offset="0%" stop-color="#BFD4FA"></stop>
            <stop offset="100%" stop-color="#5792F0"></stop>
        </linearGradient>
        <linearGradient id="linearGradient-11" y2="87.6569286%" x2="9.97724964%" y1="37.4239345%" x1="90.0227504%">
            <stop offset="0%" stop-color="#A2ABB9"></stop>
            <stop offset="100%" stop-color="#E7EAF0"></stop>
        </linearGradient>
        <linearGradient id="linearGradient-12" y2="58.3398714%" x2="50%" y1="25.6021279%" x1="4.78553268%">
            <stop offset="0%" stop-color="#5792F0"></stop>
            <stop offset="100%" stop-opacity="0" stop-color="#BFD4FA"></stop>
        </linearGradient>
        <linearGradient id="linearGradient-13" y2="58.0216147%" x2="144.920412%" y1="45.0381848%" x1="24.8382163%">
            <stop offset="0%" stop-color="#BFD4FA"></stop>
            <stop offset="100%" stop-color="#5792F0"></stop>
        </linearGradient>
        <linearGradient id="linearGradient-14" y2="86.7357868%" x2="144.920412%" y1="27.2768713%" x1="24.8382163%">
            <stop offset="0%" stop-color="#BFD4FA"></stop>
            <stop offset="100%" stop-color="#5792F0"></stop>
        </linearGradient>
        <linearGradient id="linearGradient-15" y2="50%" x2="-11.3176499%" y1="50%" x1="146.853724%">
            <stop offset="0%" stop-opacity="0" stop-color="#EAF0FC"></stop>
            <stop offset="100%" stop-color="#CFDFFA"></stop>
        </linearGradient>
        <linearGradient id="linearGradient-16" y2="143.824014%" x2="68.3765918%" y1="-8.03537495%" x1="45.1286787%">
            <stop offset="0%" stop-color="#BFD4FA"></stop>
            <stop offset="100%" stop-color="#5792F0"></stop>
        </linearGradient>
        <linearGradient id="linearGradient-17" y2="86.6495811%" x2="7.28091586%" y1="36.7497045%" x1="87.9236244%">
            <stop offset="0%" stop-color="#5792F0"></stop>
            <stop offset="100%" stop-opacity="0.5" stop-color="#BFD4FA"></stop>
        </linearGradient>
        <linearGradient id="linearGradient-18" y2="143.824014%" x2="137.17517%" y1="-8.03537495%" x1="26.8913479%">
            <stop offset="0%" stop-color="#BFD4FA"></stop>
            <stop offset="100%" stop-color="#5792F0"></stop>
        </linearGradient>
        <linearGradient id="linearGradient-19" y2="100%" x2="50%" y1="-19.0038784%" x1="50%">
            <stop offset="0%" stop-color="#FFCDA5"></stop>
            <stop offset="100%" stop-color="#FFE8D1"></stop>
        </linearGradient>
        <linearGradient id="linearGradient-20" y2="100%" x2="50%" y1="0%" x1="50%">
            <stop offset="0%" stop-color="#FFF2DF"></stop>
            <stop offset="100%" stop-color="#FEE0BC"></stop>
        </linearGradient>
        <linearGradient id="linearGradient-21" y2="73.6326896%" x2="100%" y1="11.7098971%" x1="14.3474826%">
            <stop offset="0%" stop-color="#BFD4FA"></stop>
            <stop offset="100%" stop-color="#5792F0"></stop>
        </linearGradient>
        <linearGradient id="linearGradient-22" y2="100%" x2="59.1092742%" y1="-31.010887%" x1="43.5046289%">
            <stop offset="0%" stop-color="#BFD4FA"></stop>
            <stop offset="100%" stop-color="#5792F0"></stop>
        </linearGradient>
        <linearGradient id="linearGradient-23" y2="100%" x2="50%" y1="0%" x1="50%">
            <stop offset="0%" stop-color="#FEE127"></stop>
            <stop offset="100%" stop-color="#F9AB21"></stop>
        </linearGradient>
    </defs>
    <g fill-rule="evenodd" fill="none" stroke-width="1" stroke="none" id="空数据">
        <g transform="translate(60.000000, 149.000000)" id="背景">
            <ellipse ry="125" rx="240" cy="383" cx="240" fill="url(#linearGradient-1)" id="椭圆形"></ellipse>
            <path fill="url(#linearGradient-2)" id="云" d="M407,58.1060606 C407,65.3030303 400.090909,71.0606061 391.363636,71.0606061 L343,71.0606061 C334.272727,70.4848485 327,65.0151515 327,57.530303 C327,52.6363636 330.272727,48.3181818 335,46.0151515 C334.636364,45.1515152 334.272727,44.2878788 334.272727,43.4242424 C334.272727,38.530303 339,34.2121212 345.181818,34.2121212 C347.727273,34.2121212 349.909091,35.0757576 351.727273,36.2272727 C356.090909,29.6060606 364.090909,25 373.545455,25 C386.636364,25 397.181818,33.9242424 397.181818,44.8636364 L397.181818,46.0151515 C403,48.030303 407,52.6363636 407,58.1060606 Z"></path>
            <path fill="url(#linearGradient-3)" id="云" d="M83.1111111,0 C95.4472542,0 105.942032,7.88382384 109.831876,18.887904 L119.5,18.8888889 C129.164983,18.8888889 137,26.7239058 137,36.3888889 L137,40.2777778 C137,49.9427609 129.164983,57.7777778 119.5,57.7777778 L47.8333333,57.7777778 C39.1659376,57.7777778 31.9702379,51.4766979 30.5771453,43.2054489 C28.3142484,39.7253788 27,35.5717245 27,31.1111111 C27,18.8381167 36.9492278,8.88888889 49.2222222,8.88888889 C53.1889854,8.88888889 56.9129959,9.92823654 60.1367857,11.7494638 C65.2822134,4.63160868 73.6557772,0 83.1111111,0 Z"></path>
            <g transform="translate(85.000000, 285.000000)" id="草">
                <ellipse ry="2" rx="6.4" cy="39" cx="13.4" fill="#CCDCF6" id="椭圆形"></ellipse>
                <path fill-rule="nonzero" fill="url(#linearGradient-4)" id="路径-42" d="M6.60484923,38.2167348 C7.47636068,23.663125 11.1274012,15.239576 17.5579706,12.946088 C20.0896918,12.6080766 22.9113387,12.0998521 20.9439014,15.3808976 C18.9764641,18.661943 13.708028,17.3850711 8.43976651,38.2080599 C7.9632649,39.0983464 7.3516258,39.101238 6.60484923,38.2167348 Z"></path>
                <path fill-rule="nonzero" fill="url(#linearGradient-5)" id="路径-41" d="M6.48462669,38.0344018 C4.77372163,24.4410458 3.3734035,15.8924506 2.28367228,12.3886162 C0.649075451,7.13286456 -2.83128613,-2.9819845 4.412198,0.844719829 C11.6556821,4.67142416 12.5120839,24.3005649 9.1638425,36.2464988 C8.12313879,39.2693584 7.23006685,39.865326 6.48462669,38.0344018 Z"></path>
            </g>
            <g fill-rule="nonzero" transform="translate(343.060113, 257.713352)" id="草">
                <path fill="url(#linearGradient-6)" id="路径-43" d="M32.9288445,47.7215111 C31.6697734,41.9903277 27.9928319,37.9840272 21.8980202,35.7026096 C14.9379678,33.4652895 11.1247443,30.8058521 15.4799907,28.8775133 C19.157758,28.5851646 27.0011491,25.7209608 32.9288445,42.8291501 C33.3413817,44.4870209 33.3413817,46.1178079 32.9288445,47.7215111 Z"></path>
                <path fill="url(#linearGradient-7)" id="路径-44" d="M33.2382474,48.6305535 C29.572739,34.9480096 25.4087219,24.9585384 20.7461964,18.6621399 C17.3226294,14.3594206 17.5625238,8.202552 20.7461964,6.81093637 C24.005019,6.44853588 30.0111308,5.88801888 34.5334556,29.4686669 C34.8190764,31.0906371 36.4125824,40.5794978 34.5334556,46.70334 C34.2553159,47.5437876 33.8235798,48.1861921 33.2382474,48.6305535 Z"></path>
                <path fill="url(#linearGradient-8)" id="路径-45" d="M34.0848161,45.5402043 C35.7426747,39.4177315 35.5321916,31.4293155 33.4533666,21.5749561 C30.2735953,12.0220353 24.8460872,0.270898283 34.7387259,0 C38.7522158,0.54577434 43.5986093,4.75271743 41.767387,25.7196343 C40.6514617,34.1802042 38.7106608,39.1782681 36.6738532,45.5402043 C35.9633416,45.9368943 35.1003292,45.9368943 34.0848161,45.5402043 Z"></path>
                <path fill="url(#linearGradient-9)" id="路径-46" d="M36.0213612,47.9180155 C35.3577409,30.6060529 38.5261122,18.181998 45.5264751,10.6458508 C47.416863,8.12757072 54.6087295,5.76902471 54.5815797,13.6631979 C53.8307768,17.0576427 52.2242183,24.3043582 42.9601371,35.3607123 C39.908147,39.3512707 37.9023047,45.182586 37.8827536,46.5498132 C37.8697196,47.4612981 37.2492554,47.9173655 36.0213612,47.9180155 Z"></path>
                <path fill="url(#linearGradient-10)" id="路径-47" d="M0,50.2038554 C6.93219082,48.9118167 10.7551998,47.8149848 11.4690268,46.9133599 C12.5397674,45.5609225 21.9725049,39.7540136 27.8547213,44.6452546 C29.1351862,42.9996411 33.2417619,41.7195619 35.5918671,44.6452546 C36.6670542,40.0262048 43.3745332,37.0680138 46.2916845,37.5472523 C49.5768544,37.2901588 59.27517,37.3971252 60,50.2038554 C57.3539207,50.2654603 37.3539207,50.2654603 0,50.2038554 Z"></path>
            </g>
        </g>
        <g transform="translate(185.000000, 191.211932)" stroke-linecap="round" id="Group-7">
            <polygon points="4.58579882 256.648841 180.853423 346.492015 310 273.221853 144.203719 221.758287" opacity="0.3" fill-rule="nonzero" fill="url(#linearGradient-12)" id="Path-10"></polygon>
            <polygon points="19.1686391 112.616276 0 158.474264 156.83432 158.474264 137.352556 112.616276" fill-rule="nonzero" fill="url(#linearGradient-13)" id="Path-7"></polygon>
            <rect rx="4.58579882" height="9.17159763" width="52.2781065" y="122.705033" x="52.2781065" fill="#FFFFFF" id="Rectangle"></rect>
            <polygon points="0 158.474264 156.83432 158.474264 151.881657 256.610358 4.95266272 256.610358" fill-rule="nonzero" fill="url(#linearGradient-14)" id="Rectangle"></polygon>
            <rect rx="4.58579882" height="9.17159763" width="63.2840237" y="173.14882" x="46.7751479" fill="#FFFFFF" id="Rectangle"></rect>
            <path fill="url(#linearGradient-15)" id="Star" d="M78.4171598,234.827814 L65.0226751,241.869711 C64.0449859,242.383713 62.8357316,242.00782 62.32173,241.030131 C62.1170519,240.64081 62.0464225,240.194874 62.1207762,239.761358 L64.6788951,224.846381 L64.6788951,224.846381 L53.8425294,214.283535 C53.0515623,213.512532 53.0353777,212.246306 53.8063801,211.455339 C54.1133973,211.140371 54.5156821,210.935397 54.9509562,210.872148 L69.9264453,208.696082 L69.9264453,208.696082 L76.6236876,195.125987 C77.1125322,194.135479 78.3117839,193.728801 79.3022912,194.217646 C79.6967164,194.412307 80.0159714,194.731562 80.2106319,195.125987 L86.9078742,208.696082 L86.9078742,208.696082 L101.883363,210.872148 C102.976453,211.030983 103.733816,212.045869 103.574981,213.138959 C103.511732,213.574233 103.306757,213.976517 102.99179,214.283535 L92.1554244,224.846381 L92.1554244,224.846381 L94.7135433,239.761358 C94.9002653,240.850031 94.1690897,241.883943 93.0804168,242.070665 C92.6469015,242.145019 92.2009654,242.07439 91.8116444,241.869711 L78.4171598,234.827814 L78.4171598,234.827814 Z"></path>
            <polygon points="19.0606782 112.616276 20.1775148 158.474264 -3.27042968e-15 158.474264" fill-rule="nonzero" fill="url(#linearGradient-16)" id="Path-8"></polygon>
            <polygon points="155.717483 112.616276 156.83432 158.474264 136.656805 158.474264" transform="translate(146.745562, 135.545270) scale(-1, 1) translate(-146.745562, -135.545270)" fill-rule="nonzero" fill="url(#linearGradient-16)" id="Path-8-Copy"></polygon>
            <path transform="translate(77.962267, 93.679088) rotate(20.000000) translate(-77.962267, -93.679088)" fill-rule="nonzero" stroke-dasharray="4" stroke-linejoin="round" stroke="url(#linearGradient-17)" id="Path-11" d="M27.5184799,65.6251344 C36.9782644,89.8929238 49.3802243,99.007273 64.7243595,92.9681818 C87.7405624,83.909545 85.4585518,48.8294119 64.7243595,56.5247133 C52.4933737,67.0334049 62.9558263,88.7400887 106.253595,83.8259765 C137.28684,75.9838313 131.771559,116.32748 113.758879,131.928202"></path>
            <g fill-rule="nonzero" fill="url(#linearGradient-18)" transform="translate(33.934911, 22.734619) scale(-1, 1) rotate(-2.000000) translate(-33.934911, -22.734619) translate(12.840237, 0.722785)" id="plane">
                <polygon points="23.7554361 34.9237066 36.1556201 40.3075056 42.1893491 0 0 24.8703218 11.0701072 30.1116587 37.8185201 5.71746288 16.3433684 32.5891333 16.058272 44.0236686" id="路径"></polygon>
            </g>
        </g>
        <g transform="translate(333.870393, 372.000000)" id="人物">
            <ellipse ry="8" rx="25" cy="123" cx="32.129607" fill="#CCDCF6" id="椭圆形"></ellipse>
            <rect height="8" width="8" y="29" x="25.4424354" fill="url(#linearGradient-19)" id="矩形"></rect>
            <ellipse ry="2.5" rx="1.5" cy="22.5" cx="39.629607" transform="translate(39.629607, 22.500000) rotate(22.000000) translate(-39.629607, -22.500000)" fill="#FEE0BC" id="椭圆形"></ellipse>
            <ellipse ry="2.5" rx="1.5" cy="22.5" cx="18.629607" transform="translate(18.629607, 22.500000) scale(-1, 1) rotate(23.000000) translate(-18.629607, -22.500000)" fill="#FEE0BC" id="椭圆形备份-2"></ellipse>
            <circle r="10" cy="21" cx="29.4424354" fill="url(#linearGradient-20)" id="椭圆形"></circle>
            <path fill-rule="nonzero" fill="url(#linearGradient-21)" id="路径-52" d="M24.4446309,117.217681 L24.029983,119.927492 C22.3413104,119.980303 20.5049031,120.476682 18.520761,121.416628 C17.2439725,122.235798 17.1871461,122.606965 17.1460428,123.312306 C17.1186406,123.782534 20.7260748,123.782534 27.9683454,123.312306 L27.9683454,116.224557 L24.4446309,117.217681 Z"></path>
            <path transform="translate(41.557117, 119.944767) scale(-1, 1) translate(-41.557117, -119.944767)" fill-rule="nonzero" fill="url(#linearGradient-21)" id="路径-52备份" d="M43.4446309,117.217681 L43.029983,119.927492 C41.3413104,119.980303 39.5049031,120.476682 37.520761,121.416628 C36.2439725,122.235798 36.1871461,122.606965 36.1460428,123.312306 C36.1186406,123.782534 39.7260748,123.782534 46.9683454,123.312306 L46.9683454,116.224557 L43.4446309,117.217681 Z"></path>
            <polygon points="20.5853014 67.7083804 23.4716409 118.168923 29.129607 118.089185 31.5740237 71.5129716 35.3813036 118.069184 40.7008569 117.982737 42.1234713 67.8176404" fill-rule="nonzero" fill="url(#linearGradient-22)" id="路径-49"></polygon>
            <path fill="#FEE0BC" id="路径-50" d="M52.4424354,46.6878268 C53.1871734,46.0957469 53.9599424,45.8669144 54.7607424,46.0013293 C55.3015538,46.0136062 55.6120838,45.8794221 55.6923325,45.5987771 C56.6254166,45.4561332 56.9987506,45.6376415 56.8123346,46.143302 C56.6259185,46.6489624 56.391714,46.8304707 56.1097211,46.6878268 L57.394502,47.2766896 L58.6158508,46.4141943 C60.1277643,46.4318385 60.701089,46.9395353 60.3358249,47.9372847 C59.7025582,48.9798055 57.973383,50.2866109 55.6923325,49.1981656 C55.19212,48.8176077 54.7372554,48.6453211 54.3277389,48.6813058 L52.4424354,46.6878268 Z"></path>
            <path transform="translate(4.442435, 49.580033) scale(-1, 1) rotate(-19.000000) translate(-4.442435, -49.580033)" fill="#FEE0BC" id="路径-50备份" d="M0.442435369,48.6878268 C1.18717343,48.0957469 1.95994244,47.8669144 2.76074241,48.0013293 C3.30155382,48.0136062 3.61208384,47.8794221 3.69233246,47.5987771 C4.62541661,47.4561332 4.99875064,47.6376415 4.81233456,48.143302 C4.62591847,48.6489624 4.39171397,48.8304707 4.10972107,48.6878268 L5.39450198,49.2766896 L6.61585084,48.4141943 C8.12776434,48.4318385 8.70108902,48.9395353 8.33582487,49.9372847 C7.7025582,50.9798055 5.97338295,52.2866109 3.69233246,51.1981656 C3.19211997,50.8176077 2.73725544,50.6453211 2.32773886,50.6813058 L0.442435369,48.6878268 Z"></path>
            <path fill="url(#linearGradient-23)" id="路径-48" d="M25.1522967,32.6807844 L30.129607,35.9592576 L33.7346861,32.4858074 L44.5859612,36.5391615 L47.1884646,50.337481 L52.3796042,46 L55.8457626,49.1742604 L47.8080751,61.2459108 C45.5010688,63.7045639 43.7828548,63.7045639 42.6534332,61.2459108 C42.4014805,59.8124853 41.6776147,54.9257201 40.4818359,46.5856154 L42.791151,68.2790099 L19.9568218,68.5146537 L21.5497951,46.5939696 C21.2391077,56.5260079 19.7657117,61.4099883 17.129607,61.2459108 C15.2420323,60.7442742 11.3240945,57.8716244 5.37579387,52.6279616 L6.88459924,48.5799175 L14.0219352,52.33158 L15.508558,38.8615592 L25.1522967,32.6807844 Z"></path>
            <ellipse ry="3.5" rx="4.5" cy="3.5" cx="28.629607" fill="#483029" id="椭圆形"></ellipse>
            <path fill="#483029" id="路径-51" d="M18.0237531,22 C24.9577876,18.2373303 28.6948843,15.1162017 29.2350433,12.6366142 C30.4059806,16.0011496 37.5922292,21.2119046 40.4463335,21.1633873 C42.0253288,16.6100682 42.4623696,12.3236594 37.4758622,8.1437477 C32.4893548,3.96383601 26.7395443,3.94034865 20.4413887,8.1437477 C16.2069271,11.7030837 15.4010485,16.3218344 18.0237531,22 Z"></path>
        </g>
    </g>
</svg>
