<svg t="1659868572418" class="icon" viewBox="0 0 1024 1024" version="1.1" xmlns="http://www.w3.org/2000/svg" p-id="3268" width="128" height="128"><path d="M827.392 195.584q65.536 65.536 97.792 147.456t32.256 167.936-32.256 167.936-97.792 147.456-147.456 98.304-167.936 32.768-168.448-32.768-147.968-98.304-98.304-147.456-32.768-167.936 32.768-167.936 98.304-147.456 147.968-97.792 168.448-32.256 167.936 32.256 147.456 97.792zM720.896 715.776q21.504-21.504 18.944-49.152t-24.064-49.152l-107.52-107.52 107.52-107.52q21.504-21.504 24.064-49.152t-18.944-49.152-51.712-21.504-51.712 21.504l-107.52 106.496-104.448-104.448q-21.504-20.48-49.152-23.04t-49.152 17.92q-21.504 21.504-21.504 52.224t21.504 52.224l104.448 104.448-104.448 104.448q-21.504 21.504-21.504 51.712t21.504 51.712 49.152 18.944 49.152-24.064l104.448-104.448 107.52 107.52q21.504 21.504 51.712 21.504t51.712-21.504z" p-id="3269"></path></svg>