<?xml version="1.0" standalone="no"?><!DOCTYPE svg PUBLIC "-//W3C//DTD SVG 1.1//EN" "http://www.w3.org/Graphics/SVG/1.1/DTD/svg11.dtd"><svg t="1643418815243" class="icon" viewBox="0 0 1024 1024" version="1.1" xmlns="http://www.w3.org/2000/svg" p-id="7222" xmlns:xlink="http://www.w3.org/1999/xlink" width="200" height="200"><defs><style type="text/css"></style></defs><path d="M178.086957 545.391304L111.304348 400.695652h57.878261l17.808695 48.973913c6.678261 17.808696 11.130435 33.391304 17.808696 48.973913h2.226087c6.678261-17.808696 13.356522-33.391304 17.808696-48.973913l17.808695-48.973913h55.652174l-66.782609 144.695652V623.304348H178.086957v-77.913044z" fill="#71C1ED" p-id="7223"></path><path d="M418.504348 572.104348h-66.782609l-11.130435 51.2h-53.426087L356.173913 400.695652h64.556522L489.73913 623.304348h-55.652173l-15.582609-51.2z m-8.904348-42.295652l-6.678261-17.808696c-6.678261-22.26087-11.130435-48.973913-17.808696-71.234783h-2.226086c-4.452174 22.26087-11.130435 48.973913-17.808696 71.234783l-4.452174 17.808696h48.973913z" fill="#495FA5" p-id="7224"></path><path d="M512 400.695652h57.878261l35.617391 95.721739 13.356522 40.069566h2.226087c4.452174-13.356522 8.904348-28.93913 13.356522-40.069566L667.826087 400.695652h57.878261v222.608696h-48.973913v-75.686957c0-22.26087 4.452174-55.652174 6.678261-77.913043h-2.226087l-17.808696 53.426087-28.93913 82.365217H601.043478l-31.165217-82.365217-17.808696-53.426087h-2.226087c2.226087 22.26087 6.678261 55.652174 6.678261 77.913043V623.304348h-44.521739V400.695652zM774.678261 400.695652h53.426087v178.086957h86.817391v44.521739h-140.243478V400.695652z" fill="#71C1ED" p-id="7225"></path></svg>