<?xml version="1.0" standalone="no"?><!DOCTYPE svg PUBLIC "-//W3C//DTD SVG 1.1//EN" "http://www.w3.org/Graphics/SVG/1.1/DTD/svg11.dtd"><svg t="1643418805831" class="icon" viewBox="0 0 1024 1024" version="1.1" xmlns="http://www.w3.org/2000/svg" p-id="6769" xmlns:xlink="http://www.w3.org/1999/xlink" width="200" height="200"><defs><style type="text/css"></style></defs><path d="M179 64h468.5l223 225.5V935c0 13.807-11.193 25-25 25H179c-13.807 0-25-11.193-25-25V89c0-13.807 11.193-25 25-25z" fill="#FF7861" p-id="6770"></path><path d="M647.5 64v200.5c0 13.807 11.193 25 25 25h198L647.5 64z" fill="#FFB0A4" p-id="6771"></path><path d="M670.098 478.093C677.884 486.056 682 497.51 682 514.5c0 16.989-4.116 28.444-11.902 36.407-8.313 8.504-22.397 14.822-43.202 18.093H318c-19.33 0-35 15.67-35 35v157c0 19.33 15.67 35 35 35s35-15.67 35-35V639h276.5a35 35 0 0 0 4.95-0.352C709.214 627.968 752 584.203 752 514.5s-42.786-113.468-117.55-124.148a35 35 0 0 0-4.95-0.352H318c-19.33 0-35 15.67-35 35s15.67 35 35 35h308.896c20.805 3.271 34.889 9.589 43.202 18.093z" fill="#FFFFFF" p-id="6772"></path></svg>