<?xml version="1.0" standalone="no"?><!DOCTYPE svg PUBLIC "-//W3C//DTD SVG 1.1//EN" "http://www.w3.org/Graphics/SVG/1.1/DTD/svg11.dtd"><svg t="1653532974942" class="icon" viewBox="0 0 1024 1024" version="1.1" xmlns="http://www.w3.org/2000/svg" p-id="6088" xmlns:xlink="http://www.w3.org/1999/xlink" width="200" height="200"><defs><style type="text/css"></style></defs><path d="M190.01344 231.26016h642.85696c19.28192 0 32.14336 12.8512 32.14336 32.14336v482.14016H157.87008V263.40352c0-19.29216 12.8512-32.1536 32.14336-32.1536z" fill="#91D5FF" p-id="6089"></path><path d="M225.37216 102.68672h539.99616c19.28192 0 35.35872 16.0768 35.35872 32.14336 0 16.0768-16.0768 32.14336-35.35872 32.14336H225.37216c-19.29216 0-35.35872-16.0768-35.35872-32.1536 0-16.06656 16.0768-32.13312 35.35872-32.13312z" fill="#BAE7FF" p-id="6090"></path><path d="M109.64992 456.25344h202.50624l61.07136 141.43488h273.2032l73.9328-141.43488h192.86016c25.71264 0 48.22016 22.50752 48.22016 48.22016v385.71008c0 25.71264-22.50752 48.22016-48.22016 48.22016H109.64992C83.94752 938.3936 61.44 915.89632 61.44 890.18368V504.4736c3.21536-25.71264 22.49728-48.22016 48.20992-48.22016z" fill="#40A9FF" p-id="6091"></path><path d="M286.44352 745.54368h449.9968c19.28192 0 32.14336 12.86144 32.14336 32.14336 0 19.28192-12.86144 32.14336-32.14336 32.14336H286.44352c-19.29216 0-32.1536-12.86144-32.1536-32.1536 0-19.28192 12.86144-32.13312 32.1536-32.13312z" fill="#BAE7FF" p-id="6092"></path><path d="M190.01344 231.26016h642.85696c19.28192 0 32.14336 12.8512 32.14336 32.14336v482.14016H157.87008V263.40352c0-19.29216 12.8512-32.1536 32.14336-32.1536z" fill="#91D5FF" p-id="6093"></path><path d="M225.37216 102.68672h539.99616c19.28192 0 35.35872 16.0768 35.35872 32.14336 0 16.0768-16.0768 32.14336-35.35872 32.14336H225.37216c-19.29216 0-35.35872-16.0768-35.35872-32.1536 0-16.06656 16.0768-32.13312 35.35872-32.13312z" fill="#BAE7FF" p-id="6094"></path><path d="M109.64992 456.25344h202.50624l61.07136 141.43488h273.2032l73.9328-141.43488h192.86016c25.71264 0 48.22016 22.50752 48.22016 48.22016v385.71008c0 25.71264-22.50752 48.22016-48.22016 48.22016H109.64992C83.94752 938.3936 61.44 915.89632 61.44 890.18368V504.4736c3.21536-25.71264 22.49728-48.22016 48.20992-48.22016z" fill="#40A9FF" p-id="6095"></path><path d="M286.44352 745.54368h449.9968c19.28192 0 32.14336 12.86144 32.14336 32.14336 0 19.28192-12.86144 32.14336-32.14336 32.14336H286.44352c-19.29216 0-32.1536-12.86144-32.1536-32.1536 0-19.28192 12.86144-32.13312 32.1536-32.13312z" fill="#BAE7FF" p-id="6096"></path></svg>
