<?xml version="1.0" standalone="no"?><!DOCTYPE svg PUBLIC "-//W3C//DTD SVG 1.1//EN" "http://www.w3.org/Graphics/SVG/1.1/DTD/svg11.dtd"><svg t="1643418760181" class="icon" viewBox="0 0 1024 1024" version="1.1" xmlns="http://www.w3.org/2000/svg" p-id="6018" xmlns:xlink="http://www.w3.org/1999/xlink" width="200" height="200"><defs><style type="text/css"></style></defs><path d="M921.6 506.88l-35.84-20.48v-5.12l30.72-30.72s5.12-10.24 5.12-15.36c0-5.12-5.12-5.12-5.12-5.12l-40.96-15.36V409.6l20.48-35.84V358.4c0-5.12-5.12-5.12-5.12-5.12l-46.08-10.24s0-5.12-5.12-5.12l15.36-35.84v-15.36l-5.12-5.12h-40.96l-5.12-5.12v-40.96-15.36s-5.12-5.12-15.36 0l-40.96 5.12-5.12-5.12v-40.96c0-5.12 0-5.12-5.12-5.12h-15.36l-35.84 15.36s-5.12 0-5.12-5.12l-10.24-46.08c0-5.12 0-5.12-5.12-5.12h-15.36L614.4 153.6h-5.12l-15.36-35.84c0-5.12-5.12-5.12-5.12-5.12-5.12 0-5.12 0-15.36 5.12l-25.6 25.6h-5.12l-25.6-35.84c0-5.12-5.12-5.12-5.12-5.12-5.12 0-5.12 0-5.12 5.12l-20.48 35.84h-5.12l-30.72-25.6s-5.12-5.12-15.36-5.12c-5.12 0-5.12 5.12-5.12 5.12l-15.36 30.72H409.6l-35.84-20.48H358.4c-5.12 0-5.12 5.12-5.12 5.12l-10.24 46.08s-5.12 0-5.12 5.12l-35.84-10.24h-15.36l-5.12 5.12v40.96l-5.12 5.12-40.96-5.12h-15.36s-5.12 5.12 0 15.36l5.12 40.96-5.12 5.12h-40.96c-5.12 0-5.12 0-5.12 5.12v15.36l15.36 35.84s0 5.12-5.12 5.12l-46.08 10.24c-5.12 0-5.12 0-5.12 5.12v15.36L153.6 409.6v5.12l-35.84 15.36c-5.12 0-5.12 5.12-5.12 5.12 0 5.12 0 5.12 5.12 15.36l25.6 25.6v5.12l-35.84 25.6c-5.12 0-5.12 5.12-5.12 5.12 0 5.12 0 5.12 5.12 5.12l35.84 20.48v5.12l-25.6 25.6s-5.12 5.12-5.12 15.36c0 5.12 5.12 5.12 5.12 5.12l35.84 15.36v5.12l-20.48 35.84v15.36c0 5.12 5.12 5.12 5.12 5.12l40.96 5.12s0 5.12 5.12 5.12l-15.36 35.84v15.36l5.12 5.12h40.96l5.12 5.12-5.12 40.96v15.36s5.12 5.12 15.36 0l40.96-5.12 5.12 5.12v40.96c0 5.12 0 5.12 5.12 5.12h15.36l35.84-15.36s5.12 0 5.12 5.12l5.12 40.96c0 5.12 0 5.12 5.12 5.12h15.36l35.84-20.48h5.12l15.36 35.84c0 5.12 5.12 5.12 5.12 5.12 5.12 0 5.12 0 15.36-5.12l25.6-25.6h5.12l20.48 35.84 20.48 20.48c5.12 0 5.12 0 5.12-5.12l20.48-35.84h5.12l25.6 25.6s5.12 5.12 15.36 5.12c5.12 0 5.12-5.12 5.12-5.12l15.36-35.84h5.12l35.84 20.48h15.36c5.12 0 5.12-5.12 5.12-5.12l5.12-40.96s5.12 0 5.12-5.12l35.84 15.36h15.36l5.12-5.12v-40.96l5.12-5.12 40.96 5.12h15.36s5.12-5.12 0-15.36l-5.12-40.96 5.12-5.12h40.96c5.12 0 5.12 0 5.12-5.12v-15.36l-15.36-35.84s0-5.12 5.12-5.12l40.96-5.12c5.12 0 5.12 0 5.12-5.12v-15.36l-20.48-35.84v-5.12l35.84-15.36c5.12 0 5.12-5.12 5.12-5.12 0-5.12 0-5.12-5.12-15.36l-25.6-25.6v-5.12l35.84-20.48c20.48-15.36 20.48-20.48 20.48-20.48 0-5.12 0-5.12-5.12-5.12z m-230.4 286.72c-15.36 0-20.48-15.36-20.48-25.6 0-15.36 15.36-20.48 25.6-20.48 15.36 0 20.48 15.36 20.48 25.6 0 15.36-15.36 20.48-25.6 20.48z m-15.36-76.8c-15.36 0-20.48 5.12-25.6 15.36l-15.36 56.32c-30.72 10.24-76.8 20.48-122.88 20.48-40.96 0-92.16-5.12-122.88-25.6l-15.36-56.32c0-15.36-15.36-20.48-25.6-15.36l-51.2 15.36c-5.12-15.36-15.36-25.6-20.48-35.84h245.76v-81.92H445.44v-56.32h76.8c5.12 0 35.84 0 46.08 40.96 0 15.36 5.12 46.08 15.36 61.44 5.12 15.36 20.48 40.96 40.96 40.96h128c-5.12 15.36-20.48 20.48-25.6 35.84l-56.32-20.48z m-337.92 76.8c-15.36 0-25.6-5.12-25.6-20.48 0-15.36 5.12-25.6 20.48-25.6 15.36 0 25.6 5.12 25.6 20.48 0 15.36-5.12 25.6-20.48 25.6zM245.76 414.72c5.12 15.36 0 25.6-15.36 35.84-15.36 5.12-25.6 0-35.84-15.36-5.12-15.36 0-25.6 15.36-35.84 15.36-5.12 25.6 0 35.84 15.36z m-25.6 71.68l56.32-20.48c15.36-10.24 15.36-25.6 15.36-30.72L276.48 409.6h40.96v194.56H235.52c-10.24-30.72-15.36-56.32-15.36-87.04v-35.84z m230.4-20.48V409.6h102.4c5.12 0 35.84 5.12 35.84 25.6s-20.48 25.6-40.96 25.6H455.68z m368.64 46.08v20.48h-25.6s-5.12 0-5.12 5.12v15.36c0 35.84-20.48 40.96-35.84 40.96-15.36 0-35.84-5.12-35.84-15.36-5.12-46.08-25.6-61.44-46.08-81.92 25.6-20.48 61.44-46.08 61.44-81.92 0-40.96-25.6-71.68-46.08-76.8-35.84-20.48-61.44-20.48-71.68-20.48H296.96c40.96-46.08 102.4-81.92 168.96-97.28l35.84 40.96c5.12 5.12 20.48 5.12 35.84 0l40.96-40.96c92.16 15.36 158.72 71.68 199.68 143.36l-25.6 61.44c-5.12 15.36 0 20.48 15.36 25.6l56.32 25.6v25.6zM496.64 184.32c5.12-5.12 25.6-5.12 35.84 0 5.12 5.12 5.12 25.6 0 35.84-5.12 5.12-25.6 5.12-35.84 0-5.12-5.12-5.12-25.6 0-35.84z m286.72 230.4c5.12-15.36 20.48-20.48 35.84-15.36 10.24 10.24 20.48 20.48 10.24 35.84-5.12 15.36-20.48 20.48-30.72 15.36-15.36-10.24-20.48-20.48-15.36-35.84z" fill="#795548" p-id="6019"></path></svg>