<?xml version="1.0" standalone="no"?><!DOCTYPE svg PUBLIC "-//W3C//DTD SVG 1.1//EN" "http://www.w3.org/Graphics/SVG/1.1/DTD/svg11.dtd"><svg t="1643418703177" class="icon" viewBox="0 0 1024 1024" version="1.1" xmlns="http://www.w3.org/2000/svg" p-id="15433" xmlns:xlink="http://www.w3.org/1999/xlink" width="200" height="200"><defs><style type="text/css"></style></defs><path d="M63.5 63.5h897v897h-897v-897zM887 746.6c-6.5-40.9-33.2-75.3-112.2-107.4-27.5-12.9-58.1-21.9-67.2-42.6-3.4-12.3-3.9-19.1-1.7-26.4 5.6-24.1 34.2-31.4 56.6-24.7 14.6 4.5 28 15.7 36.5 33.6 38.6-25.3 38.6-25.3 65.6-42-10.1-15.7-15.1-22.5-21.9-29.2-23.5-26.3-54.9-39.8-105.9-38.6l-26.4 3.3c-25.3 6.2-49.3 19.6-63.9 37.6-42.6 48.3-30.3 132.3 21.3 167.1 51 38.1 125.6 46.5 135.2 82.4 9 43.7-32.5 57.7-73.5 52.7-30.3-6.7-47.1-21.9-65.6-49.9l-68.4 39.3c7.8 17.9 16.8 25.8 30.3 41.4 65 65.6 227.6 62.3 256.8-37.5 1.1-3.4 9-26.4 2.8-61.7l1.6 2.6zM551.3 475.8h-84c0 72.4-0.3 144.4-0.3 217 0 46 2.4 88.3-5.2 101.3-12.3 25.8-44.1 22.5-58.5 17.9-14.8-7.3-22.3-17.4-31-32-2.4-3.9-4.1-7.3-4.7-7.3l-68.2 42c11.4 23.5 28 43.8 49.5 56.7 32 19.1 74.9 25.2 119.9 15.1 29.3-8.4 54.5-25.8 67.7-52.7 19.1-34.8 15-77.4 14.8-125.1 0.4-76.8 0-153.6 0-230.9v-2z" fill="#F5DD1E" p-id="15434"></path></svg>