<?xml version="1.0" standalone="no"?><!DOCTYPE svg PUBLIC "-//W3C//DTD SVG 1.1//EN" "http://www.w3.org/Graphics/SVG/1.1/DTD/svg11.dtd"><svg t="1643418670057" class="icon" viewBox="0 0 1024 1024" version="1.1" xmlns="http://www.w3.org/2000/svg" p-id="4372" xmlns:xlink="http://www.w3.org/1999/xlink" width="200" height="200"><defs><style type="text/css"></style></defs><path d="M576.256 535.1936c-13.568 0.2048 2.56 7.0144 20.2752 9.728 4.9152-3.7888 9.3696-7.68 13.312-11.4176a101.4272 101.4272 0 0 1-33.5872 1.6896M649.1136 517.0688c8.0896-11.1616 13.9776-23.3984 16.0256-35.9936-1.792 8.96-6.656 16.7424-11.264 24.9856-25.3952 15.9744-2.4064-9.5232 0-19.2-27.2896 34.3552-3.7888 20.5824-4.7616 30.208M675.9936 447.0784c1.6384-24.4224-4.8128-16.7424-6.9632-7.3728 2.56 1.28 4.5056 17.2032 6.9632 7.3728M524.8 112.9472c7.2192 1.3312 15.616 2.304 14.4384 4.096 7.936-1.792 9.728-3.3792-14.4384-4.096" fill="#D70751" p-id="4373"></path><path d="M539.2384 116.992l-5.12 1.024 4.7616-0.3584 0.3584-0.6656" fill="#D70751" p-id="4374"></path><path d="M765.1328 456.3456c0.8192 21.9648-6.4 32.6144-12.9024 51.456l-11.776 5.8368c-9.5744 18.688 0.9728 11.8784-5.888 26.6752-15.0016 13.312-45.5168 41.728-55.296 44.288-7.0656-0.1536 4.864-8.3968 6.4-11.6224-20.0192 13.824-16.0768 20.6848-46.7456 29.0304l-0.9216-1.9968c-75.6736 35.6352-180.7872-34.9184-179.4048-131.1744-0.8192 6.0928-2.304 4.608-3.9936 7.0144-3.8912-49.5104 22.8864-99.2768 68.0448-119.552 44.1856-21.9136 95.9488-12.9024 127.5904 16.5888-17.408-22.784-51.968-46.8992-92.9792-44.6464-40.1408 0.6144-77.7216 26.112-90.2656 53.8624-20.5824 12.9536-22.9888 49.92-31.9488 56.6784-12.032 88.6784 22.6816 126.976 81.5104 172.032 9.216 6.2464 2.56 7.168 3.84 11.9296a159.4368 159.4368 0 0 1-52.1216-39.8336c7.7824 11.4176 16.2304 22.528 27.136 31.232-18.432-6.2464-43.008-44.6464-50.2272-46.1824 31.744 56.832 128.8192 99.6864 179.6096 78.4384-23.5008 0.8704-53.3504 0.512-79.8208-9.2672-11.0592-5.7344-26.1632-17.5616-23.4496-19.7632 69.3248 25.9072 141.0048 19.6096 201.0112-28.5184 15.2576-11.8784 31.9488-32.1024 36.7616-32.3584-7.2704 10.9056 1.2288 5.2224-4.352 14.848 15.2064-24.5248-6.6048-9.984 15.7184-42.3424l8.2944 11.3664c-3.072-20.3776 25.2928-45.1072 22.3744-77.312 6.5024-9.8816 7.2704 10.5984 0.3584 33.28 9.5744-25.1904 2.56-29.184 5.0176-49.9712 2.6624 6.9632 6.144 14.3872 7.936 21.76-6.2464-24.32 6.4-40.96 9.5232-55.04-3.072-1.3824-9.6256 10.752-11.1104-17.92 0.2048-12.4928 3.4304-6.5536 4.7104-9.6256-2.4576-1.4336-8.8576-10.9568-12.8-29.2864 2.8672-4.3008 7.5776 11.1616 11.4176 11.776-2.4576-14.5408-6.7072-25.6512-6.912-36.864-11.264-23.552-3.9936 3.1744-13.1072-10.0864-11.9808-37.376 9.9328-8.704 11.4176-25.6 18.176 26.2656 28.5184 67.072 33.28 83.968a344.064 344.064 0 0 0-16.64-59.904c5.5296 2.3552-8.9088-42.3424 7.168-12.8-17.152-63.0272-73.3696-122.0096-125.1328-149.6576 6.3488 5.7856 14.336 13.056 11.4688 14.2336-25.7536-15.36-21.1968-16.5376-24.8832-23.04-20.992-8.4992-22.3744 0.7168-36.2496 0-39.4752-20.8896-47.104-18.688-83.456-31.7952l1.6384 7.68c-26.1632-8.704-30.464 3.328-58.7776 0.0512-1.7408-1.3312 9.0624-4.864 17.92-6.144-25.2928 3.328-24.064-4.9664-48.8448 0.9216 6.0928-4.3008 12.544-7.168 19.0464-10.752-20.6336 1.2288-49.2544 11.9808-40.448 2.2016-33.6384 15.0528-93.44 36.1472-126.976 67.584l-1.024-7.0656c-15.4112 18.432-67.072 55.1424-71.168 79.0528l-4.096 0.9216c-8.0384 13.568-13.2096 28.928-19.5584 42.8544-10.4448 17.8176-15.36 6.8608-13.824 9.6256-20.5824 41.728-30.8224 76.8-39.68 105.5744 6.2976 9.3696 0.1536 56.576 2.56 94.3616-10.3424 186.624 130.9696 367.8208 285.44 409.6 22.6304 8.1408 56.32 7.8336 84.9408 8.6528-33.792-9.6768-38.1952-5.12-71.0656-16.5888-23.7568-11.2128-28.9792-23.9616-45.7728-38.5536l6.656 11.776c-32.9728-11.6736-19.2-14.4384-46.0288-22.9376l7.1168-9.3184c-10.7008-0.768-28.3136-17.9712-33.1264-27.5456l-11.7248 0.512c-14.0288-17.408-21.504-29.8496-20.992-39.5264l-3.7376 6.7072c-4.3008-7.3216-51.712-65.024-27.136-51.5584-4.5568-4.1984-10.5984-6.8096-17.2032-18.7904l5.0176-5.7344c-11.8272-15.2064-21.8112-34.7136-21.0432-41.216 6.2976 8.4992 10.7008 10.0864 15.0528 11.5712-29.9008-74.1888-31.5904-4.096-54.272-75.52l4.8128-0.3584c-3.6352-5.5296-5.888-11.52-8.8576-17.408l2.0992-20.7872c-21.504-24.8832-5.9904-105.8304-2.9184-150.1696 2.1504-18.0736 17.9712-37.2736 30.0032-67.3792l-7.3216-1.28c13.9776-24.4224 79.9744-98.0992 110.4896-94.3104 14.848-18.5856-2.9184-0.1024-5.8368-4.7616 32.512-33.6384 42.752-23.7568 64.6656-29.7984 23.6544-14.08-20.2752 5.4784-9.0624-5.376 40.8576-10.4448 28.9792-23.7568 82.3296-29.0304 5.632 3.1744-13.056 4.9152-17.7664 9.0624 34.0992-16.64 107.8272-12.8512 155.7504 9.2672 55.6032 26.0096 118.016 102.7584 120.5248 175.0528l2.7648 0.7168c-1.3824 28.7232 4.4032 61.952-5.632 92.4672l6.8608-14.4384" fill="#D70751" p-id="4375"></path><path d="M428.0832 553.8304l-1.8944 9.5232c8.9088 12.1344 15.9744 25.2416 27.392 34.7136-8.192-15.9744-14.2848-22.5792-25.4976-44.2368M449.1776 553.0112c-4.7104-5.2224-7.5264-11.52-10.6496-17.7664 3.0208 11.008 9.1136 20.48 14.848 30.1056l-4.1984-12.288M822.3744 471.9104l-1.9968 5.0176a241.3568 241.3568 0 0 1-23.6544 75.4688c13.3632-25.088 22.016-52.6336 25.6-80.4864M527.4624 106.496c9.216-3.3792 22.528-1.8944 32.256-4.096-12.6464 1.024-25.2928 1.6896-37.7344 3.328l5.4784 0.7168M205.2608 277.8112c2.0992 19.5584-14.7456 27.136 3.7376 14.2336 9.8816-22.272-3.8912-6.144-3.7376-14.2336M183.552 368.4352c4.2496-13.056 5.0176-20.9408 6.656-28.4672-11.776 15.0016-5.4272 18.2272-6.656 28.4672" fill="#D70751" p-id="4376"></path></svg>