<?xml version="1.0" standalone="no"?><!DOCTYPE svg PUBLIC "-//W3C//DTD SVG 1.1//EN" "http://www.w3.org/Graphics/SVG/1.1/DTD/svg11.dtd"><svg t="1643418778595" class="icon" viewBox="0 0 1024 1024" version="1.1" xmlns="http://www.w3.org/2000/svg" p-id="6316" xmlns:xlink="http://www.w3.org/1999/xlink" width="200" height="200"><defs><style type="text/css"></style></defs><path d="M440.0128 153.6L409.6 260.8128l-59.1872 36.7616-113.6128-23.9616-71.9872 118.3744 83.2 84.8384v70.3488l-83.2 84.8384 71.9872 118.3744 113.6128-24.0128 59.1872 36.864L440.0128 870.4h143.9744l35.2256-107.2128 54.3744-36.8128 113.6128 24.064 71.9872-118.4256-78.3872-84.7872V476.7744l78.3872-84.7872-71.9872-118.3744-113.6128 23.9616-54.3744-36.7616L583.9872 153.6H440.0128zM512 384a128 128 0 1 1 0 256 128 128 0 0 1 0-256z" fill="#1976D2" p-id="6317"></path></svg>