<svg t="1643421746253" class="icon" viewBox="0 0 1024 1024" version="1.1" xmlns="http://www.w3.org/2000/svg" p-id="21352" width="200" height="200"><path d="M106.666667 320h810.666666v-85.333333a10.666667 10.666667 0 0 0-10.666666-10.666667H117.333333a10.666667 10.666667 0 0 0-10.666666 10.666667v85.333333z m10.666666 480h789.333334a10.666667 10.666667 0 0 0 10.666666-10.666667V341.333333H106.666667v448a10.666667 10.666667 0 0 0 10.666666 10.666667z" fill="#FFFFFF" p-id="21353"></path><path d="M154.666667 272m-16 0a16 16 0 1 0 32 0 16 16 0 1 0-32 0Z" fill="#C8C6C4" p-id="21354"></path><path d="M208 272m-16 0a16 16 0 1 0 32 0 16 16 0 1 0-32 0Z" fill="#C8C6C4" p-id="21355"></path><path d="M261.333333 272m-16 0a16 16 0 1 0 32 0 16 16 0 1 0-32 0Z" fill="#C8C6C4" p-id="21356"></path><path d="M320 800H117.333333a10.666667 10.666667 0 0 1-10.666666-10.666667V341.333333h213.333333v458.666667z" fill="#EDEBE9" p-id="21357"></path><path d="M256 501.333333h-85.333333a10.666667 10.666667 0 1 1 0-21.333333h85.333333a10.666667 10.666667 0 1 1 0 21.333333z m0-64h-85.333333a10.666667 10.666667 0 1 1 0-21.333333h85.333333a10.666667 10.666667 0 1 1 0 21.333333z m0 128h-85.333333a10.666667 10.666667 0 1 1 0-21.333333h85.333333a10.666667 10.666667 0 1 1 0 21.333333z m320-64H394.666667a10.666667 10.666667 0 1 1 0-21.333333h181.333333a10.666667 10.666667 0 1 1 0 21.333333z m0-64H394.666667a10.666667 10.666667 0 1 1 0-21.333333h181.333333a10.666667 10.666667 0 1 1 0 21.333333z m0 128H394.666667a10.666667 10.666667 0 1 1 0-21.333333h181.333333a10.666667 10.666667 0 1 1 0 21.333333z m0 64H394.666667a10.666667 10.666667 0 1 1 0-21.333333h181.333333a10.666667 10.666667 0 1 1 0 21.333333z m0 64H394.666667a10.666667 10.666667 0 1 1 0-21.333333h181.333333a10.666667 10.666667 0 1 1 0 21.333333z" fill="#C8C6C4" p-id="21358"></path><path d="M842.666667 693.333333H661.333333a21.333333 21.333333 0 0 1-21.333333-21.333333V437.333333a21.333333 21.333333 0 0 1 21.333333-21.333333h181.333334a21.333333 21.333333 0 0 1 21.333333 21.333333v234.666667a21.333333 21.333333 0 0 1-21.333333 21.333333z" fill="#69AFE5" p-id="21359"></path><path d="M906.666667 202.666667H117.333333c-17.642667 0-32 14.357333-32 32v554.666666c0 17.642667 14.357333 32 32 32h789.333334c17.642667 0 32-14.357333 32-32V234.666667c0-17.642667-14.357333-32-32-32z m-789.333334 21.333333h789.333334a10.666667 10.666667 0 0 1 10.666666 10.666667v85.333333H106.666667v-85.333333a10.666667 10.666667 0 0 1 10.666666-10.666667z m789.333334 576H117.333333a10.666667 10.666667 0 0 1-10.666666-10.666667V341.333333h810.666666v448a10.666667 10.666667 0 0 1-10.666666 10.666667z" fill="#605E5C" opacity=".64" p-id="21360"></path></svg>