<?xml version="1.0" standalone="no"?><!DOCTYPE svg PUBLIC "-//W3C//DTD SVG 1.1//EN" "http://www.w3.org/Graphics/SVG/1.1/DTD/svg11.dtd"><svg t="1643418721117" class="icon" viewBox="0 0 1024 1024" version="1.1" xmlns="http://www.w3.org/2000/svg" p-id="4825" xmlns:xlink="http://www.w3.org/1999/xlink" width="200" height="200"><defs><style type="text/css"></style></defs><path d="M853.76 559.36c45.2096 15.872 67.84 43.008 67.84 81.3056 0 25.2928-9.3696 45.312-28.1088 60.16-18.688 14.848-45.312 24.064-80.0256 24.064-34.7136 0-66.816-10.0864-96.4096-26.624 0.3584-8.704 2.6624-18.3296 6.912-28.7744 4.2496-10.4448 9.216-18.688 15.0016-24.7808 27.1872 14.1312 50.8416 21.1968 70.912 21.1968 9.472 0 16.8448-1.536 21.9648-4.7616 5.12-3.2256 7.68-7.4752 7.68-12.9024 0-10.0864-7.8848-17.664-23.552-22.7328l-28.0576-10.5984c-42.496-15.5136-63.744-40.704-63.744-75.776 0-25.6 8.96-45.8752 26.7776-60.8768 17.8688-15.0016 41.9328-27.904 72.192-27.904 14.9504 0 31.4368 2.0992 49.4592 6.3488 18.0224 4.1984 32.768 14.592 44.3392 20.2752 0.7168 9.472-1.1776 19.8144-5.632 31.0784-4.4032 11.264-9.8304 19.3024-16.2816 24.0128-28.5696-12.8-52.3776-19.2-71.424-19.2-6.8096 0-11.9808 1.536-15.5648 4.5568a14.5408 14.5408 0 0 0-5.3248 11.6224c0 8.0896 6.4512 14.4896 19.4048 19.2l31.6416 11.1104zM627.8144 559.36c45.2608 15.872 67.84 43.008 67.84 81.3056 0 25.2928-9.3696 45.312-28.0576 60.16-18.688 14.848-45.3632 24.064-80.0768 24.064-34.6624 0-66.816-10.0864-96.3584-26.624 0.3072-8.704 2.6112-18.3296 6.8608-28.7744a78.336 78.336 0 0 1 15.0528-24.7808c27.1872 14.1312 50.8416 21.1968 70.912 21.1968 9.472 0 16.8448-1.536 21.9136-4.7616 5.12-3.2256 7.68-7.4752 7.68-12.9024 0-10.0864-7.8848-17.664-23.5008-22.7328l-28.0576-10.5984c-42.496-15.5136-63.744-40.704-63.744-75.776 0-25.6 8.9088-45.8752 26.7776-60.8768 17.8176-15.0016 41.8816-27.904 72.1408-27.904 14.9504 0 31.488 2.0992 49.4592 6.3488 18.0224 4.1984 32.768 14.592 44.3904 20.2752 0.6656 9.472-1.2288 19.8144-5.632 31.0784-4.4032 11.264-9.8304 19.3024-16.3328 24.0128-28.5696-12.8-52.3776-19.2-71.424-19.2-6.8096 0-11.9808 1.536-15.5648 4.5568a14.592 14.592 0 0 0-5.3248 11.6224c0 8.0896 6.4512 14.4896 19.456 19.2l31.5904 11.1104zM463.0528 562.944a121.344 121.344 0 0 0-7.3728-42.9568 96.256 96.256 0 0 0-21.1456-33.792 98.048 98.048 0 0 0-33.4336-22.272c-13.1072-5.376-27.8016-13.4656-44.0832-13.4656-19.4048 0-36.352 8.7552-50.7392 15.5136a97.024 97.024 0 0 0-35.7376 27.7504c-9.3184 11.776-16.3328 25.7024-20.8896 41.6768-4.608 16.0256-6.912 33.4336-6.912 52.2752 0 19.5072 1.8944 37.5808 5.632 54.0672 3.7376 16.4864 10.1376 30.7712 19.0976 42.9056 9.0112 12.1344 20.7872 21.5552 35.2256 28.2624 14.4384 6.7584 32.4096 11.9296 53.76 11.9296 39.4752 0 72.8064-11.4176 99.9936-30.6176-2.7136-19.456-9.6256-35.0208-20.7872-46.4896a266.1376 266.1376 0 0 1-36.864 11.264 137.984 137.984 0 0 1-28.16 3.4304c-16.2816 0-28.0064-4.1472-35.072-12.4928-7.1168-8.3456-11.008-18.176-11.6736-33.1264h132.608c4.352-14.1824 6.5536-33.28 6.5536-53.8624z m-139.6736 3.4816c1.024-17.152 4.096-35.584 9.3696-43.1104 5.2224-7.6288 13.2096-11.3664 24.064-11.3664 11.1104 0 19.456 3.9936 24.9856 12.0832 5.5808 8.0896 8.3456 24.3712 8.3456 36.864v5.5296H323.4304zM216.7296 657.408h-13.7728c-14.9504 0-20.5824-7.8848-20.5824-23.7056V343.04c0-17.5104-5.0688-29.7472-11.52-36.864-6.4512-7.0144-17.664-6.9632-33.6384-6.9632h-31.1296l-3.6352-0.0512v0.3072L102.4 342.7328v305.0496c0 24.2176 5.4272 41.984 15.1552 53.248 9.728 11.3152 26.112 16.896 49.2032 16.896 15.9744 0 34.2016-1.6384 54.5792-5.0176 1.024-3.3792 1.536-10.7008 1.536-21.8624 0-11.264-2.048-22.4256-6.144-33.6384z" fill="#5C6BC0" p-id="4826"></path></svg>