<svg t="1643422665124" class="icon" viewBox="0 0 1024 1024" version="1.1" xmlns="http://www.w3.org/2000/svg" p-id="12691" width="200" height="200"><path d="M842.666667 981.333333H181.333333a53.393333 53.393333 0 0 1-53.333333-53.333333V96a53.393333 53.393333 0 0 1 53.333333-53.333333h466.746667a52.986667 52.986667 0 0 1 37.713333 15.62l194.586667 194.586666a52.986667 52.986667 0 0 1 15.62 37.713334V928a53.393333 53.393333 0 0 1-53.333333 53.333333zM181.333333 85.333333a10.666667 10.666667 0 0 0-10.666666 10.666667v832a10.666667 10.666667 0 0 0 10.666666 10.666667h661.333334a10.666667 10.666667 0 0 0 10.666666-10.666667V298.666667h-160a53.393333 53.393333 0 0 1-53.333333-53.333334V85.333333z m501.333334 30.166667V245.333333a10.666667 10.666667 0 0 0 10.666666 10.666667h129.833334z" fill="#5C5C66" p-id="12692"></path></svg>