<?xml version="1.0" standalone="no"?><!DOCTYPE svg PUBLIC "-//W3C//DTD SVG 1.1//EN" "http://www.w3.org/Graphics/SVG/1.1/DTD/svg11.dtd"><svg t="1643418740402" class="icon" viewBox="0 0 1024 1024" version="1.1" xmlns="http://www.w3.org/2000/svg" p-id="5270" xmlns:xlink="http://www.w3.org/1999/xlink" width="200" height="200"><defs><style type="text/css"></style></defs><path d="M441.6 289.5872L371.2 649.6256h84.7872l39.9872-200.0384H563.2c31.1808 0 30.0544 12.9536 25.6 35.2256l-30.4128 164.8128h89.6l30.4128-182.4256c8.9088-44.544-18.3296-80.384-89.6-84.7872H508.7744l17.6128-92.8256H441.6zM120.0128 382.464L48.0256 743.936h84.7872l17.6128-94.4128H230.4c75.7248 4.5056 161.5872-57.856 161.5872-164.7616 0-62.3616-35.8912-97.9456-107.1616-102.4h-164.864z m588.8 0L636.8256 742.4h84.7872l17.6128-92.8256H819.2c75.7248 4.5056 160-57.856 160-164.7616 0-62.3616-34.304-97.9456-105.6256-102.4h-164.7616z m70.4 65.5872h57.6c31.1808 0 54.3744 13.312 54.3744 39.9872-4.4544 75.776-39.936 89.9584-79.9744 94.4128H756.736l22.4256-134.4z m-588.8 1.5872h59.1872c31.1808 0 52.7872 13.312 52.7872 39.9872-4.4544 75.776-39.936 89.9584-79.9744 94.4128H167.936l22.4256-134.4z" fill="#6C7EB7" p-id="5271"></path></svg>