<?xml version="1.0" standalone="no"?><!DOCTYPE svg PUBLIC "-//W3C//DTD SVG 1.1//EN" "http://www.w3.org/Graphics/SVG/1.1/DTD/svg11.dtd"><svg t="1643418754560" class="icon" viewBox="0 0 1024 1024" version="1.1" xmlns="http://www.w3.org/2000/svg" p-id="5718" xmlns:xlink="http://www.w3.org/1999/xlink" width="200" height="200"><defs><style type="text/css"></style></defs><path d="M405.882438 283.066c16.682597-2.556204 33.499731-4.439723 50.451402-5.381483 2.959816-0.672685 6.054168-0.538148 9.148521-0.672685 23.947599-0.672685 47.895198-0.672685 71.842797 0.403611a623.041182 623.041182 0 0 1 127.944755 22.198617l-0.201805 0.269074c-6.054168 8.27403-12.242874 16.480791-18.162505 24.889358-1.883519 0.269074-3.430695-0.874491-5.04514-1.412639a379.058201 379.058201 0 0 0-99.153823-24.754821 409.261774 409.261774 0 0 0-166.287821 16.07718c-39.419362 12.713753-77.358817 32.288897-106.755167 61.954322-20.853246 21.256857-36.795889 48.769689-39.015751 78.973261-2.018056 14.328198 1.479908 28.723665 4.506992 42.648252l-132.048136 23.274914a157.677449 157.677449 0 0 1 15.471763-67.403074c19.238801-41.033807 52.603995-73.860853 89.803496-98.884748a409.329042 409.329042 0 0 1 80.520438-41.639224 529.806991 529.806991 0 0 1 116.979984-30.539915zM484.990236 445.788589c2.556204-4.237918 7.130465-7.601345 12.310143-6.928659 5.852363 0.134537 10.359355 4.977872 11.570188 10.426623l412.759737 73.389973-1.34537 6.928659L507.525196 457.291509c-3.363427 5.717826-10.964771 8.677641-16.951671 5.246945-4.170649-1.81625-5.583288-6.255974-7.399539-9.955743l-25.427507-4.036112 1.143565-7.197733 26.032924 4.439723zM102.366803 542.318938c24.283942-0.201806 48.567883 0 72.784556-0.067268l0.134537 3.565232c17.624356-3.834307 35.719593-5.448751 53.747561-4.439723 13.117365 1.143565 25.158433 6.794122 36.930426 12.37741-13.251902 8.206761-26.705609 16.07718-39.688436 24.754822-14.328198-11.166577-33.903342-11.166577-50.653208-6.255974a51.124087 51.124087 0 0 0-0.47088 5.381483v125.254014H102.568609c-0.134537-53.545755 0-107.09151-0.134537-160.569996zM291.122315 542.318938c21.391394-0.201806 42.71552 0 64.106915-0.067268 31.616212-0.201806 63.837841 3.901575 93.234191 16.07718 18.297042 7.735882 35.921398 19.171533 46.549827 36.325009 8.072224 13.453707 10.830234 30.539915 4.506992 45.204457-7.399539 17.489819-23.274914 29.732693-39.419362 38.813945-29.598156 15.808106-62.559739 24.216673-96.059469 25.696581v33.09612l-72.919094 10.023011v-205.169035zM550.106179 542.318938c83.412985-0.269074 166.691433 0 250.104418-0.067268 24.35121 0.067269 49.106031 0.201806 72.851824 6.525048 6.861391 2.28713 15.942643 4.910603 17.758894 12.84829 0.134537 47.087975 0 94.175951 0 141.263926h-72.717288c0-46.684364-0.134537-93.435997 0-140.120361-4.372455-3.834307-10.695697-3.699769-16.144448-4.372455-14.933615-0.336343-29.934499-0.067269-44.868114-0.134537v144.627353H684.105103V587.052515c-0.269074-8.475836 0.403611-16.951671-0.403611-25.360238a56.169228 56.169228 0 0 0-21.660468-3.430696h-39.015751l-0.067269 144.627353H549.904374c0.403611-53.142144 0.067269-107.293315 0.134537-160.569996z" p-id="5719"></path><path d="M646.838334 324.705224l18.229774-24.889358c55.967422 16.413523 110.051325 42.379178 154.179484 80.924048 18.095236 16.144449 34.44149 34.44149 46.953439 55.227469 14.799078 24.485747 24.216673 52.536727 25.292969 81.260391l-131.711793-23.073108a106.284287 106.284287 0 0 0 1.748981-53.411217c-6.861391-30.270841-26.234729-56.371033-49.778716-76.080715a246.404648 246.404648 0 0 0-65.385017-39.284825l0.470879-0.672685z" fill="#D72123" p-id="5720"></path><path d="M364.108677 559.943295c18.633385 1.883519 35.517787 12.444679 48.23154 25.763849 11.03204 11.570188 18.83519 27.714637 16.144449 43.926354-2.959816 16.278986-14.328198 29.530887-27.041951 39.352094-11.03204 8.072224-23.543988 15.135421-37.334038 16.951671V559.943295z" fill="#FFFFFF" p-id="5721"></path></svg>