<svg t="1643421922600" class="icon" viewBox="0 0 1024 1024" version="1.1" xmlns="http://www.w3.org/2000/svg" p-id="24741" width="200" height="200"><path d="M62.464 186.368v30.72l-34.816 13.312v-30.72c1.024 2.048 34.816-13.312 34.816-13.312z m0 286.72v30.72l-34.816 13.312v-29.696c1.024 1.024 34.816-14.336 34.816-14.336z m0 290.816v30.72L27.648 808.96v-29.696c1.024 1.024 34.816-15.36 34.816-15.36z m-3.072-481.28v27.648l-29.696 12.288v-27.648c0 2.048 29.696-12.288 29.696-12.288z m0 97.28v27.648l-27.648 10.24v-27.648l27.648-10.24z m0 193.536v27.648l-29.696 12.288V583.68c0 2.048 29.696-10.24 29.696-10.24z m0 96.256v27.648l-29.696 12.288v-25.6l29.696-14.336z m88.064-463.872v35.84l-47.104 15.36v-34.816l47.104-16.384z m0 289.792v34.816l-47.104 17.408v-34.816l47.104-17.408z m0 291.84v34.816L100.352 839.68v-34.816l47.104-17.408z m-2.048-482.304V337.92l-37.888 13.312v-32.768l37.888-13.312z m0 97.28v32.768l-37.888 14.336v-32.768l37.888-14.336z m0 193.536v32.768l-37.888 13.312v-32.768l37.888-13.312z m0 96.256v32.768l-37.888 13.312V706.56l37.888-14.336z m92.16-465.92v41.984l-60.416 22.528v-41.984l60.416-22.528z m0 289.792v41.984l-60.416 22.528v-41.984l60.416-22.528z m0 286.72v43.008l-60.416 22.528v-43.008l60.416-22.528z m-4.096-476.16v37.888l-50.176 19.456V348.16c0 1.024 50.176-21.504 50.176-21.504z m0 96.256v35.84l-50.176 19.456v-35.84l50.176-19.456z m0 193.536v35.84l-50.176 19.456v-35.84l50.176-19.456z m0 93.184V747.52l-50.176 19.456v-35.84l50.176-21.504z m98.304-485.376v53.248l-75.776 30.72v-53.248l75.776-30.72z m0 290.816v53.248l-75.776 30.72v-53.248l75.776-30.72z m0 286.72v53.248l-75.776 30.72v-53.248l75.776-30.72z m-3.072-477.184v50.176L266.24 397.312v-48.128l62.464-24.576z m0 96.256v48.128L266.24 497.664v-50.176l62.464-26.624z m0 193.536v50.176L266.24 691.2v-50.176l62.464-26.624z m0 94.208v50.176L266.24 780.288v-48.128c0 2.048 62.464-23.552 62.464-23.552z m102.4-492.544v69.632l-84.992 34.816v-69.632l84.992-34.816z m0 289.792v69.632l-84.992 34.816v-69.632l84.992-34.816z m0 286.72v69.632l-84.992 34.816v-69.632l84.992-34.816z m-4.096-471.04v58.368L358.4 409.6v-58.368l68.608-29.696z m0 91.136V471.04L358.4 500.736v-58.368l68.608-29.696z m0 196.608v58.368l-74.752 29.696v-58.368l74.752-29.696z m0 95.232v58.368L358.4 792.576v-58.368l68.608-29.696zM532.48 179.2V276.48l-90.112 37.888v-90.112c31.744-17.408 62.464-34.816 90.112-45.056z m0 105.472v84.992l-88.064 37.888v-84.992l88.064-37.888z m0 95.232v84.992l-90.112 37.888v-84.992l90.112-37.888z m0 95.232v84.992l-88.064 37.888v-84.992l88.064-37.888z m0 93.184v86.016l-90.112 37.888V604.16l90.112-35.84z m0 96.256v84.992l-90.112 39.936v-86.016c2.048 0 90.112-38.912 90.112-38.912z m0 95.232V849.92c-35.84 12.288-63.488 27.648-90.112 39.936V798.72c2.048-1.024 90.112-38.912 90.112-38.912z m462.848-578.56v676.864c-57.344-37.888-130.048-55.296-212.992-55.296-69.632 0-150.528 14.336-238.592 43.008v-91.136c47.104-17.408 98.304-32.768 153.6-39.936V497.664c-47.104 5.12-98.304 20.48-153.6 48.128v-62.464c48.128-20.48 98.304-37.888 153.6-45.056V222.208c-48.128 8.192-100.352 27.648-153.6 50.176v-95.232c79.872-34.816 153.6-50.176 229.376-50.176 80.896-1.024 155.648 16.384 222.208 54.272z m-91.136 58.368c-37.888-17.408-80.896-29.696-133.12-29.696-5.12 0-10.24 0-17.408 2.048v219.136h19.456c45.056 0 88.064 7.168 131.072 19.456V239.616z m0 276.48c-39.936-15.36-84.992-27.648-131.072-27.648-5.12 0-12.288 0-17.408 2.048v221.184h19.456c48.128 0 91.136 5.12 131.072 17.408V516.096h-2.048zM962.56 887.808v-13.312h-5.12V870.4h14.336v2.048h-5.12v15.36H962.56z m14.336 0V870.4h3.072l5.12 12.288 5.12-12.288h3.072v17.408h-2.048v-13.312l-5.12 14.336H983.04l-5.12-12.288V890.88h-2.048l1.024-3.072z" fill="#90C9C4" p-id="24742"></path></svg>