<svg t="1643426061268" class="icon" viewBox="0 0 1024 1024" version="1.1" xmlns="http://www.w3.org/2000/svg" p-id="4223" width="200" height="200"><path d="M605.959068 243.242814l-0.928851 563.812461-411.538976-57.00822c9.404615-9.462668 21.363569-11.842848 34.948013-17.241794 11.726742-4.644254 20.899144-8.185498 32.451726-12.771699 22.46658-8.882136 45.745904-20.028346 66.761154-25.833664l0.058054-384.544249 278.24888-66.412835z m-420.943591 501.811668s3.599297 4.179829 7.140541 6.501955c3.947616 2.55434 5.050626 2.670446 9.462668 4.528148 6.618062 2.728499 13.52639 4.93452 20.608878 7.430807 14.223029 4.876467 26.240036 9.694881 40.579171 15.093826l243.823346 90.098532c108.211123 37.966778 77.036567 44.352628 167.135098 17.299847l129.284427-37.850672c23.279324-6.908328 33.43863-5.166733 35.934917-16.138783V191.923805c-4.702307-9.810987-2.322127-6.618062-16.893475-10.855944l-64.903452-18.693123c-28.446057-8.069392-56.892114-16.545156-86.150916-25.253132-31.290663-9.288508-56.717955-22.931005-85.744543-11.030104L185.015477 275.8687v469.185782z" fill="#d94b24" p-id="4224"></path></svg>