<svg t="1660802852322" class="icon" viewBox="0 0 1024 1024" version="1.1" xmlns="http://www.w3.org/2000/svg"
     p-id="15192" width="128" height="128">
    <path d="M896 704c0 16.213333-8.96 30.293333-22.613333 37.546667l-337.066667 189.44c-6.826667 5.12-15.36 7.68-24.32 7.68s-17.493333-2.56-24.32-7.68l-337.066667-189.44A42.282667 42.282667 0 0 1 128 704v-384c0-16.213333 8.96-30.293333 22.613333-37.546667l337.066667-189.44c6.826667-5.12 15.36-7.68 24.32-7.68s17.493333 2.56 24.32 7.68l337.066667 189.44c13.653333 7.253333 22.613333 21.333333 22.613333 37.546667v384M512 177.066667L257.706667 320 512 462.933333l254.293333-142.933333L512 177.066667M213.333333 678.826667l256 144.213333v-286.293333L213.333333 392.96v285.866667m597.333334 0v-285.866667l-256 143.786667v286.293333z"
          fill="#29B6F6" p-id="15193"></path>
</svg>