<svg t="1643426250568" class="icon" viewBox="0 0 1024 1024" version="1.1" xmlns="http://www.w3.org/2000/svg" p-id="4223" width="200" height="200"><path d="M879.846 112.077c17.673 0 32 14.327 32 32v736c0 17.673-14.327 32-32 32H750.484c0-35.346 28.654-64 64-64l33.362-0.001v-672h-33.532c-34.992 0-63.426-28.082-63.991-62.94l-0.009-1.06h129.532z m-602.92 0c0 35.346-28.654 64-64 64l-37.08-0.001v672h36.989c34.993 0 63.426 28.084 63.991 62.943l0.009 1.058H143.846c-17.673 0-32-14.327-32-32v-736c0-17.673 14.327-32 32-32h133.08zM459.32 708.59c17.674 0 32 14.327 32 32 0 17.673-14.326 32-32 32-17.673 0-32-14.327-32-32 0-17.673 14.327-32 32-32z m132.869 0c17.673 0 32 14.327 32 32 0 17.673-14.327 32-32 32-17.673 0-32-14.327-32-32 0-17.673 14.327-32 32-32z m132.869 0c17.673 0 32 14.327 32 32 0 17.673-14.327 32-32 32-17.674 0-32-14.327-32-32 0-17.673 14.326-32 32-32zM441.6 254.144a32 32 0 0 1 14 14l148.017 290.764c-31.185 15.875-69.264 3.747-85.582-27.061l-0.487-0.94-90.466-177.71-90.465 177.71c-16.035 31.5-54.57 44.036-86.07 28.001l148.018-290.764c8.017-15.75 27.285-22.018 43.035-14z" fill="#000000" fill-opacity=".65" p-id="4224"></path></svg>