<svg t="1643422139850" class="icon" viewBox="0 0 1024 1024" version="1.1" xmlns="http://www.w3.org/2000/svg" p-id="31678" width="200" height="200"><path d="M928.508 954.808H95.494c-52.652 0-95.486-42.836-95.486-95.486V164.678c0-52.652 42.836-95.486 95.486-95.486h833.014c52.652 0 95.486 42.836 95.486 95.486 0 15.282-12.39 27.674-27.674 27.674s-27.674-12.392-27.674-27.674c0-22.132-18.006-40.136-40.136-40.136H95.494c-22.132 0-40.136 18.006-40.136 40.136v694.644c0 22.132 18.006 40.136 40.136 40.136h833.014c22.132 0 40.136-18.006 40.136-40.136V488.02c0-15.282 12.39-27.674 27.674-27.674s27.674 12.392 27.674 27.674v371.3c0.002 52.654-42.834 95.488-95.484 95.488z" fill="#2D527C" p-id="31679"></path><path d="M27.686 164.676v139.764h968.636V164.676c0-37.452-30.36-67.812-67.812-67.812H95.496c-37.448 0-67.81 30.362-67.81 67.812z" fill="#CEE8FA" p-id="31680"></path><path d="M996.324 332.114H27.688c-15.284 0-27.674-12.392-27.674-27.674V164.68c0-52.652 42.836-95.486 95.486-95.486h833.014C981.166 69.194 1024 112.03 1024 164.68v139.764c0 15.28-12.39 27.67-27.676 27.67zM55.362 276.764h913.286V164.678c0-22.132-18.006-40.136-40.136-40.136H95.5c-22.132 0-40.136 18.006-40.136 40.136l-0.002 112.086z" fill="#2D527C" p-id="31681"></path><path d="M27.674 332.002a27.592 27.592 0 0 1-19.568-8.106c-10.808-10.808-10.808-28.33 0-39.14L215.556 77.304c10.808-10.804 28.33-10.804 39.14 0 10.808 10.808 10.808 28.33 0 39.14L47.246 323.896a27.6 27.6 0 0 1-19.572 8.106zM410.39 332.112a27.586 27.586 0 0 1-19.568-8.106c-10.808-10.804-10.81-28.328 0-39.138L598.354 77.306c10.804-10.81 28.328-10.812 39.138-0.002 10.808 10.804 10.81 28.328 0 39.138l-207.534 207.56a27.57 27.57 0 0 1-19.568 8.11zM793.16 332.112a27.592 27.592 0 0 1-19.568-8.106c-10.808-10.808-10.808-28.33 0-39.14l185.452-185.45c10.808-10.804 28.328-10.802 39.138 0 10.808 10.808 10.808 28.33 0 39.14l-185.45 185.45a27.596 27.596 0 0 1-19.572 8.106z" fill="#2D527C" p-id="31682"></path><path d="M405.46 451.772l268.436 159.264-268.436 159.26z" fill="#CEE8FA" p-id="31683"></path><path d="M405.46 797.974a27.676 27.676 0 0 1-27.676-27.674V451.772c0-9.946 5.338-19.126 13.982-24.046a27.662 27.662 0 0 1 27.816 0.246l268.434 159.264a27.678 27.678 0 0 1 0 47.608l-268.434 159.264a27.726 27.726 0 0 1-14.122 3.866z m27.676-297.604V721.7l186.524-110.664-186.524-110.666z" fill="#2D527C" p-id="31684"></path></svg>