<?xml version="1.0" standalone="no"?><!DOCTYPE svg PUBLIC "-//W3C//DTD SVG 1.1//EN" "http://www.w3.org/Graphics/SVG/1.1/DTD/svg11.dtd"><svg t="1643418802299" class="icon" viewBox="0 0 1024 1024" version="1.1" xmlns="http://www.w3.org/2000/svg" p-id="6617" xmlns:xlink="http://www.w3.org/1999/xlink" width="200" height="200"><defs><style type="text/css"></style></defs><path d="M179 64h468.5l223 225.5V935c0 13.807-11.193 25-25 25H179c-13.807 0-25-11.193-25-25V89c0-13.807 11.193-25 25-25z" fill="#00C090" p-id="6618"></path><path d="M647.5 64v200.5c0 13.807 11.193 25 25 25h198L647.5 64z" fill="#68DBBF" p-id="6619"></path><path d="M677.007 388.282L297.22 769.07c-13.65 13.685-13.623 35.846 0.062 49.497 13.685 13.652 35.846 13.624 49.498-0.061l379.786-380.787c13.652-13.685 13.624-35.846-0.061-49.498-13.686-13.65-35.846-13.623-49.498 0.062z" fill="#FFFFFF" p-id="6620"></path><path d="M297.22 436.718l379.787 380.787c13.652 13.685 35.812 13.713 49.498 0.061 13.685-13.651 13.713-35.812 0.061-49.497L346.78 387.282c-13.652-13.685-35.813-13.713-49.498-0.062-13.685 13.652-13.713 35.813-0.062 49.498z" fill="#FFFFFF" p-id="6621"></path></svg>