<?xml version="1.0" standalone="no"?><!DOCTYPE svg PUBLIC "-//W3C//DTD SVG 1.1//EN" "http://www.w3.org/Graphics/SVG/1.1/DTD/svg11.dtd"><svg t="1643418746786" class="icon" viewBox="0 0 1024 1024" version="1.1" xmlns="http://www.w3.org/2000/svg" p-id="5419" xmlns:xlink="http://www.w3.org/1999/xlink" width="200" height="200"><defs><style type="text/css"></style></defs><path d="M509.0304 104.5504c-207.9232 0-194.9696 90.1632-194.9696 90.1632l0.256 93.44h198.4512v28.0576H235.4688S102.4 301.056 102.4 510.9248c0 209.8688 116.1728 202.4448 116.1728 202.4448h69.2736V615.936S284.16 499.8144 402.176 499.8144h196.8128s110.592 1.792 110.592-106.8544v-179.712s16.7936-108.6976-200.5504-108.6976zM399.616 167.3728a35.6864 35.6864 0 1 1 0.0512 71.3216 35.6864 35.6864 0 0 1 0-71.3216z" fill="#387EB8" p-id="5420"></path><path d="M514.9696 919.4496c207.9232 0 194.9696-90.1632 194.9696-90.1632l-0.256-93.44H511.232v-28.0576h277.2992S921.6 722.944 921.6 513.0752c0-209.8688-116.1728-202.3936-116.1728-202.3936h-69.2736v97.3312s3.6864 116.1728-114.3296 116.1728H425.0112s-110.592-1.792-110.592 106.8544v179.712s-16.7936 108.6976 200.5504 108.6976z m109.4144-62.8224a35.6864 35.6864 0 1 1-0.0512-71.3216 35.6864 35.6864 0 0 1 0 71.3216z" fill="#FFE052" p-id="5421"></path></svg>