<?xml version="1.0" standalone="no"?><!DOCTYPE svg PUBLIC "-//W3C//DTD SVG 1.1//EN" "http://www.w3.org/Graphics/SVG/1.1/DTD/svg11.dtd"><svg t="1643418575101" class="icon" viewBox="0 0 1024 1024" version="1.1" xmlns="http://www.w3.org/2000/svg" p-id="4223" xmlns:xlink="http://www.w3.org/1999/xlink" width="200" height="200"><defs><style type="text/css"></style></defs><path d="M742.4 163.84c-5.12 0-15.36 5.12-20.48 15.36L680.96 256c-51.2-30.72-107.52-51.2-168.96-51.2-61.44 0-117.76 15.36-163.84 46.08l-46.08-71.68c-5.12-10.24-15.36-15.36-20.48-10.24-5.12 0-5.12-5.12-10.24 0h-5.12c-10.24 10.24-15.36 25.6-5.12 35.84L307.2 286.72C245.76 343.04 204.8 419.84 204.8 512h614.4c0-87.04-35.84-168.96-97.28-225.28L768 204.8c5.12-10.24 0-25.6-10.24-35.84h-5.12c0-5.12-5.12-5.12-10.24-5.12zM373.76 358.4c25.6 0 46.08 20.48 46.08 46.08s-20.48 46.08-46.08 46.08-46.08-20.48-46.08-46.08 20.48-46.08 46.08-46.08z m276.48 0c25.6 0 46.08 20.48 46.08 46.08s-20.48 46.08-46.08 46.08-46.08-20.48-46.08-46.08 20.48-46.08 46.08-46.08zM204.8 537.6V819.2h614.4v-281.6H204.8z" fill="#A4C639" p-id="4224"></path></svg>