<svg t="1643425837895" class="icon" viewBox="0 0 1039 1024" version="1.1" xmlns="http://www.w3.org/2000/svg" p-id="6174" width="200" height="200"><path d="M507.178908 944.934087H289.265537c-84.851224 0-154.274953-69.423729-154.274953-154.274953v-539.962336c0-84.851224 69.423729-154.274953 154.274953-154.274952h462.824858c84.851224 0 154.274953 69.423729 154.274953 154.274952V678.809793c0 21.212806-17.355932 38.568738-38.568738 38.568738s-38.568738-17.355932-38.568738-38.568738v-428.112995c0-42.425612-34.711864-77.137476-77.137477-77.137476h-462.824858c-42.425612 0-77.137476 34.711864-77.137477 77.137476v539.962336c0 42.425612 34.711864 77.137476 77.137477 77.137476h217.913371c21.212806 0 38.568738 17.355932 38.568738 38.568738s-17.355932 38.568738-38.568738 38.568739z" fill="#388CEB" p-id="6175"></path><path d="M713.521657 347.118644h-385.687382c-21.212806 0-38.568738-17.355932-38.568738-38.568738s17.355932-38.568738 38.568738-38.568738h385.687382c21.212806 0 38.568738 17.355932 38.568738 38.568738s-17.355932 38.568738-38.568738 38.568738zM713.521657 501.393597h-385.687382c-21.212806 0-38.568738-17.355932-38.568738-38.568738s17.355932-38.568738 38.568738-38.568738h385.687382c21.212806 0 38.568738 17.355932 38.568738 38.568738s-17.355932 38.568738-38.568738 38.568738z" fill="#E78E00" p-id="6176"></path><path d="M690.380414 925.649718h-15.427495c-63.638418 0-115.706215-52.067797-115.706215-115.706215v-115.706215c0-63.638418 52.067797-115.706215 115.706215-115.706215h115.706215c63.638418 0 115.706215 52.067797 115.706214 115.706215v15.427495l-215.984934 215.984935z m-15.427495-269.981168c-21.212806 0-38.568738 17.355932-38.568738 38.568738v115.706215c0 17.355932 9.642185 30.854991 25.06968 36.640301l165.845574-165.845574c-5.785311-15.427495-19.284369-25.06968-36.640301-25.06968h-115.706215z" fill="#388CEB" p-id="6177"></path></svg>