<svg t="1643421884368" class="icon" viewBox="0 0 1024 1024" version="1.1" xmlns="http://www.w3.org/2000/svg" p-id="23846" width="200" height="200"><path d="M332.799002 686.081014m-332.799002 0a332.799002 332.799002 0 1 0 665.598003 0 332.799002 332.799002 0 1 0-665.598003 0Z" fill="#DFDFF2" p-id="23847"></path><path d="M883.19735 1024h-639.99808A141.055577 141.055577 0 0 1 102.399693 883.200422v-742.397772A141.055577 141.055577 0 0 1 243.19927 0.003072h516.350451a89.087733 89.087733 0 0 1 63.231811 25.599923l189.695431 189.695431A38.399885 38.399885 0 0 1 1023.996928 243.202342v639.99808a141.055577 141.055577 0 0 1-140.799578 140.799578zM243.19927 76.802842A63.999808 63.999808 0 0 0 179.199462 140.80265v742.397772A63.999808 63.999808 0 0 0 243.19927 947.20023h639.99808a63.999808 63.999808 0 0 0 63.999808-63.999808V259.074295l-179.199462-179.199463a12.799962 12.799962 0 0 0-8.447975-3.07199z" fill="#434260" p-id="23848"></path><path d="M309.759071 399.105875h58.623824c69.375792 0 109.055673 38.399885 109.055673 112.127663s-39.679881 113.919658-107.263679 113.919659H309.759071z m56.319831 196.863409c48.383855 0 74.495777-28.671914 74.495776-84.735746s-25.599923-83.19975-74.495776-83.19975h-20.479939v167.935496zM524.542426 399.105875h35.583894v195.839412h95.487713v30.20791h-131.071607zM695.805913 399.105875h35.583893v195.839412h95.487713v30.20791h-131.071606z" fill="#434260" p-id="23849"></path></svg>