<?xml version="1.0" standalone="no"?><!DOCTYPE svg PUBLIC "-//W3C//DTD SVG 1.1//EN" "http://www.w3.org/Graphics/SVG/1.1/DTD/svg11.dtd"><svg t="1643418677314" class="icon" viewBox="0 0 1024 1024" version="1.1" xmlns="http://www.w3.org/2000/svg" p-id="4524" xmlns:xlink="http://www.w3.org/1999/xlink" width="200" height="200"><defs><style type="text/css"></style></defs><path d="M873.1648 102.4l-65.792 737.1776L511.488 921.6 216.576 839.68 150.8352 102.4z" fill="#E44D26" p-id="4525"></path><path d="M512 162.6624v696.2688l239.0016-66.304 56.2688-629.9648z" fill="#F16529" p-id="4526"></path><path d="M287.4368 277.3504l22.2208 249.2416H512V436.1216H392.3456L384 343.552H512V253.1328H285.2352zM512 670.976l-0.4096 0.1024-100.7104-27.136-6.4-72.192H313.7024l12.6464 142.0288 185.2416 51.4048 0.4096-0.1024z" fill="#EBEBEB" p-id="4527"></path><path d="M511.6928 765.1328l185.344-51.3536 1.3824-15.3088 21.248-238.08 2.2016-24.2688H511.6416v90.4704h111.4112l-10.496 117.248-100.864 27.2384zM731.904 323.2256l4.096-45.8752 2.2016-24.2176H511.6928V343.552h218.4192z" fill="#FFFFFF" p-id="4528"></path></svg>