<svg t="1643425790611" class="icon" viewBox="0 0 1024 1024" version="1.1" xmlns="http://www.w3.org/2000/svg" p-id="4531" width="200" height="200"><path d="M332.799002 686.081014m-332.799002 0a332.799002 332.799002 0 1 0 665.598003 0 332.799002 332.799002 0 1 0-665.598003 0Z" fill="#F4EFC9" p-id="4532"></path><path d="M883.19735 1024h-639.99808A141.055577 141.055577 0 0 1 102.399693 883.200422v-742.397772A141.055577 141.055577 0 0 1 243.19927 0.003072h516.350451a89.087733 89.087733 0 0 1 63.231811 25.599923l189.695431 189.695431A38.399885 38.399885 0 0 1 1023.996928 243.202342v639.99808a141.055577 141.055577 0 0 1-140.799578 140.799578zM243.19927 76.802842A63.999808 63.999808 0 0 0 179.199462 140.80265v742.397772A63.999808 63.999808 0 0 0 243.19927 947.20023h639.99808a63.999808 63.999808 0 0 0 63.999808-63.999808V259.074295l-179.199462-179.199463a12.799962 12.799962 0 0 0-8.447975-3.07199z" fill="#434260" p-id="4533"></path><path d="M331.007007 508.417547l-60.671818-109.311672h39.423882l27.391918 52.735841c5.631983 10.495969 10.495969 20.479939 17.151948 34.047898h1.535995c5.887982-13.567959 10.239969-23.551929 15.359954-34.047898l25.599924-52.735841H435.198694l-60.671818 111.103666 65.023805 114.943656h-39.423881l-29.695911-56.063832-18.687944-36.86389c-6.399981 13.823959-12.031964 25.599923-17.407948 36.86389l-28.927913 56.063832H266.239201zM474.110578 399.105875h40.959877L556.54233 512.001536c5.119985 15.103955 9.727971 30.463909 15.103955 45.823863h1.535995c5.119985-15.359954 9.471972-30.719908 14.847956-45.823863l40.959877-114.175657h41.215876v226.047321h-33.535899V512.001536c0-20.223939 2.815992-49.407852 4.607986-69.88779l-18.175945 51.199846-39.423882 107.775677h-22.015934l-39.679881-107.775677-17.919946-51.199846c1.535995 20.479939 4.351987 49.663851 4.351987 69.88779v111.871664h-34.303897zM729.085813 399.105875h35.583893v195.839412h95.487714v30.20791h-131.071607z" fill="#434260" p-id="4534"></path></svg>