<?xml version="1.0" standalone="no"?><!DOCTYPE svg PUBLIC "-//W3C//DTD SVG 1.1//EN" "http://www.w3.org/Graphics/SVG/1.1/DTD/svg11.dtd"><svg t="1643418715944" class="icon" viewBox="0 0 1024 1024" version="1.1" xmlns="http://www.w3.org/2000/svg" p-id="4676" xmlns:xlink="http://www.w3.org/1999/xlink" width="200" height="200"><defs><style type="text/css"></style></defs><path d="M506.930109 189.733924c-47.314983 33.277285-100.939831 70.994475-129.673214 133.395134-49.906928 108.867661 102.121806 227.61911 108.619666 232.621002a8.38782 8.38782 0 0 0 10.505775-0.215995 8.39582 8.39582 0 0 0 2.061955-10.303779c-0.549988-1.059977-55.120816-107.0577-53.092859-183.100066 0.717985-26.485431 37.783188-56.530785 77.022345-88.340102 35.939228-29.135374 76.678353-62.156665 100.513841-100.785835 52.326876-85.030173-5.831875-168.640377-6.425862-169.476359a8.39982 8.39982 0 0 0-10.219781-2.819939 8.39982 8.39982 0 0 0-4.827896 9.439797c0.117997 0.553988 11.427754 55.8448-20.043569 112.809576-12.963721 23.539494-41.451109 43.575064-74.440401 66.776566z" fill="#DB380E" p-id="4677"></path><path d="M706.271826 227.229118a8.39382 8.39382 0 0 0-8.029827-14.549687c-8.037827 3.055934-196.827771 75.828371-196.827772 163.756482 0 60.612698 25.891444 92.63201 44.797038 116.015507 7.415841 9.171803 13.817703 17.091633 15.927658 23.853488 5.939872 19.485581-8.131825 54.704825-14.049698 66.632568a8.39182 8.39182 0 0 0 12.309735 10.625772c3.24593-2.255952 79.332296-56.050796 65.686589-120.863404-5.083891-24.635471-17.189631-42.635084-27.871401-58.518742-16.547644-24.609471-28.499388-42.385089-10.367778-75.216384 21.243544-38.295177 117.451477-111.007615 118.425456-111.7356z" fill="#DB380E" p-id="4678"></path><path d="M214.844384 596.459185c-3.23593 9.689792-1.707963 19.301585 4.413905 27.805403 20.46556 28.41339 92.958003 44.057053 204.131615 44.057054h0.013999c15.063676 0 30.967335-0.295994 47.256985-0.879982 177.746181-6.361863 243.672765-61.736674 246.392707-64.090623a8.39382 8.39382 0 0 0-7.701835-14.437689c-62.600655 17.091633-179.492144 23.159502-260.570402 23.159502-90.724051 0-136.927058-6.53586-148.238815-11.361756 5.803875-7.969829 41.603106-22.201523 85.964153-30.927335a8.39382 8.39382 0 0 0-1.619965-16.627643c-26.003441 0-156.41064 2.087955-170.042347 43.303069zM809.619606 539.424411c-36.661212 0-71.426465 18.375605-72.890434 19.153588a8.39782 8.39782 0 0 0 3.953915 15.795661c0.777983 0 78.20232 0.633986 85.214169 44.871036 6.211867 38.16318-73.256426 99.997852-104.401757 120.605409a8.39382 8.39382 0 1 0 6.379863 15.207673c7.391841-1.581966 180.808115-39.797145 162.472509-140.764976-11.18576-61.878671-50.076924-74.868391-80.728265-74.868391zM690.692161 727.49437a8.39982 8.39982 0 0 0-3.433926-8.413819l-41.581107-29.125374a8.419819 8.419819 0 0 0-6.96985-1.235974c-0.433991 0.109998-43.917056 11.541752-107.0477 18.551602-25.055462 2.80994-53.118859 4.293908-81.162257 4.293907-63.114644 0-104.381757-7.415841-110.391628-12.855723-0.795983-1.527967-0.543988-2.221952-0.401991-2.607944 1.091977-3.035935 6.943851-6.643857 10.715769-8.071827a8.39182 8.39182 0 0 0-4.881895-16.031655c-41.711104 10.065784-62.106666 24.141481-60.622697 41.835101 2.635943 31.371326 75.298382 47.47298 136.727062 51.728888 8.83381 0.603987 18.387605 0.90998 28.38939 0.909981h0.016c102.145805 0 233.094992-32.049311 234.402964-32.375305a8.36982 8.36982 0 0 0 6.241866-6.601858zM377.208896 794.820924a8.38382 8.38382 0 0 0 3.427926-9.527796c-1.113976-3.585923-4.467904-5.941872-8.235823-5.891873-5.58988 0.147997-54.696825 2.363949-58.134751 33.629278-1.039978 9.343799 1.635965 17.881616 7.957829 25.371454 17.631621 20.895551 65.226599 33.315284 145.478875 37.967185 9.493796 0.569988 19.137589 0.855982 28.667384 0.855981 102.027808 0 170.742332-31.945314 173.62027-33.305284a8.39382 8.39382 0 0 0 0.787983-14.753683l-52.548871-32.079311a8.447819 8.447819 0 0 0-6.08587-1.053977c-0.331993 0.069998-33.697276 6.98985-84.050194 13.825703-9.527795 1.295972-21.459539 1.953958-35.459238 1.953958-50.298919 0-106.245717-8.217823-116.975487-13.599708-0.155997-1.003978 0.041999-2.279951 1.549967-3.391927z" fill="#73A1FB" p-id="4679"></path><path d="M448.819357 973.679081c233.702979-0.197996 359.134284-41.759103 383.297765-67.912541 8.553816-9.251801 9.477796-18.011613 8.751812-23.73349-1.795961-14.079698-14.621686-22.699512-16.075654-23.635492-3.507925-2.255952-8.215823-1.665964-10.951765 1.489968-2.729941 3.155932-2.79394 7.767833-0.053999 10.921765 1.473968 1.895959 2.32595 5.069891-1.983957 9.383799-9.659792 9.021806-107.087699 36.407218-269.306214 44.635041-22.221523 1.153975-45.529022 1.741963-69.270512 1.745962-145.24288 0-251.538596-19.895573-265.492296-31.487323 5.377884-7.727834 42.977077-20.073569 82.962218-27.057419a8.39182 8.39182 0 0 0-2.565945-16.589644c-1.127976 0.153997-4.955894 0.381992-9.387799 0.653986-65.974583 4.027913-142.214945 13.005721-146.192859 46.998991-1.207974 10.357777 1.86996 19.761575 9.151804 27.945399 17.817617 20.01957 69.030517 46.636998 307.109402 46.636998l0.007999 0.004z" fill="#73A1FB" p-id="4680"></path><path d="M878.020136 913.136382a8.38382 8.38382 0 0 0-9.671792 1.903959c-0.341993 0.369992-35.479238 37.111203-141.124968 58.686739-40.445131 8.103826-116.3635 12.213738-225.647152 12.213738-109.487648 0-213.671409-4.307907-214.709387-4.351907-4.351907-0.211995-8.073827 2.951937-8.665814 7.235845a8.39382 8.39382 0 0 0 6.367863 9.3158c1.083977 0.255995 110.267631 25.835445 259.552424 25.835445 71.600462 0 141.274965-5.813875 207.091551-17.289629 122.719363-21.513538 131.311179-82.36423 131.617172-84.944175a8.39382 8.39382 0 0 0-4.809897-8.605815z" fill="#73A1FB" p-id="4681"></path></svg>