<?xml version="1.0" standalone="no"?><!DOCTYPE svg PUBLIC "-//W3C//DTD SVG 1.1//EN" "http://www.w3.org/Graphics/SVG/1.1/DTD/svg11.dtd"><svg t="1643418808492" class="icon" viewBox="0 0 1024 1024" version="1.1" xmlns="http://www.w3.org/2000/svg" p-id="6920" xmlns:xlink="http://www.w3.org/1999/xlink" width="200" height="200"><defs><style type="text/css"></style></defs><path d="M179 64h468.5l223 225.5V935c0 13.807-11.193 25-25 25H179c-13.807 0-25-11.193-25-25V89c0-13.807 11.193-25 25-25z" fill="#4A8DFF" p-id="6921"></path><path d="M647.5 64v200.5c0 13.807 11.193 25 25 25h198L647.5 64z" fill="#E5F0FF" p-id="6922"></path><path d="M693.153 784.6C714.698 808.196 754 792.953 754 761V389h-70v281.758L544.847 518.35c-13.879-15.201-37.815-15.201-51.694 0L354 670.758V389h-70v372c0 31.954 39.302 47.197 60.847 23.6L519 593.857 693.153 784.6z" fill="#FFFFFF" p-id="6923"></path></svg>