<?xml version="1.0" encoding="UTF-8"?>
<svg width="166px" height="164px" viewBox="0 0 166 164" version="1.1" xmlns="http://www.w3.org/2000/svg" xmlns:xlink="http://www.w3.org/1999/xlink">
    <title>sftp 2</title>
    <g id="页面-1" stroke="none" stroke-width="1" fill="none" fill-rule="evenodd">
        <g id="sftp" fill="#409EFF" fill-rule="nonzero">
            <path d="M91.6980673,21.1575987 L76.2269148,3.93602251 C73.9729545,1.43157457 70.7536244,0 67.3743736,0 L11.8826057,0 C5.32002377,0 0,5.29194389 0,11.8198875 L0,114.180112 C0,120.708056 5.32002377,126 11.8826057,126 L154.117394,126 C160.679976,126 166,120.708056 166,114.180112 L166,36.9253284 C166,30.3973848 160.679976,25.1054409 154.117394,25.1054409 L100.550609,25.1054409 C97.1695058,25.1022386 93.9498812,23.6664283 91.6980673,21.1575987 L91.6980673,21.1575987 Z M68.2061561,9.88142607 L81.7523264,25.0936212 L10.0408019,25.0936212 L10.0408019,9.88142607 L68.2180388,9.88142607 L68.2061561,9.88142607 Z M155.935433,116.024015 L10.0289192,116.024015 L10.0289192,35.1050656 L155.935433,35.1050656 L155.935433,116.035835 L155.935433,116.024015 Z" id="形状"></path>
            <polygon id="路径" points="78 121 88 121 88 160 78 160"></polygon>
            <path d="M5.02670198,148 L160.973298,148 C163.749469,148 166,150.238576 166,153 C166,155.761424 163.749469,158 160.973298,158 L5.02670198,158 C2.25053113,158 0,155.761424 0,153 C0,150.238576 2.25053113,148 5.02670198,148 Z" id="路径"></path>
            <polygon id="路径" points="37 142 124 142 124 164 37 164"></polygon>
            <path d="M64.8106582,61.3454038 L53.0098519,61.3454038 L53.0098519,69.7980501 L63.8827722,69.7980501 L63.8827722,75.5278553 L53.0098519,75.5278553 L53.0098519,88.514624 L45.9555393,88.514624 L45.9555393,55.6037604 L64.8106582,55.6037604 L64.8106582,61.3454038 L64.8106582,61.3454038 Z M93.7297714,61.3454038 L84.3081599,61.3454038 L84.3081599,88.514624 L77.2300552,88.514624 L77.2300552,61.3454038 L67.8322358,61.3454038 L67.8322358,55.6155987 L93.7297714,55.6155987 L93.7297714,61.3454038 Z M105.31645,77.0668523 L105.31645,88.514624 L98.2621376,88.514624 L98.2621376,55.6037604 L109.658481,55.6037604 C117.878599,55.6037604 121.994606,59.0724233 121.994606,66.0215876 C122.097635,69.159094 120.719958,72.1639351 118.271166,74.1427578 C115.796803,76.1552925 112.680058,77.1378832 108.944722,77.0668523 L105.31645,77.0668523 L105.31645,77.0668523 Z M105.31645,61.0494427 L105.31645,71.6803621 L108.385611,71.6803621 C112.513514,71.6803621 114.59531,69.8690808 114.59531,66.2938719 C114.59531,62.7778552 112.549202,61.0494427 108.456987,61.0494427 L105.31645,61.0494427 L105.31645,61.0494427 Z" id="形状"></path>
        </g>
    </g>
</svg>
