<svg t="1642829761911" class="icon" viewBox="0 0 1024 1024" version="1.1" xmlns="http://www.w3.org/2000/svg" p-id="10777" width="200" height="200"><path d="M1000.895844 193.916397c29.695213 169.05792 29.695213 462.579742 0 635.067971-20.581855 122.211161-46.846759 150.780004-171.361859 172.488229-171.31066 27.391274-460.275803 29.695213-635.06797-1.12637-123.38873-21.708225-149.602436-46.846759-171.310661-171.361859-30.872782-170.18429-30.872782-461.453371 0-635.067971C44.863579 71.705236 69.950914 44.313962 194.466015 22.605737c170.18429-30.872782 462.579742-29.695213 635.06797 1.12637 123.38873 21.708225 149.653634 46.846759 171.361859 170.18429z m-548.849455 10.95651s-65.329469-2.969521-106.953966 50.840253c-41.675696 53.758575-10.393325 135.983596 9.369352 178.427271 19.762676 42.392477 124.003114 208.788067 127.791813 212.47437 3.839898 3.583905 8.396577 2.047946 8.652571-1.228768 0.255993-3.225515 11.878085-241.759993 2.559932-300.536036-9.42055-58.87844-37.170215-133.526062-41.470901-139.97709zM226.311571 315.717969c-7.475002 0.819178-61.028783 54.270562-65.841455 106.493178-4.863871 52.222616 17.458737 86.935296 79.869883 128.508595 62.871934 44.54282 212.167178 126.511847 214.931904 119.446435 2.713528-7.014214-57.854467-114.684961-107.517151-193.018885-49.560287-78.333924-114.019378-162.197302-121.443181-161.429323z m20.069868 481.779233c45.208402 20.172265 115.606536-25.189732 135.062021-38.398982l51.557033-39.269359-256.044414 6.860618s24.216958 50.58426 69.42536 70.807723z m6.451029-206.944916c-45.822786-22.936992-140.130687-75.620396-143.816989-74.647621-3.686302 1.023973-17.919525 66.558236 11.622092 116.016125 29.43922 49.406691 86.884098 64.51029 113.251399 68.554983 29.592816 4.198289 203.7706 2.303939 202.64423-1.177568-1.023973-3.071919-137.877946-85.808926-183.700732-108.745919z m424.795143-334.839126C636.054313 201.903386 570.776042 204.821708 570.776042 204.821708c-4.249487 6.451029-32.050351 81.14985-41.419702 139.977091-9.369352 58.776042 2.303939 297.310521 2.559932 300.536036 0.255993 3.327912 4.812672 4.863871 8.652571 1.177568 3.7887-3.635104 108.029137-170.030694 127.791813-212.474369 19.711478-42.392477 50.993849-124.566299 9.318154-178.376073z m236.025745 260.191505c-3.686302-1.023973-97.943005 51.71063-143.76579 74.647621-45.822786 22.936992-182.676759 105.674-183.700732 108.745919-1.177569 3.481508 173.051414 5.375858 202.64423 1.177568 26.316103-4.095891 83.76098-19.148293 113.251399-68.606182 29.490419-49.406691 15.257196-114.940954 11.570893-115.964926z m-272.376782 243.193555c19.455484 13.20925 89.853619 58.571248 135.062021 38.398982 45.208402-20.223464 69.42536-70.807724 69.42536-70.807723l-256.044415-6.860618 51.505836 39.269359z m220.973344-336.887073c-4.812672-52.222616-58.366453-105.674-65.841455-106.493178-7.423803-0.76798-71.934094 83.095398-121.49438 161.429323-49.662684 78.333924-110.230679 186.004671-107.517151 193.018885 2.764727 7.065413 152.111169-74.903615 214.931904-119.446435 62.462345-41.573298 84.784953-76.285978 79.921082-128.508595z" fill="#0D7EF2" p-id="10778"></path></svg>