<svg t="1641787690730" class="icon" viewBox="0 0 1083 1024"
     version="1.1" xmlns="http://www.w3.org/2000/svg"
     p-id="12955"
     width="211.5234375" height="200">
    <defs>
        <style type="text/css"></style>
    </defs>
    <path d="M1009.15942 452.637681h-59.362319v-29.681159h29.68116v-252.289855h-29.68116v-29.68116h59.362319zM920.115942 482.318841h-59.362319v-29.68116h29.68116v-311.652174h-29.68116v-29.681159h59.362319zM133.565217 452.637681H74.202899v-311.652174h59.362318v29.68116H103.884058v252.289855h29.681159zM222.608696 482.318841h-59.362319v-371.014493h59.362319v29.681159h-29.68116v311.652174h29.68116z"
          fill="#7f7f7f" p-id="12958"></path>
    <path d="M267.130435 96.463768h549.101449v400.695652H267.130435z" fill="#FFFFFF"
          p-id="12959"></path>
    <path d="M831.072464 512H252.289855v-430.376812h578.782609v430.376812z m-549.10145-29.681159h519.42029v-371.014493H281.971014v371.014493z"
          fill="#7f7f7f" p-id="12960"></path>
    <path d="M682.666667 215.188406m-44.521739 0a44.521739 44.521739 0 1 0 89.043478 0 44.521739 44.521739 0 1 0-89.043478 0Z"
          fill="#7f7f7f" p-id="12961"></path>
    <path d="M682.666667 274.550725c-32.649275 0-59.362319-26.713043-59.362319-59.362319s26.713043-59.362319 59.362319-59.362319 59.362319 26.713043 59.362319 59.362319-26.713043 59.362319-59.362319 59.362319z m0-89.043479c-16.324638 0-29.681159 13.356522-29.68116 29.68116s13.356522 29.681159 29.68116 29.681159 29.681159-13.356522 29.681159-29.681159-13.356522-29.681159-29.681159-29.68116z"
          fill="#7f7f7f" p-id="12962"></path>
    <path d="M623.304348 319.072464L571.362319 371.014493 460.057971 259.710145l-192.927536 192.927536v44.521739h534.260869z"
          fill="#7f7f7f" p-id="12963"></path>
    <path d="M837.008696 512H252.289855v-65.298551l207.768116-207.768116 111.304348 111.304348 51.942029-51.942029 213.704348 213.704348z m-555.037682-29.681159h483.802899L623.304348 339.849275 592.13913 371.014493l41.553624 41.553623-20.776812 20.776812L460.057971 280.486957l-178.086957 178.086956v23.744928z"
          fill="#7f7f7f" p-id="12964"></path>
</svg>