<svg xmlns="http://www.w3.org/2000/svg" width="856.385" height="559.94" viewBox="0 0 856.385 559.94" xmlns:xlink="http://www.w3.org/1999/xlink">
    <g id="Group_47" data-name="Group 47" transform="translate(-171.808 -222.403)">
        <g id="Group_43" data-name="Group 43" transform="translate(-222.485 -67.725)">
            <rect id="Rectangle_113" data-name="Rectangle 113" width="94.644" height="1.803" transform="translate(805.32 327.084)" fill="#ccc"/>
            <rect id="Rectangle_114" data-name="Rectangle 114" width="300.158" height="1.803" transform="translate(431.249 327.084)" fill="#ccc"/>
            <circle id="Ellipse_115" data-name="Ellipse 115" cx="36.956" cy="36.956" r="36.956" transform="translate(394.293 291.029)" fill="#6c63ff"/>
            <circle id="Ellipse_116" data-name="Ellipse 116" cx="36.956" cy="36.956" r="36.956" transform="translate(562.85 291.029)" fill="#3f3d56"/>
            <path id="Path_748-705" data-name="Path 748" d="M873,259.344a37.858,37.858,0,1,1,37.858-37.858A37.858,37.858,0,0,1,873,259.344Zm0-73.913a36.055,36.055,0,1,0,36.055,36.055A36.055,36.055,0,0,0,873,185.431Z" transform="translate(-104.641 106.5)" fill="#ccc"/>
            <path id="Path_749-706" data-name="Path 749" d="M1060,259.344a37.858,37.858,0,1,1,37.858-37.858A37.858,37.858,0,0,1,1060,259.344Zm0-73.913a36.055,36.055,0,1,0,36.055,36.055A36.055,36.055,0,0,0,1060,185.431Z" transform="translate(-123.084 106.5)" fill="#ccc"/>
            <path id="Path_395-707" data-name="Path 395" d="M304.255,236.95a2.993,2.993,0,0,1-1.8-.6l-.032-.024-6.783-5.188a3.014,3.014,0,0,1,3.668-4.784l4.393,3.369,10.381-13.544a3.013,3.013,0,0,1,4.224-.558h0l-.064.089.066-.089a3.016,3.016,0,0,1,.557,4.225l-12.211,15.923a3.015,3.015,0,0,1-2.4,1.175Z" transform="translate(124.149 102.054)" fill="#fff"/>
        </g>
        <g id="Group_24" data-name="Group 24" transform="translate(808.073 222.403)">
            <path id="Path_552-708" data-name="Path 552" d="M314.19,545.413a14.214,14.214,0,0,1,1.987,1.108l63.154-26.954,2.253-16.636,25.235-.155-1.491,38.158-83.357,22.047a14.939,14.939,0,0,1-.631,1.7,14.411,14.411,0,1,1-7.151-19.265Z" transform="translate(-293.875 -349.453)" fill="#feb8b8"/>
            <path id="Path_553-709" data-name="Path 553" d="M312.83,797.912H295.567l-8.212-66.584h25.477Z" transform="translate(-190.709 -256.191)" fill="#feb8b8"/>
            <path id="Path_554-710" data-name="Path 554" d="M305.692,775.115h33.292v20.955H284.73a20.962,20.962,0,0,1,20.962-20.962h0Z" transform="translate(-213.164 -238.326)" fill="#2f2e41"/>
            <path id="Path_555-711" data-name="Path 555" d="M271.557,794.354l-17.178,1.69-14.7-65.458,25.355-2.491Z" transform="translate(-82.3 -257.51)" fill="#feb8b8"/>
            <path id="Path_556-712" data-name="Path 556" d="M254.863,774.674l33.126-3.263,2.054,20.857-53.981,5.317a20.958,20.958,0,0,1,18.8-22.911Z" transform="translate(-95.55 -239.834)" fill="#2f2e41"/>
            <ellipse id="Ellipse_84" data-name="Ellipse 84" cx="34.583" cy="34.583" rx="34.583" ry="34.583" transform="translate(92.343 13.688)" fill="#feb8b8"/>
            <path id="Path_557-713" data-name="Path 557" d="M281.584,839.584a6.3,6.3,0,0,1-6.217-5.21c-8.929-49.59-38.141-211.772-38.84-216.268a1.991,1.991,0,0,1-.023-.312V605.7a2.1,2.1,0,0,1,.393-1.228l3.858-5.4a2.082,2.082,0,0,1,1.611-.88c22-1.031,94.036-4.054,97.516.294h0c3.495,4.365,2.253,17.611,1.971,20.22l.014.272L374.233,825.96A6.353,6.353,0,0,1,369,833.19l-20.214,3.33a6.366,6.366,0,0,1-7.076-4.355c-6.252-19.978-27.216-87.184-34.482-113.19a.7.7,0,0,0-1.381.2c.363,24.79,1.24,88.036,1.549,109.881l.032,2.353a6.362,6.362,0,0,1-5.763,6.387l-19.492,1.766A5.871,5.871,0,0,1,281.584,839.584Z" transform="translate(-180.584 -311.329)" fill="#2f2e41"/>
            <path id="Path_99-714" data-name="Path 99" d="M296.727,463.319c-6.035,3.588-9.647,10.18-11.719,16.9a160.072,160.072,0,0,0-6.877,38.242L275.94,557.32,248.827,660.348c23.5,19.883,37.053,15.363,68.686-.9s35.247,5.422,35.247,5.422l6.325-87.663,9.037-95.793a42.485,42.485,0,0,0-6.846-6.581,69.923,69.923,0,0,0-59.761-12.673Z" transform="translate(-191.749 -366.866)" fill="#e6e6e6"/>
            <path id="Path_558-715" data-name="Path 558" d="M259.825,562.029a14.828,14.828,0,0,1,2.112.986l62.447-31.259,1.036-16.933,25.759-1.776,1.38,38.6-83.45,27.6a14.784,14.784,0,1,1-9.283-17.223Z" transform="translate(-163.653 -345.262)" fill="#feb8b8"/>
            <path id="Path_101-716" data-name="Path 101" d="M269.34,476.085c15.363,5.422,18.071,64.171,18.071,64.171-18.075-9.941-39.765,6.326-39.765,6.326s-4.518-15.365-9.941-35.246a34.54,34.54,0,0,1,7.229-32.535S253.975,470.66,269.34,476.085Z" transform="translate(-93.417 -361.105)" fill="#e6e6e6"/>
            <path id="Path_102-717" data-name="Path 102" d="M323.823,451.3c-4.309-3.447-10.187,2.816-10.187,2.816L310.189,423.1s-21.543,2.581-35.334-.862-15.943,12.5-15.943,12.5a110.654,110.654,0,0,1-.431-19.391c.862-7.756,12.064-15.512,31.885-20.683S320.528,411.9,320.528,411.9C334.324,418.789,328.137,454.751,323.823,451.3Z" transform="translate(-165.894 -393.886)" fill="#2f2e41"/>
        </g>
        <rect id="Rectangle_110" data-name="Rectangle 110" width="737.385" height="2.19" transform="translate(290.808 780.153)" fill="#e6e6e6"/>
        <path id="Path_438-718" data-name="Path 438" d="M265.082,644.111a19.474,19.474,0,0,0,18.806-3.313c6.587-5.528,8.652-14.636,10.332-23.07l4.97-24.945-10.405,7.165c-7.483,5.152-15.134,10.47-20.316,17.933s-7.443,17.651-3.28,25.726" transform="translate(96.861 97.368)" fill="#e6e6e6"/>
        <path id="Path_439-719" data-name="Path 439" d="M267.682,718.34c-1.31-9.542-2.657-19.206-1.738-28.85.816-8.565,3.429-16.93,8.749-23.789a39.574,39.574,0,0,1,10.153-9.2c1.015-.641,1.95.968.939,1.606A37.622,37.622,0,0,0,270.9,676.062c-3.24,8.241-3.76,17.224-3.2,25.977.338,5.294,1.053,10.553,1.774,15.805a.964.964,0,0,1-.65,1.144.936.936,0,0,1-1.144-.65Z" transform="translate(95.868 55.076)" fill="#f2f2f2"/>
        <path id="Path_442-720" data-name="Path 442" d="M289.28,713.477a14.336,14.336,0,0,0,12.491,6.447c6.323-.3,11.595-4.713,16.34-8.9l14.036-12.392-9.289-.444c-6.68-.32-13.533-.618-19.9,1.442s-12.231,7.018-13.394,13.6" transform="translate(83.697 44.629)" fill="#e6e6e6"/>
        <path id="Path_443-721" data-name="Path 443" d="M262.887,747.524c6.3-11.156,13.618-23.555,26.685-27.518a29.779,29.779,0,0,1,11.224-1.159c1.192.1.894,1.94-.3,1.837a27.665,27.665,0,0,0-17.912,4.739c-5.051,3.438-8.983,8.217-12.311,13.286-2.039,3.1-3.865,6.341-5.691,9.573C264,749.314,262.3,748.569,262.887,747.524Z" transform="translate(96.961 31.377)" fill="#f2f2f2"/>
        <g id="Group_46" data-name="Group 46" transform="translate(2 7)">
            <path id="Path_138-722" data-name="Path 138" d="M911.208,622.87H595.519a5.853,5.853,0,0,1-5.846-5.846V538.715a5.853,5.853,0,0,1,5.846-5.846H911.208a5.853,5.853,0,0,1,5.846,5.846v78.309A5.853,5.853,0,0,1,911.208,622.87ZM595.519,535.208a3.512,3.512,0,0,0-3.508,3.508v78.309a3.511,3.511,0,0,0,3.508,3.508H911.208a3.511,3.511,0,0,0,3.508-3.508V538.715a3.511,3.511,0,0,0-3.508-3.508Z" transform="translate(-108.981 -172.87)" fill="#e6e6e6"/>
            <path id="Path_139-723" data-name="Path 139" d="M690.369,556.72a3.969,3.969,0,1,0,0,7.938H877.477a3.969,3.969,0,0,0,0-7.938Z" transform="translate(-99.78 -170.602)" fill="#e6e6e6"/>
            <path id="Path_140-724" data-name="Path 140" d="M690.369,578.466a3.969,3.969,0,1,0,0,7.938h80.513a3.969,3.969,0,1,0,0-7.938Z" transform="translate(-99.78 -168.533)" fill="#e6e6e6"/>
            <g id="Group_45" data-name="Group 45">
                <circle id="Ellipse_18" data-name="Ellipse 18" cx="23.814" cy="23.814" r="23.814" transform="translate(512 378)" fill="#e6e6e6"/>
                <path id="Path_395-2-725" data-name="Path 395" d="M306.53,242.049a3.689,3.689,0,0,1-2.219-.738l-.04-.03-8.358-6.394a3.714,3.714,0,0,1,4.52-5.9l5.414,4.151,12.793-16.69a3.713,3.713,0,0,1,5.205-.688h0l-.079.11.082-.11a3.717,3.717,0,0,1,.687,5.206L309.488,240.6a3.715,3.715,0,0,1-2.954,1.448Z" transform="translate(225.541 173)" fill="#6c63ff"/>
            </g>
        </g>
    </g>
</svg>
