<?xml version="1.0" encoding="UTF-8"?>
<svg width="175px" height="140px" viewBox="0 0 175 140" version="1.1" xmlns="http://www.w3.org/2000/svg" xmlns:xlink="http://www.w3.org/1999/xlink">
    <title>local</title>
    <g id="页面-1" stroke="none" stroke-width="1" fill="none" fill-rule="evenodd">
        <g id="local" fill-rule="nonzero">
            <path d="M166.733008,139.0625 L7.68105469,139.0625 C3.43320313,139.0625 0,136.009375 0,132.231836 L0,20.6978516 C0,16.9203125 3.43320313,13.8671875 7.68105469,13.8671875 L166.733008,13.8671875 C170.980859,13.8671875 174.414062,16.9203125 174.414062,20.6978516 L174.414062,132.231836 C174.414062,135.992188 170.961523,139.0625 166.733008,139.0625 Z" id="路径" fill="#FFE9B4"></path>
            <path d="M87.3046875,46.875 L0,46.875 L0,7.68945313 C0,3.43691406 3.43710937,0 7.68964844,0 L67.4396484,0 C70.8380859,0 73.8283203,2.21367188 74.7992187,5.47578125 L87.3046875,46.875 Z" id="路径" fill="#FFB02C"></path>
            <path d="M166.733008,139.0625 L7.68105469,139.0625 C3.43320313,139.0625 0,135.628906 0,131.380469 L0,32.0960937 C0,27.8476562 3.43320313,24.4140625 7.68105469,24.4140625 L166.733008,24.4140625 C170.980859,24.4140625 174.414062,27.8476562 174.414062,32.0960937 L174.414062,131.380469 C174.414062,135.609375 170.961523,139.0625 166.733008,139.0625 Z" id="路径" fill="#FFCA28"></path>
        </g>
    </g>
</svg>