<svg t="1642829777576" class="icon" viewBox="0 0 6806 1024" version="1.1" xmlns="http://www.w3.org/2000/svg" p-id="11658" width="200" height="200"><path d="M2207.930676 17.328265h381.221828v989.05048h-381.221828zM1745.843613 30.973227l-773.828408 415.208665a38.4654 38.4654 0 0 1-35.828489 0L162.358308 30.973227A117.53084 117.53084 0 0 0 107.066912 17.328265h-0.962681A100.453709 100.453709 0 0 0 0 110.540936v894.707705h380.886981V579.366769a38.423544 38.423544 0 0 1 57.970162-28.545596l433.667034 233.052606a152.103658 152.103658 0 0 0 139.630656 1.17196l457.608502-235.815083a38.381688 38.381688 0 0 1 57.384182 28.880441v427.137544h380.886981V110.540936A100.453709 100.453709 0 0 0 1802.097691 17.328265h-0.962682a117.53084 117.53084 0 0 0-55.291396 13.644962z m2744.227918-13.644962h-386.621214v450.158185a38.214265 38.214265 0 0 1-56.002943 29.550133L3045.505334 28.252606a118.200531 118.200531 0 0 0-49.850153-10.924341h-0.669692a100.453709 100.453709 0 0 0-106.10423 93.212671v894.749561h383.523891V555.63458a38.256121 38.256121 0 0 1 55.961087-29.591989l1005.876477 468.783978a117.740119 117.740119 0 0 0 49.724586 10.882485 100.453709 100.453709 0 0 0 106.104231-93.212671z m299.728755 989.05048V17.328265h175.41729v989.05048z m1207.788433 17.621255c-471.8813 0-806.643286-196.721848-806.643287-511.979072C5190.945432 198.437932 5527.716493 0 5997.588719 0s808.652361 196.721848 808.65236 512.020928-330.743838 511.979072-808.65236 511.979072z m0-892.907909c-350.876436 0-621.13877 134.649826-621.13877 380.886981 0 248.036951 270.262334 380.886981 621.13877 380.886982s623.105988-132.850031 623.105988-380.886982c0-246.237155-272.229552-380.886981-623.105988-380.886981z" fill="#C72C48" p-id="11659"></path></svg>