<svg t="1643526110591" class="icon" viewBox="0 0 1024 1024" version="1.1" xmlns="http://www.w3.org/2000/svg" p-id="2750" width="200" height="200"><path d="M846.12608 875.52H177.8688A95.85152 95.85152 0 0 1 81.92 779.9808V238.8992A95.85152 95.85152 0 0 1 177.8688 143.36H427.52l87.76192 90.14272h330.83904A95.85152 95.85152 0 0 1 942.08 329.03168v450.94912A95.85664 95.85664 0 0 1 846.12608 875.52zM177.8688 206.68416a32.32256 32.32256 0 0 0-32.35328 32.21504v541.0816a32.31744 32.31744 0 0 0 32.35328 32.21504h668.25728a32.32256 32.32256 0 0 0 32.3584-32.21504V329.03168a32.32256 32.32256 0 0 0-32.3584-32.20992H488.36096l-87.7568-90.1376H177.8688z" fill="#5288F5" p-id="2751"></path><path d="M666.0352 519.49568h-121.48224V398.49984H480.9728v120.99584H359.49056v63.32928H480.9728v120.99584h63.58016v-120.99584h121.48224v-63.32928z" fill="#F79C42" p-id="2752"></path></svg>