<svg t="1642759258244" class="icon" viewBox="0 0 1024 1024" version="1.1" xmlns="http://www.w3.org/2000/svg" p-id="726" width="200" height="200"><path d="M590.4 536s185.6-104 188.8-102.4a270.448 270.448 0 0 0-328-195.2 266.192 266.192 0 0 0-158.4 113.6c1.6 0 297.6 184 297.6 184z" fill="#0364B8" p-id="727"></path><path d="M409.6 384a217.488 217.488 0 0 0-113.6-32h-3.2A216.16 216.16 0 0 0 80 571.2a223.088 223.088 0 0 0 38.4 121.6L416 662.4l174.4-168z" fill="#0F78D4" p-id="728"></path><path d="M780.8 433.6h-11.2a165.696 165.696 0 0 0-68.8 14.4L592 492.8l118.4 131.2 214.4 67.2a175.472 175.472 0 0 0-72-238.4 192.848 192.848 0 0 0-72-19.2z"
                                                                                                                                                                                                                                                                                                                                                                                                                                                                                                             fill="#1490DF"
                                                                                                                                                                                                                                                                                                                                                                                                                                                                                                             p-id="729"></path>
    <path d="M769.6 600l-44.8-27.2-102.4-60.8-32-19.2-81.6 35.2-158.4 67.2-72 28.8-160 67.2A217.712 217.712 0 0 0 296 784H768a177.84 177.84 0 0 0 155.2-92.8z" fill="#28A8EA" p-id="730"></path></svg>