<?xml version="1.0" encoding="UTF-8"?>
<svg width="170px" height="144px" viewBox="0 0 170 144" version="1.1" xmlns="http://www.w3.org/2000/svg" xmlns:xlink="http://www.w3.org/1999/xlink">
    <title>onedrive-china</title>
    <g id="页面-1" stroke="none" stroke-width="1" fill="none" fill-rule="evenodd">
        <g id="onedrive-china" fill-rule="nonzero">
            <g id="世纪互联" transform="translate(25.440000, 115.910000)" fill="#409EFF">
                <path d="M22.5,19.59 L22.5,10.14 L26.58,10.14 L26.58,6.42 L22.5,6.42 L22.5,0.45 L18.69,0.3 L18.69,6.42 L14.31,6.42 L14.31,0.48 L10.5,0.33 L10.5,6.42 L7.26,6.42 L7.26,1.2 L3.36,1.05 L3.36,6.42 L0,6.42 L0,10.14 L3.36,10.14 L3.36,26.28 L25.5,26.28 L25.5,22.68 L7.26,22.68 L7.26,10.14 L10.5,10.14 L10.5,19.59 L22.5,19.59 Z M18.69,10.14 L18.69,15.96 L14.31,15.96 L14.31,10.14 L18.69,10.14 Z" id="形状"></path>
                <path d="M38.46,8.07 C37.53,8.16 36.57,8.19 35.85,8.22 C36.69,7.23 38.67,3.99 39.93,1.44 L36.93,0 C35.55,3.15 33.6,6.42 32.79,7.38 C32.46,7.71 32.13,8.13 31.56,8.34 L32.34,11.85 C32.79,11.76 33.15,11.76 33.63,11.67 C34.35,11.58 35.37,11.52 36.36,11.43 C35.49,12.75 34.71,13.89 34.2,14.58 C33.63,15.27 33.12,15.6 32.19,15.81 L33.09,19.56 C33.45,19.44 34.02,19.35 34.65,19.23 C36.72,18.84 41.19,18.15 41.82,18.15 L41.79,14.67 C40.62,14.91 38.76,15.15 37.44,15.39 C38.94,13.98 41.58,9.87 43.26,6.57 L40.35,4.74 C39.84,5.73 39.15,6.9 38.46,8.07 Z M54.36,18.51 C54.33,19.32 54.21,20.46 54.12,21.15 C53.97,22.56 53.46,22.92 52.05,23.01 C51,23.1 49.86,23.13 48.81,23.01 C47.34,22.86 47.07,22.53 47.07,20.94 L47.07,14.25 L56.07,14.25 L56.07,1.35 L43.38,1.35 L43.38,5.25 L52.32,5.25 L52.32,10.41 L43.38,10.41 L43.38,22.29 C43.38,25.98 44.46,26.58 47.94,26.73 C49.59,26.82 51.24,26.82 52.89,26.73 C56.1,26.58 57.03,25.98 57.66,22.5 C57.87,21.51 57.9,20.82 57.99,19.77 L54.36,18.51 Z M42.51,20.22 C41.37,20.46 32.46,22.05 31.38,22.05 L31.92,25.89 C32.82,25.65 41.79,24.06 42.72,24.06 L42.6,22.17 L42.51,20.22 Z" id="形状"></path>
                <path d="M83.94,22.32 L84.96,7.95 L71.94,7.95 L72.42,5.25 L87.54,5.25 L87.54,1.53 L64.08,1.53 L64.08,5.25 L68.55,5.25 L66.33,19.41 L80.31,19.41 L80.07,22.32 L62.52,22.32 L62.52,26.01 L88.98,26.01 L88.98,22.32 L83.94,22.32 Z M70.65,15.66 L71.31,11.7 L80.97,11.7 L80.64,15.66 L70.65,15.66 Z" id="形状"></path>
                <path d="M119.37,16.11 L119.37,12.45 L113.61,12.45 L113.61,9 L118.83,9 L118.83,5.37 L116.67,5.37 L117.96,1.23 L114.18,0.99 L112.98,5.37 L111.18,5.37 L110.28,0.99 L106.44,1.23 L107.61,5.37 L105.48,5.37 L105.48,9 L110.07,9 L110.07,12.45 L104.82,12.45 L104.82,16.11 L109.89,16.11 C109.38,19.56 107.67,22.05 103.95,24.18 L103.95,22.11 C104.55,21.99 105.12,21.87 105.63,21.72 L105.57,18.48 L103.95,18.84 L103.95,4.8 L105.09,4.8 L105.09,1.35 L94.17,1.35 L94.17,4.8 L95.1,4.8 L95.1,20.28 L93.48,20.46 L93.72,23.94 C94.59,23.79 97.56,23.37 100.62,22.8 L100.62,27 L103.95,27 L103.95,24.3 L106.08,27.33 C109.08,25.29 110.97,23.16 112.14,20.76 C113.58,23.4 115.77,25.56 118.38,27.24 L120.48,24.06 C117.15,22.5 114.72,19.59 113.55,16.11 L119.37,16.11 Z M100.62,4.8 L100.62,7.59 L98.22,7.59 L98.22,4.8 L100.62,4.8 Z M98.22,10.83 L100.62,10.83 L100.62,13.53 L98.22,13.53 L98.22,10.83 Z M98.22,16.74 L100.62,16.74 L100.62,19.47 L98.22,19.86 L98.22,16.74 Z" id="形状"></path>
            </g>
            <path d="M99.6918347,59.7344781 C99.6918347,59.7344781 135.941835,39.4219781 136.566835,39.7344781 C129.3529,11.5546602 100.713368,-5.48935352 72.5043347,1.60947806 C59.7574839,4.82772568 48.7031461,12.7555841 41.5668347,23.7969781 C41.8793347,23.7969781 99.6918347,59.7344781 99.6918347,59.7344781 Z" id="路径" fill="#0364B8"></path>
            <path d="M64.3793347,30.0469781 C57.7009437,25.9584156 50.0223676,23.7954364 42.1918347,23.7969772 L41.5668347,23.7969772 C18.2736238,24.1567487 -0.326070343,43.3158322 0.00433466355,66.6094781 C0.140270892,75.0872481 2.7467722,83.3411689 7.50433466,90.3594781 L65.6293347,84.4219781 L99.6918347,51.6094781 L64.3793347,30.0469781 Z" id="路径" fill="#0F78D4"></path>
            <path d="M136.879335,39.7344781 L134.691835,39.7344781 C130.063074,39.7001902 125.480817,40.6592673 121.254335,42.5469781 L100.004335,51.2969781 L123.129335,76.9219781 L165.004335,90.0469781 C169.347388,82.0142023 170.305111,72.580345 167.664999,63.8386399 C165.024887,55.0969348 159.005278,47.7703253 150.941835,43.4844781 C146.542707,41.3321333 141.766053,40.0583588 136.879335,39.7344781 Z" id="路径" fill="#1490DF"></path>
            <path d="M134.691835,72.2344781 L125.941835,66.9219781 L105.941835,55.0469781 L99.6918347,51.2969781 L83.7543347,58.1719781 L52.8168347,71.2969781 L38.7543347,76.9219781 L7.50433466,90.0469781 C15.4340878,101.366927 28.3708302,108.126666 42.1918347,108.171978 L134.379335,108.171978 C147.030312,108.101456 158.642459,101.158111 164.691835,90.0469781 L134.691835,72.2344781 Z" id="路径" fill="#28A8EA"></path>
        </g>
    </g>
</svg>