<svg t="1641821720546" class="icon" viewBox="0 0 1024 1024" version="1.1" xmlns="http://www.w3.org/2000/svg" p-id="4070"
     width="200" height="200">
    <defs>
        <style type="text/css"></style>
    </defs>
    <path d="M128 128v768h369.6v-64H192V192h640v288h64V128H128z m120 160h427.936v64H288V288z m0 160h209.6v64H288v-64z m0 160h122.304v64H288v-64z"
          p-id="4071"></path>
    <path d="M664.832 544a120.8 120.8 0 1 0 0 241.6 120.8 120.8 0 0 0 0-241.6zM480 664.832a184.832 184.832 0 1 1 336.16 106.08L896 850.752 850.752 896l-79.84-79.84a184.8 184.8 0 0 1-290.88-151.36z"
          p-id="4072"></path>
</svg>