<svg t="1642829266444" class="icon" viewBox="0 0 1024 1024" version="1.1" xmlns="http://www.w3.org/2000/svg" p-id="1532" width="200" height="200"><path d="M998.4 191.488c-1.536-3.072-5.12-6.144-11.776-4.608-12.8 3.072-159.232 246.784-474.624 240.128-59.904 1.024-113.664-6.656-161.792-19.968l-25.6-87.04s-5.12-21.504-26.112-32.768c-14.336-7.68-23.04-5.12-24.576-3.072-1.536 2.048-1.536 4.096-1.536 4.096l12.8 96.256C124.928 315.904 46.08 189.44 36.864 187.392c-6.656-1.536-10.24 1.536-11.776 4.608-2.56 5.12 0 12.288 0 12.288 45.568 134.144 143.36 240.128 269.824 296.448l34.816 232.448c2.56 66.56 47.104 104.448 104.96 104.448h173.568c57.856 0 101.376-41.472 104.96-104.448l31.744-192.512s0.512-2.56-1.024-3.584c-2.048-1.024-16.896-1.536-47.616 20.992-30.72 22.528-40.96 55.296-40.96 55.296s-33.28 79.872-41.984 114.176c-9.216 35.84-49.664 32.768-49.664 32.768h-92.16c-31.232 0-34.304-27.648-34.304-27.648L378.88 529.408c42.496 10.752 86.528 16.384 133.12 15.872 228.352 1.024 417.792-137.728 486.912-341.504 0 0 2.56-7.168-0.512-12.288" p-id="1533" data-spm-anchor-id="a313x.7781069.0.i1" class="" fill="#4AA3DB"></path></svg>