<?xml version="1.0" standalone="no"?><!DOCTYPE svg PUBLIC "-//W3C//DTD SVG 1.1//EN" "http://www.w3.org/Graphics/SVG/1.1/DTD/svg11.dtd"><svg t="1641800921359" class="icon" viewBox="0 0 1024 1024" version="1.1" xmlns="http://www.w3.org/2000/svg" p-id="1870" xmlns:xlink="http://www.w3.org/1999/xlink" width="200" height="200"><defs><style type="text/css"></style></defs><path d="M725.24288 673.28a210.68288 210.68288 0 1 0-210.68288 210.37568 210.52928 210.52928 0 0 0 210.68288-210.37568z" fill="#F4CA1C" p-id="1871"></path><path d="M806.24128 387.0976h-31.37024V304.76288C774.87104 167.77216 656.50688 56.32 511.01696 56.32S247.168 167.77216 247.168 304.76288v82.33472h-24.28928A110.28992 110.28992 0 0 0 112.64 497.18784V852.48A110.28992 110.28992 0 0 0 222.87872 962.56h583.36256A110.28992 110.28992 0 0 0 916.48 852.48V497.18784a110.2848 110.2848 0 0 0-110.23872-110.09024zM314.63936 304.76288c0-99.84 88.09984-181.0688 196.3776-181.0688s196.38272 81.2288 196.38272 181.0688v82.33472H314.63936V304.76288zM849.00864 852.48a42.78784 42.78784 0 0 1-42.76736 42.71104H222.87872a42.78784 42.78784 0 0 1-42.76736-42.71104V497.18784a42.78784 42.78784 0 0 1 42.76736-42.71104h583.36256a42.78784 42.78784 0 0 1 42.76736 42.71104V852.48z m-223.60064-143.74912a33.74592 33.74592 0 0 0-44.544 17.07008 87.424 87.424 0 1 1-79.67232-122.78272 33.62816 33.62816 0 0 0 24.00256 62.2336l65.94048-16a48.34816 48.34816 0 0 0 35.57376-58.32704l-16.03072-65.85856a33.73056 33.73056 0 0 0-65.536 15.91296l0.3072 1.2544a154.52672 154.52672 0 1 0 97.0752 210.97984 33.66912 33.66912 0 0 0-17.11616-44.48256z" fill="#595BB3" p-id="1872"></path></svg>