<svg t="1642829871482" class="icon" viewBox="0 0 1024 1024" version="1.1" xmlns="http://www.w3.org/2000/svg"
     p-id="13322" data-spm-anchor-id="a313x.7781069.0.i30" width="200" height="200">
    <path d="M311.84 377.6a91.786667 91.786667 0 0 0 3.36 27.146667A163.093333 163.093333 0 0 0 324.96 426.666667a13.12 13.12 0 0 1 2.133333 6.986666 12.106667 12.106667 0 0 1-5.813333 9.173334l-19.2 12.8a14.613333 14.613333 0 0 1-7.946667 2.773333 13.866667 13.866667 0 0 1-9.12-4.266667 94.186667 94.186667 0 0 1-10.986666-14.346666q-5.333333-8.8-9.493334-18.026667A112.693333 112.693333 0 0 1 174.826667 464c-25.6 0-46.08-7.306667-61.013334-21.92s-22.56-34.186667-22.56-58.666667a78.453333 78.453333 0 0 1 27.733334-62.826666c18.613333-16 43.306667-23.84 74.666666-23.84a240.853333 240.853333 0 0 1 32.32 2.453333c11.306667 1.546667 22.933333 4 35.093334 6.72v-22.24c0-23.2-4.853333-39.36-14.346667-48.8S220.64 220.8 197.333333 220.8a138.666667 138.666667 0 0 0-32.96 3.946667 243.04 243.04 0 0 0-32.96 10.4 87.2 87.2 0 0 1-10.666666 4 18.72 18.72 0 0 1-4.853334 0.853333c-4.266667 0-6.4-3.04-6.4-9.44v-14.933333a19.36 19.36 0 0 1 2.133334-10.666667 22.826667 22.826667 0 0 1 8.586666-6.4 174.88 174.88 0 0 1 38.4-13.76 185.066667 185.066667 0 0 1 47.626667-5.76c36.32 0 62.826667 8.266667 80 24.746667s24.96 41.546667 24.96 74.986666V377.6z m-123.84 46.4a98.773333 98.773333 0 0 0 31.413333-5.333333 68.053333 68.053333 0 0 0 28.96-19.466667 48.64 48.64 0 0 0 10.4-19.573333 111.253333 111.253333 0 0 0 3.04-26.666667v-12.8a254.186667 254.186667 0 0 0-28.106666-5.333333 229.333333 229.333333 0 0 0-28.693334-1.813334c-20.426667 0-35.413333 4-45.493333 12.213334a42.666667 42.666667 0 0 0-14.933333 35.04c0 14.346667 3.626667 25.013333 11.253333 32.32s17.973333 11.306667 32 11.306666z m245.013333 32.96a17.066667 17.066667 0 0 1-11.68-3.04 24.906667 24.906667 0 0 1-6.4-11.893333L343.306667 206.133333a53.6 53.6 0 0 1-2.773334-12.213333 6.72 6.72 0 0 1 7.306667-7.626667h29.92a16.906667 16.906667 0 0 1 11.84 3.04 24.373333 24.373333 0 0 1 6.133333 11.946667l51.306667 201.92 47.573333-201.973333a21.706667 21.706667 0 0 1 5.76-11.946667 21.013333 21.013333 0 0 1 12.213334-3.04h24.373333a18.666667 18.666667 0 0 1 12.213333 3.04 20.64 20.64 0 0 1 5.76 11.946667l48 204.426666L656 201.28a26.24 26.24 0 0 1 6.133333-11.946667 19.893333 19.893333 0 0 1 11.893334-3.04h28.373333a6.826667 6.826667 0 0 1 7.626667 7.626667 30.72 30.72 0 0 1-0.64 4.906667 43.413333 43.413333 0 0 1-2.133334 7.626666l-73.493333 235.84a23.306667 23.306667 0 0 1-6.4 11.893334 19.52 19.52 0 0 1-11.573333 3.04h-26.24a18.56 18.56 0 0 1-12.213334-3.04 21.706667 21.706667 0 0 1-5.76-12.213334L524.213333 245.333333l-47.04 196.32a24.16 24.16 0 0 1-5.706666 12.213334 19.093333 19.093333 0 0 1-12.213334 3.04z m392 8.213333a203.466667 203.466667 0 0 1-46.986666-5.333333 138.666667 138.666667 0 0 1-35.093334-12.213333 17.493333 17.493333 0 0 1-11.253333-17.066667v-15.733333c0-6.4 2.453333-9.44 6.986667-9.44a17.386667 17.386667 0 0 1 5.333333 0.906666c1.813333 0.586667 4.586667 1.813333 7.626667 3.04a164.746667 164.746667 0 0 0 33.546666 10.666667 182.293333 182.293333 0 0 0 36.32 3.68c19.2 0 34.186667-3.36 44.533334-10.08a32.853333 32.853333 0 0 0 16-28.96 29.706667 29.706667 0 0 0-8.213334-21.333333c-5.333333-5.76-16-10.986667-30.826666-16l-44.213334-13.76c-22.293333-6.986667-38.773333-17.333333-48.8-31.093334a72.693333 72.693333 0 0 1-15.306666-44.266666 68.32 68.32 0 0 1 8.266666-33.866667 78.293333 78.293333 0 0 1 21.973334-25.013333 96 96 0 0 1 31.733333-16 133.333333 133.333333 0 0 1 38.453333-5.333334 153.226667 153.226667 0 0 1 20.426667 1.226667c6.986667 0.906667 13.386667 2.133333 19.786667 3.36s11.946667 3.04 17.386666 4.853333a66.72 66.72 0 0 1 12.853334 5.333334 26.293333 26.293333 0 0 1 9.173333 7.626666 16.426667 16.426667 0 0 1 2.72 10.026667v14.346667c0 6.4-2.453333 9.76-7.04 9.76a31.68 31.68 0 0 1-11.573333-3.68 139.626667 139.626667 0 0 0-58.666667-11.893334c-17.386667 0-31.146667 2.72-40.586667 8.533334a29.44 29.44 0 0 0-14.346666 27.146666 28.746667 28.746667 0 0 0 9.44 22.346667 90.666667 90.666667 0 0 0 33.493333 16.8l43.36 13.706667c21.92 7.04 37.866667 16.8 47.306667 29.333333a69.333333 69.333333 0 0 1 14.026666 42.666667 78.72 78.72 0 0 1-7.893333 35.413333 82.453333 82.453333 0 0 1-22.293333 26.666667 98.453333 98.453333 0 0 1-33.866667 17.066666 146.133333 146.133333 0 0 1-43.626667 6.4zM882.666667 613.333333c-100.373333 74.133333-246.24 113.493333-371.573334 113.493334a672.32 672.32 0 0 1-453.706666-173.013334c-9.44-8.533333-0.906667-20.16 10.4-13.44A915.146667 915.146667 0 0 0 521.76 661.333333a906.133333 906.133333 0 0 0 346.293333-70.773333c16.8-7.626667 31.093333 10.986667 14.666667 23.2z m41.813333-47.626666c-12.853333-16.426667-84.853333-7.893333-117.333333-3.946667-9.76 1.226667-11.253333-7.36-2.4-13.76 57.333333-40.266667 151.626667-28.693333 162.613333-15.253333s-3.04 108-56.746667 153.173333c-8.213333 7.04-16 3.36-12.48-5.76 12.213333-30.186667 39.36-98.24 26.666667-114.453333z m0 0"
          p-id="13323" fill="#df9545"></path>
</svg>