<svg t="1644931538994" class="icon" viewBox="0 0 1024 1024" version="1.1" xmlns="http://www.w3.org/2000/svg" p-id="1525" width="200" height="200"><path d="M923.8016 454.7072l-503.6032 452.3008h306.6368c104.3968 0 189.5936-83.5072 191.6928-187.904l5.2736-264.3968z" fill="#FFD833" p-id="1526"></path><path d="M918.528 418.9696c-14.1312 0-25.6-11.4688-25.6-25.6V380.928c0-14.1312 11.4688-25.6 25.6-25.6s25.6 11.4688 25.6 25.6v12.4416c0 14.1312-11.4176 25.6-25.6 25.6zM448.4608 649.6256a62.3104 62.3104 0 0 1-48.0256-22.784L296.96 500.48a25.6 25.6 0 0 1 3.584-36.0448 25.6 25.6 0 0 1 36.0448 3.584l103.4752 126.3616c2.6624 3.2256 6.0416 3.8912 7.8336 3.9936 1.8432 0.1024 5.2736-0.2048 8.2432-3.1232l249.7536-245.7088a25.5744 25.5744 0 0 1 36.1984 0.3072 25.5744 25.5744 0 0 1-0.3072 36.1984L492.032 631.7056c-11.5712 11.52-27.2896 17.92-43.5712 17.92z" fill="#44454A" p-id="1527"></path><path d="M713.728 940.1856H311.4496c-127.0272 0-230.4-103.3728-230.4-230.4V308.5824c0-127.0272 103.3728-230.4 230.4-230.4h402.3296c127.0272 0 230.4 103.3728 230.4 230.4 0 14.1312-11.4688 25.6-25.6 25.6s-25.6-11.4688-25.6-25.6c0-98.816-80.384-179.2-179.2-179.2H311.4496c-98.816 0-179.2 80.384-179.2 179.2v401.2032c0 98.816 80.384 179.2 179.2 179.2h402.3296c98.816 0 179.2-80.384 179.2-179.2V464.64c0-14.1312 11.4688-25.6 25.6-25.6s25.6 11.4688 25.6 25.6v245.0944c-0.0512 127.0784-103.3728 230.4512-230.4512 230.4512z" fill="#44454A" p-id="1528"></path></svg>