<svg t="1642472885173" class="icon" viewBox="0 0 1024 1024" version="1.1" xmlns="http://www.w3.org/2000/svg" p-id="2910" width="200" height="200"><path d="M640 725.333333a42.666667 42.666667 0 1 0 42.666667 42.666667 42.666667 42.666667 0 0 0-42.666667-42.666667z m-256 0H256a42.666667 42.666667 0 0 0 0 85.333334h128a42.666667 42.666667 0 0 0 0-85.333334z m384 0a42.666667 42.666667 0 1 0 42.666667 42.666667 42.666667 42.666667 0 0 0-42.666667-42.666667z m-128-256a42.666667 42.666667 0 1 0 42.666667 42.666667 42.666667 42.666667 0 0 0-42.666667-42.666667z m-256 0H256a42.666667 42.666667 0 0 0 0 85.333334h128a42.666667 42.666667 0 0 0 0-85.333334z m384-256a42.666667 42.666667 0 1 0 42.666667 42.666667 42.666667 42.666667 0 0 0-42.666667-42.666667z m0 256a42.666667 42.666667 0 1 0 42.666667 42.666667 42.666667 42.666667 0 0 0-42.666667-42.666667z m170.666667-256a128 128 0 0 0-128-128H213.333333a128 128 0 0 0-128 128v85.333334a128 128 0 0 0 33.28 85.333333A128 128 0 0 0 85.333333 469.333333v85.333334a128 128 0 0 0 33.28 85.333333A128 128 0 0 0 85.333333 725.333333v85.333334a128 128 0 0 0 128 128h597.333334a128 128 0 0 0 128-128v-85.333334a128 128 0 0 0-33.28-85.333333 128 128 0 0 0 33.28-85.333333v-85.333334a128 128 0 0 0-33.28-85.333333A128 128 0 0 0 938.666667 298.666667z m-85.333334 597.333334a42.666667 42.666667 0 0 1-42.666666 42.666666H213.333333a42.666667 42.666667 0 0 1-42.666666-42.666666v-85.333334a42.666667 42.666667 0 0 1 42.666666-42.666666h597.333334a42.666667 42.666667 0 0 1 42.666666 42.666666z m0-256a42.666667 42.666667 0 0 1-42.666666 42.666666H213.333333a42.666667 42.666667 0 0 1-42.666666-42.666666v-85.333334a42.666667 42.666667 0 0 1 42.666666-42.666666h597.333334a42.666667 42.666667 0 0 1 42.666666 42.666666z m0-256a42.666667 42.666667 0 0 1-42.666666 42.666666H213.333333a42.666667 42.666667 0 0 1-42.666666-42.666666V213.333333a42.666667 42.666667 0 0 1 42.666666-42.666666h597.333334a42.666667 42.666667 0 0 1 42.666666 42.666666z m-213.333333-85.333334a42.666667 42.666667 0 1 0 42.666667 42.666667 42.666667 42.666667 0 0 0-42.666667-42.666667zM384 213.333333H256a42.666667 42.666667 0 0 0 0 85.333334h128a42.666667 42.666667 0 0 0 0-85.333334z" p-id="2911"></path></svg>