<?xml version="1.0" standalone="no"?><!DOCTYPE svg PUBLIC "-//W3C//DTD SVG 1.1//EN" "http://www.w3.org/Graphics/SVG/1.1/DTD/svg11.dtd"><svg t="1654510398523" class="icon" viewBox="0 0 1024 1024" version="1.1" xmlns="http://www.w3.org/2000/svg" p-id="3907" xmlns:xlink="http://www.w3.org/1999/xlink" width="200" height="200"><defs><style type="text/css"></style></defs><path d="M511.998 1023.988c-71.133166 0-129.004488-57.871322-129.004488-129.002488v-8.793897a393.981383 393.981383 0 0 1-44.34948-18.399784l-6.241927 6.239926c-24.283715 24.287715-56.677336 37.665559-91.216931 37.665559s-66.933216-13.377843-91.222931-37.665559c-50.293411-50.299411-50.293411-132.140451 0-182.441862l6.239927-6.235926a394.031382 394.031382 0 0 1-18.397785-44.349481h-8.793897C57.875322 641.002488 0.004 583.129166 0.004 511.996s57.873322-129.004488 129.004488-129.004488h8.789897a393.827385 393.827385 0 0 1 18.399785-44.34948l-6.239927-6.239927c-50.293411-50.299411-50.293411-132.140451 0-182.439862 24.289715-24.289715 56.683336-37.667559 91.222931-37.667559s66.933216 13.377843 91.218931 37.667559l6.239927 6.235927a393.981383 393.981383 0 0 1 44.34948-18.399785v-8.789897c0-71.133166 57.873322-129.004488 129.004488-129.004488s129.004488 57.873322 129.004488 129.004488V137.798385a394.727374 394.727374 0 0 1 44.349481 18.399785l6.239926-6.239927c24.287715-24.287715 56.681336-37.665559 91.218931-37.665559s66.933216 13.377843 91.222931 37.665559c50.293411 50.299411 50.293411 132.140451 0 182.441862-11.501865 11.501865-30.155647 11.501865-41.665511 0-11.503865-11.503865-11.503865-30.155647 0-41.661512 27.32368-27.32768 27.32368-71.791159 0-99.118839-13.159846-13.161846-30.75964-20.409761-49.55742-20.40976s-36.395573 7.247915-49.555419 20.40976l-21.547747 21.547748a29.449655 29.449655 0 0 1-35.243587 4.859943 334.960075 334.960075 0 0 0-72.911146-30.249646 29.457655 29.457655 0 0 1-21.469748-28.355667V129.010488c0-38.645547-31.439632-70.085179-70.085179-70.085179s-70.085179 31.439632-70.085179 70.085179v30.423644a29.461655 29.461655 0 0 1-21.469748 28.355667 335.000074 335.000074 0 0 0-72.911146 30.249646 29.459655 29.459655 0 0 1-35.243587-4.859943l-21.547747-21.547748c-13.159846-13.161846-30.75564-20.409761-49.555419-20.409761s-36.397573 7.247915-49.55742 20.409761c-27.32368 27.32368-27.32368 71.787159 0 99.118839l21.547748 21.543747a29.455655 29.455655 0 0 1 4.859943 35.243587 334.836076 334.836076 0 0 0-30.249646 72.911146 29.453655 29.453655 0 0 1-28.355667 21.469748H129.008488c-38.645547 0-70.085179 31.439632-70.085179 70.085179s31.439632 70.085179 70.085179 70.085179h30.423644a29.459655 29.459655 0 0 1 28.355667 21.467748 335.156072 335.156072 0 0 0 30.249646 72.913146 29.461655 29.461655 0 0 1-4.863943 35.243587l-21.547748 21.543747c-27.32168 27.32368-27.32168 71.787159 0.002 99.114839 13.159846 13.161846 30.75964 20.409761 49.55742 20.40976s36.395573-7.247915 49.555419-20.40976l21.549747-21.543748a29.457655 29.457655 0 0 1 35.237587-4.863943 335.180072 335.180072 0 0 0 72.913146 30.249646 29.457655 29.457655 0 0 1 21.469748 28.355667v30.425644c0 38.643547 31.439632 70.083179 70.085179 70.083178s70.085179-31.439632 70.085179-70.083178V864.569868a29.461655 29.461655 0 0 1 21.469748-28.355667 335.138073 335.138073 0 0 0 72.913146-30.249646 29.459655 29.459655 0 0 1 35.237587 4.863943l21.547747 21.543748c13.161846 13.161846 30.75964 20.409761 49.557419 20.40976s36.397573-7.247915 49.55742-20.40976c27.32368-27.32368 27.32368-71.789159 0-99.118839l-21.543748-21.543747a29.455655 29.455655 0 0 1-4.863943-35.243587 335.156072 335.156072 0 0 0 30.249646-72.913146 29.459655 29.459655 0 0 1 28.355667-21.467748h30.423644c38.645547 0 70.085179-31.439632 70.085179-70.085179 0-19.269774-8.171904-37.939555-22.419738-51.2194-11.903861-11.09387-12.561853-29.733652-1.467982-41.635512 11.09387-11.901861 29.739651-12.555853 41.635512-1.467983C1008.984176 442.06082 1023.992 476.438417 1023.992 512c0 71.133166-57.873322 129.004488-129.004488 129.004488H886.193615a394.777374 394.777374 0 0 1-18.397784 44.349481l6.235926 6.235926c50.297411 50.299411 50.297411 132.140451 0.002 182.439862-24.289715 24.289715-56.683336 37.667559-91.222931 37.667559s-66.933216-13.377843-91.220931-37.667559l-6.239926-6.235926a393.239392 393.239392 0 0 1-44.349481 18.399784v8.793897C641.002488 966.120678 583.129166 1023.988 511.998 1023.988z" fill="#2D527C" p-id="3908"></path><path d="M511.99 511.988m-235.149244 0a235.149244 235.149244 0 1 0 470.298488 0 235.149244 235.149244 0 1 0-470.298488 0Z" fill="#CEE8FA" p-id="3909"></path><path d="M511.998 776.614899c-145.91029 0-264.614899-118.706609-264.614899-264.614899S366.08771 247.381101 511.998 247.381101s264.614899 118.708609 264.614899 264.618899S657.90829 776.614899 511.998 776.614899z m0-470.316488c-113.420671 0-205.69559 92.274919-205.695589 205.697589 0 113.420671 92.274919 205.69559 205.695589 205.69559s205.69559-92.274919 205.69559-205.69559c0-113.422671-92.274919-205.697589-205.69559-205.697589z" fill="#2D527C" p-id="3910"></path></svg>