<?xml version="1.0" encoding="UTF-8"?>
<svg width="166px" height="164px" viewBox="0 0 166 164" version="1.1" xmlns="http://www.w3.org/2000/svg" xmlns:xlink="http://www.w3.org/1999/xlink">
    <title>sftp</title>
    <g id="页面-1" stroke="none" stroke-width="1" fill="none" fill-rule="evenodd">
        <g id="sftp" fill="#409EFF" fill-rule="nonzero">
            <path d="M91.6980673,21.1575987 L76.2269148,3.93602251 C73.9729545,1.43157457 70.7536244,0 67.3743736,0 L11.8826057,0 C5.32002377,0 0,5.29194389 0,11.8198875 L0,114.180112 C0,120.708056 5.32002377,126 11.8826057,126 L154.117394,126 C160.679976,126 166,120.708056 166,114.180112 L166,36.9253284 C166,30.3973848 160.679976,25.1054409 154.117394,25.1054409 L100.550609,25.1054409 C97.1695058,25.1022386 93.9498812,23.6664283 91.6980673,21.1575987 L91.6980673,21.1575987 Z M68.2061561,9.88142607 L81.7523264,25.0936212 L10.0408019,25.0936212 L10.0408019,9.88142607 L68.2180388,9.88142607 L68.2061561,9.88142607 Z M155.935433,116.024015 L10.0289192,116.024015 L10.0289192,35.1050656 L155.935433,35.1050656 L155.935433,116.035835 L155.935433,116.024015 Z" id="形状"></path>
            <polygon id="路径" points="78 121 88 121 88 160 78 160"></polygon>
            <path d="M5.02670198,148 L160.973298,148 C163.749469,148 166,150.238576 166,153 C166,155.761424 163.749469,158 160.973298,158 L5.02670198,158 C2.25053113,158 0,155.761424 0,153 C0,150.238576 2.25053113,148 5.02670198,148 Z" id="路径"></path>
            <polygon id="路径" points="37 142 124 142 124 164 37 164"></polygon>
            <path d="M30.1308556,82.2277158 C32.7955537,84.4296657 35.8052353,85.5188021 39.2193801,85.5188024 C41.122736,85.5188024 42.5740448,85.1991645 43.5495145,84.5243734 C44.5249844,83.8377438 44.9889274,83.0090532 44.9889274,81.9909471 C44.9563544,81.0302198 44.5463011,80.1205633 43.8469139,79.4575208 C43.0855715,78.652507 41.0513599,77.5752088 37.7799671,76.2137884 C32.6052183,74.0473539 30,70.850975 30,66.683844 C30,63.6058496 31.1895975,61.2381614 33.5093125,59.5452645 C35.8647153,57.8523677 38.9457727,57 42.8119642,57 C46.047669,57 48.7599511,57.4143453 50.9488105,58.2430362 L50.9488105,64.8252088 C48.6453027,63.2968445 45.9247289,62.5114873 43.1569473,62.5759053 C41.7067975,62.507511 40.2658719,62.8393695 38.9933565,63.534819 C37.9703028,64.1740947 37.4230879,65.0264624 37.4230879,66.068245 C37.4230879,66.9206127 37.7799671,67.7019497 38.4937255,68.4122561 C39.207484,69.1225626 40.979984,70.0933147 43.7755381,71.3126742 C47.0469309,72.733287 49.3309579,74.1894151 50.5562433,75.7520892 C51.7900755,77.3427925 52.4368819,79.3072647 52.3882234,81.316156 C52.3882234,84.4770196 51.2700018,86.856546 49.0097666,88.5139276 C46.7495314,90.1713091 43.5733063,91 39.4097155,91 C35.6030038,91 32.5338425,90.3962396 30.1070638,89.1768804 L30.1070638,82.2277158 L30.1308556,82.2277158 L30.1308556,82.2277158 Z M76.8106582,63.3454038 L65.0098519,63.3454038 L65.0098519,71.7980501 L75.8827722,71.7980501 L75.8827722,77.5278553 L65.0098519,77.5278553 L65.0098519,90.514624 L57.9555393,90.514624 L57.9555393,57.6037604 L76.8106582,57.6037604 L76.8106582,63.3454038 L76.8106582,63.3454038 Z M105.729771,63.3454038 L96.3081599,63.3454038 L96.3081599,90.514624 L89.2300552,90.514624 L89.2300552,63.3454038 L79.8322358,63.3454038 L79.8322358,57.6155987 L105.729771,57.6155987 L105.729771,63.3454038 Z M117.31645,79.0668523 L117.31645,90.514624 L110.262138,90.514624 L110.262138,57.6037604 L121.658481,57.6037604 C129.878599,57.6037604 133.994606,61.0724233 133.994606,68.0215876 C134.097635,71.159094 132.719958,74.1639351 130.271166,76.1427578 C127.796803,78.1552925 124.680058,79.1378832 120.944722,79.0668523 L117.31645,79.0668523 L117.31645,79.0668523 Z M117.31645,63.0494427 L117.31645,73.6803621 L120.385611,73.6803621 C124.513514,73.6803621 126.59531,71.8690808 126.59531,68.2938719 C126.59531,64.7778552 124.549202,63.0494427 120.456987,63.0494427 L117.31645,63.0494427 L117.31645,63.0494427 Z" id="形状"></path>
        </g>
    </g>
</svg>
