<?xml version="1.0" encoding="UTF-8"?>
<svg width="172px" height="201px" viewBox="0 0 172 201" version="1.1" xmlns="http://www.w3.org/2000/svg" xmlns:xlink="http://www.w3.org/1999/xlink">
    <title>sharepoint-china</title>
    <g id="页面-1" stroke="none" stroke-width="1" fill="none" fill-rule="evenodd">
        <g id="sharepoint-china" transform="translate(0.000000, 0.000000)" fill-rule="nonzero">
            <g id="世纪互联" transform="translate(26.440000, 173.188126)" fill="#409EFF">
                <path d="M22.5,19.59 L22.5,10.14 L26.58,10.14 L26.58,6.42 L22.5,6.42 L22.5,0.45 L18.69,0.3 L18.69,6.42 L14.31,6.42 L14.31,0.48 L10.5,0.33 L10.5,6.42 L7.26,6.42 L7.26,1.2 L3.36,1.05 L3.36,6.42 L0,6.42 L0,10.14 L3.36,10.14 L3.36,26.28 L25.5,26.28 L25.5,22.68 L7.26,22.68 L7.26,10.14 L10.5,10.14 L10.5,19.59 L22.5,19.59 Z M18.69,10.14 L18.69,15.96 L14.31,15.96 L14.31,10.14 L18.69,10.14 Z" id="形状"></path>
                <path d="M38.46,8.07 C37.53,8.16 36.57,8.19 35.85,8.22 C36.69,7.23 38.67,3.99 39.93,1.44 L36.93,2.27373675e-13 C35.55,3.15 33.6,6.42 32.79,7.38 C32.46,7.71 32.13,8.13 31.56,8.34 L32.34,11.85 C32.79,11.76 33.15,11.76 33.63,11.67 C34.35,11.58 35.37,11.52 36.36,11.43 C35.49,12.75 34.71,13.89 34.2,14.58 C33.63,15.27 33.12,15.6 32.19,15.81 L33.09,19.56 C33.45,19.44 34.02,19.35 34.65,19.23 C36.72,18.84 41.19,18.15 41.82,18.15 L41.79,14.67 C40.62,14.91 38.76,15.15 37.44,15.39 C38.94,13.98 41.58,9.87 43.26,6.57 L40.35,4.74 C39.84,5.73 39.15,6.9 38.46,8.07 Z M54.36,18.51 C54.33,19.32 54.21,20.46 54.12,21.15 C53.97,22.56 53.46,22.92 52.05,23.01 C51,23.1 49.86,23.13 48.81,23.01 C47.34,22.86 47.07,22.53 47.07,20.94 L47.07,14.25 L56.07,14.25 L56.07,1.35 L43.38,1.35 L43.38,5.25 L52.32,5.25 L52.32,10.41 L43.38,10.41 L43.38,22.29 C43.38,25.98 44.46,26.58 47.94,26.73 C49.59,26.82 51.24,26.82 52.89,26.73 C56.1,26.58 57.03,25.98 57.66,22.5 C57.87,21.51 57.9,20.82 57.99,19.77 L54.36,18.51 Z M42.51,20.22 C41.37,20.46 32.46,22.05 31.38,22.05 L31.92,25.89 C32.82,25.65 41.79,24.06 42.72,24.06 L42.6,22.17 L42.51,20.22 Z" id="形状"></path>
                <path d="M83.94,22.32 L84.96,7.95 L71.94,7.95 L72.42,5.25 L87.54,5.25 L87.54,1.53 L64.08,1.53 L64.08,5.25 L68.55,5.25 L66.33,19.41 L80.31,19.41 L80.07,22.32 L62.52,22.32 L62.52,26.01 L88.98,26.01 L88.98,22.32 L83.94,22.32 Z M70.65,15.66 L71.31,11.7 L80.97,11.7 L80.64,15.66 L70.65,15.66 Z" id="形状"></path>
                <path d="M119.37,16.11 L119.37,12.45 L113.61,12.45 L113.61,9 L118.83,9 L118.83,5.37 L116.67,5.37 L117.96,1.23 L114.18,0.99 L112.98,5.37 L111.18,5.37 L110.28,0.99 L106.44,1.23 L107.61,5.37 L105.48,5.37 L105.48,9 L110.07,9 L110.07,12.45 L104.82,12.45 L104.82,16.11 L109.89,16.11 C109.38,19.56 107.67,22.05 103.95,24.18 L103.95,22.11 C104.55,21.99 105.12,21.87 105.63,21.72 L105.57,18.48 L103.95,18.84 L103.95,4.8 L105.09,4.8 L105.09,1.35 L94.17,1.35 L94.17,4.8 L95.1,4.8 L95.1,20.28 L93.48,20.46 L93.72,23.94 C94.59,23.79 97.56,23.37 100.62,22.8 L100.62,27 L103.95,27 L103.95,24.3 L106.08,27.33 C109.08,25.29 110.97,23.16 112.14,20.76 C113.58,23.4 115.77,25.56 118.38,27.24 L120.48,24.06 C117.15,22.5 114.72,19.59 113.55,16.11 L119.37,16.11 Z M100.62,4.8 L100.62,7.59 L98.22,7.59 L98.22,4.8 L100.62,4.8 Z M98.22,10.83 L100.62,10.83 L100.62,13.53 L98.22,13.53 L98.22,10.83 Z M98.22,16.74 L100.62,16.74 L100.62,19.47 L98.22,19.86 L98.22,16.74 Z" id="形状"></path>
            </g>
            <path d="M32.40625,48.6125 C32.40625,75.4604424 54.1708076,97.225 81.01875,97.225 C107.866692,97.225 129.63125,75.4604424 129.63125,48.6125 C129.63125,21.7645576 107.866692,0 81.01875,0 C54.1708076,0 32.40625,21.7645576 32.40625,48.6125 Z" id="路径" fill="#036C70"></path>
            <path d="M87.5,93.98125 C87.5,117.247971 106.361404,136.109375 129.628125,136.109375 C152.894846,136.109375 171.75625,117.247971 171.75625,93.98125 C171.75625,70.714529 152.894846,51.853125 129.628125,51.853125 C106.361404,51.853125 87.5,70.714529 87.5,93.98125 L87.5,93.98125 Z" id="路径" fill="#1A9BA1"></path>
            <path d="M51.853125,129.63125 C51.853125,142.366652 58.6473807,154.134649 69.6765623,160.50235 C80.7057439,166.870051 94.2942561,166.870051 105.323438,160.50235 C116.352619,154.134649 123.146875,142.366652 123.146875,129.63125 C123.146875,116.895848 116.352619,105.127851 105.323438,98.7601502 C94.2942561,92.3924492 80.7057439,92.3924492 69.6765623,98.7601502 C58.6473808,105.127851 51.853125,116.895848 51.853125,129.63125 L51.853125,129.63125 Z" id="路径" fill="#37C6D0"></path>
            <path d="M90.625,47.790625 L90.625,130.103125 C90.6319357,130.523229 90.5899872,130.942714 90.5,131.353125 C89.9125388,134.844239 86.8839243,137.396739 83.34375,137.38442 L52.6875,137.38442 C52.46875,136.353125 52.28125,135.321875 52.15625,134.259375 C51.9991647,133.224382 51.905241,132.180784 51.875,131.134375 C51.84375,130.634375 51.84375,130.134375 51.84375,129.634375 C51.8454136,115.217669 60.5269722,102.219994 73.84375,96.696875 C50.031603,93.1312524 32.4114813,72.6807491 32.4059881,48.603125 C32.397111,45.8902467 32.6271683,43.1818446 33.09375,40.5093642 L83.34375,40.5093642 C85.2758751,40.5060495 87.1298224,41.272111 88.4960432,42.6383318 C89.862264,44.0045526 90.6283255,45.8584999 90.625,47.790625 Z" id="路径" fill="#000000" opacity="0.2"></path>
            <path d="M93.75,47.790625 L93.75,123.853125 C93.6957669,129.577724 89.0683486,134.205142 83.34375,134.259375 L52.15625,134.259375 C51.9991647,133.224382 51.905241,132.180784 51.875,131.134375 C51.84375,130.634375 51.84375,130.134375 51.84375,129.634375 C51.8454136,115.217669 60.5269722,102.219994 73.84375,96.696875 C50.031603,93.1312524 32.4114813,72.6807491 32.4059881,48.603125 C32.397111,45.8902467 32.6271683,43.1818446 33.09375,40.509375 C33.25,39.446875 33.46875,38.415625 33.71875,37.384375 L83.34375,37.384375 C89.0824217,37.4049439 93.7294311,42.0519533 93.75,47.790625 Z" id="路径" fill="#000000" opacity="0.1"></path>
            <path d="M90.6250108,47.790625 L90.6250108,123.853125 C90.6283255,125.78525 89.862264,127.639197 88.4960432,129.005418 C87.1298224,130.371639 85.2758751,131.137701 83.34375,131.134386 L51.875,131.134386 C51.84375,130.634375 51.84375,130.134375 51.84375,129.634375 C51.8454136,115.217669 60.5269722,102.219994 73.84375,96.696875 C50.031603,93.1312524 32.4114813,72.6807491 32.4059881,48.603125 C32.397111,45.8902467 32.6271683,43.1818446 33.09375,40.5093642 L83.34375,40.5093642 C85.2758751,40.5060495 87.1298224,41.272111 88.4960432,42.6383318 C89.862264,44.0045526 90.6283255,45.8584999 90.6250108,47.790625 Z" id="路径" fill="#000000" opacity="0.2"></path>
            <path d="M87.5000108,47.790625 L87.5000108,123.853125 C87.5033255,125.78525 86.737264,127.639197 85.3710432,129.005418 C84.0048224,130.371639 82.1508751,131.137701 80.21875,131.134386 L51.875,131.134386 C51.84375,130.634375 51.84375,130.134375 51.84375,129.634375 C51.8454136,115.217669 60.5269722,102.219994 73.84375,96.696875 C50.031603,93.1312524 32.4114813,72.6807491 32.4059881,48.603125 C32.397111,45.8902467 32.6271683,43.1818446 33.09375,40.5093642 L80.21875,40.5093642 C82.1508751,40.5060495 84.0048224,41.272111 85.3710432,42.6383318 C86.737264,44.0045526 87.5033255,45.8584999 87.5000108,47.790625 Z" id="路径" fill="#000000" opacity="0.1"></path>
            <path d="M7.290625,40.509375 L80.209375,40.509375 C85.0697917,40.509375 87.5,42.9395833 87.5,47.8 L87.5,120.71875 C87.5,125.579167 85.0697917,128.009375 80.209375,128.009375 L7.290625,128.009375 C2.43020833,128.009375 0,125.579167 0,120.71875 L0,47.8 C0,42.9395833 2.43020833,40.509375 7.290625,40.509375 Z" id="路径" fill="#038387"></path>
            <path d="M32.40625,84.540625 C30.8085357,83.4825237 29.4744197,82.0725084 28.50625,80.41875 C27.5651032,78.690751 27.0962178,76.745146 27.146875,74.778125 C27.0643593,72.1164597 27.9629974,69.5173047 29.671875,67.475 C31.4679456,65.4311358 33.7893849,63.9180934 36.384375,63.1 C39.3426986,62.1246749 42.4414582,61.6432322 45.55625,61.675 C49.6515958,61.5248599 53.7413264,62.0982262 57.6375,63.36875 L57.6375,71.9 C55.9431597,70.8727839 54.0976439,70.1187588 52.16875,69.665625 C50.0776634,69.1508113 47.9316473,68.8926597 45.778125,68.896875 C43.5086837,68.8152667 41.2539796,69.2928218 39.2125,70.2875 C37.6354313,70.9668999 36.6117196,72.517197 36.60625,74.234375 C36.5962629,75.2746447 36.9919525,76.2778804 37.709375,77.03125 C38.5618031,77.9152596 39.5690788,78.6354987 40.68125,79.15625 C41.9270833,79.775 43.7864583,80.5958333 46.259375,81.61875 C46.5325307,81.7051092 46.7988895,81.8116527 47.05625,81.9375 C49.4944453,82.8915425 51.8467372,84.0520065 54.0875,85.40625 C55.7851715,86.4530094 57.2097364,87.8882853 58.24375,89.59375 C59.3082022,91.52247 59.8267896,93.7048587 59.74375,95.90625 C59.8642566,98.6382294 59.0288458,101.326794 57.38125,103.509375 C55.7349754,105.516707 53.5340712,106.994845 51.053125,107.759375 C48.1381114,108.674419 45.0955436,109.117512 42.040625,109.071875 C39.304487,109.083317 36.5724688,108.858524 33.875,108.4 C31.5939562,108.036142 29.3666462,107.39167 27.24375,106.48125 L27.24375,97.46875 C29.276041,98.918548 31.5469191,100.000573 33.953125,100.665625 C36.3452497,101.411244 38.8321499,101.809064 41.3375,101.846875 C43.65683,101.994457 45.9721783,101.502634 48.03125,100.425 C49.4616023,99.6037302 50.3266255,98.0644448 50.284375,96.415625 C50.2931931,95.2645814 49.8381357,94.1584768 49.021875,93.346875 C48.0046337,92.3494512 46.8280529,91.5288019 45.540625,90.91875 C44.059375,90.1729167 41.8697917,89.1927083 38.971875,87.978125 C36.6736638,87.053071 34.473234,85.9015616 32.403125,84.540625 L32.40625,84.540625 Z" id="路径" fill="#FFFFFF"></path>
        </g>
    </g>
</svg>