<svg t="1642829969150" class="icon" viewBox="0 0 1024 1024" version="1.1" xmlns="http://www.w3.org/2000/svg" p-id="15405" width="200" height="200"><path d="M478.816 329.488m-248.896 0a248.896 248.896 0 1 0 497.792 0 248.896 248.896 0 1 0-497.792 0Z" fill="#036C70" p-id="15406"></path><path d="M727.696 561.776m-215.696 0a215.696 215.696 0 1 0 431.392 0 215.696 215.696 0 1 0-431.392 0Z" fill="#1A9BA1" p-id="15407"></path><path d="M512 744.304m-182.512 0a182.512 182.512 0 1 0 365.024 0 182.512 182.512 0 1 0-365.024 0Z" fill="#37C6D0" p-id="15408"></path><path d="M528 325.28v421.44a27.744 27.744 0 0 1-0.64 6.4A37.024 37.024 0 0 1 490.72 784h-156.96c-1.12-5.28-2.08-10.56-2.72-16a132.048 132.048 0 0 1-1.44-16c-0.16-2.56-0.16-5.12-0.16-7.68a182.592 182.592 0 0 1 112.64-168.64 249.04 249.04 0 0 1-212.16-246.24 236.32 236.32 0 0 1 3.52-41.44h257.28A37.216 37.216 0 0 1 528 325.28z" opacity=".2" p-id="15409"></path><path d="M544 325.28v389.44A53.792 53.792 0 0 1 490.72 768h-159.68a132.048 132.048 0 0 1-1.44-16c-0.16-2.56-0.16-5.12-0.16-7.68a182.592 182.592 0 0 1 112.64-168.64 249.04 249.04 0 0 1-212.16-246.24 236.32 236.32 0 0 1 3.52-41.44c0.8-5.44 1.92-10.72 3.2-16h254.08A53.472 53.472 0 0 1 544 325.28z" opacity=".1" p-id="15410"></path><path d="M528 325.28v389.44A37.216 37.216 0 0 1 490.72 752H329.6c-0.16-2.56-0.16-5.12-0.16-7.68a182.592 182.592 0 0 1 112.64-168.64 249.04 249.04 0 0 1-212.16-246.24 236.32 236.32 0 0 1 3.52-41.44h257.28A37.216 37.216 0 0 1 528 325.28z" opacity=".2" p-id="15411"></path><path d="M512 325.28v389.44A37.216 37.216 0 0 1 474.72 752H329.6c-0.16-2.56-0.16-5.12-0.16-7.68a182.592 182.592 0 0 1 112.64-168.64 249.04 249.04 0 0 1-212.16-246.24 236.32 236.32 0 0 1 3.52-41.44h241.28A37.216 37.216 0 0 1 512 325.28z" opacity=".1" p-id="15412"></path><path d="M64 288m37.328 0l373.344 0q37.328 0 37.328 37.328l0 373.344q0 37.328-37.328 37.328l-373.344 0q-37.328 0-37.328-37.328l0-373.344q0-37.328 37.328-37.328Z" fill="#038387" p-id="15413"></path><path d="M229.92 513.44a64.24 64.24 0 0 1-19.968-21.104 57.296 57.296 0 0 1-6.96-28.88 55.584 55.584 0 0 1 12.928-37.392 76.288 76.288 0 0 1 34.368-22.4 145.248 145.248 0 0 1 46.96-7.296 178.432 178.432 0 0 1 61.856 8.672v43.68a96.64 96.64 0 0 0-28-11.44 135.76 135.76 0 0 0-32.72-3.936 70.928 70.928 0 0 0-33.616 7.12 22.08 22.08 0 0 0-13.344 20.208 20.48 20.48 0 0 0 5.648 14.32 51.44 51.44 0 0 0 15.216 10.88q9.568 4.752 28.56 12.608a29.6 29.6 0 0 1 4.08 1.632 235.52 235.52 0 0 1 36 17.76 64.432 64.432 0 0 1 21.28 21.44 62.048 62.048 0 0 1 7.68 32.32 60.208 60.208 0 0 1-12.096 38.928 67.68 67.68 0 0 1-32.4 21.76 146.752 146.752 0 0 1-46.144 6.72 243.408 243.408 0 0 1-41.808-3.44 143.488 143.488 0 0 1-33.952-9.824v-46.144a109.28 109.28 0 0 0 34.352 16.368 133.84 133.84 0 0 0 37.808 6.048 65.008 65.008 0 0 0 34.272-7.28 22.992 22.992 0 0 0 11.536-20.528 21.92 21.92 0 0 0-6.464-15.712 65.552 65.552 0 0 0-17.824-12.432q-11.376-5.728-33.632-15.056a191.152 191.152 0 0 1-33.632-17.6z" fill="#FFFFFF" p-id="15414"></path></svg>