<svg class="icon" t="1641907329198" viewBox="0 0 1024 1024" version="1.1" xmlns="http://www.w3.org/2000/svg" p-id="7627" xmlns:xlink="http://www.w3.org/1999/xlink" width="18" height="18"><defs><style type="text/css"></style></defs><path d="M843.648 981.333333H89.6A46.08 46.08 0 0 1 42.666667 934.485333V183.253333a46.08 46.08 0 0 1 46.933333-46.890666H512c26.581333 0 46.933333 20.309333 46.933333 46.890666A46.08 46.08 0 0 1 512 230.101333H136.533333v657.493334h660.181334v-373.248a46.08 46.08 0 0 1 46.933333-46.848c26.624 0 46.933333 20.309333 46.933333 46.848v418.56c0 26.581333-20.309333 48.426667-46.933333 48.426666zM934.4 420.650667a46.08 46.08 0 0 1-46.933333-46.890667V136.362667h-237.781334a46.08 46.08 0 0 1-46.933333-46.848A46.08 46.08 0 0 1 649.685333 42.666667H934.4c26.581333 0 46.933333 20.309333 46.933333 46.848V373.76c0 25.002667-21.888 46.890667-46.933333 46.890667z" p-id="7628"></path><path d="M374.314667 695.509333c-12.501333 0-23.466667-4.693333-32.853334-14.08-18.773333-18.730667-18.773333-48.384 0-65.578666L879.658667 78.592c18.773333-18.773333 48.469333-18.773333 65.706666 0 18.773333 18.773333 18.773333 48.426667 0 65.578667L407.168 681.472c-9.386667 9.386667-20.309333 14.08-32.853333 14.08z" p-id="7629"></path></svg>