<svg t="1655438385836" class="icon" viewBox="0 0 1402 1024" version="1.1" xmlns="http://www.w3.org/2000/svg" p-id="3296"
     width="200" height="200">
    <path d="M511.65696 471.998464l140.791808-140.792832c11.108352-11.108352 29.118464-11.108352 40.226816 0 11.108352 11.108352 11.108352 29.118464 0 40.226816L551.882752 512.22528l140.792832 140.792832c11.108352 11.108352 11.108352 29.118464 0 40.226816-11.108352 11.108352-29.118464 11.108352-40.226816 0L511.65696 552.452096 370.864128 693.244928c-11.108352 11.108352-29.118464 11.108352-40.226816 0-11.108352-11.108352-11.108352-29.118464 0-40.226816L471.42912 512.22528 330.637312 371.432448c-11.108352-11.108352-11.108352-29.118464 0-40.226816 11.108352-11.108352 29.118464-11.108352 40.226816 0l140.792832 140.792832z"
          fill="#000000" p-id="3297"></path>
    <path d="M512 910.222336c219.931648 0 398.222336-178.290688 398.222336-398.222336 0-219.931648-178.290688-398.222336-398.222336-398.222336-219.931648 0-398.222336 178.290688-398.222336 398.222336 0 219.931648 178.290688 398.222336 398.222336 398.222336z m0 56.88832C260.64896 967.110656 56.889344 763.35104 56.889344 512S260.64896 56.889344 512 56.889344 967.110656 260.64896 967.110656 512 763.35104 967.110656 512 967.110656z"
          fill="#000000" p-id="3298"></path>
</svg>