<svg t="1642829350870" class="icon" viewBox="0 0 1300 1024" version="1.1" xmlns="http://www.w3.org/2000/svg" p-id="4709"
     width="200" height="200">
    <path d="M680.554667 508.586667l-38.464-38.165334-102.997334 103.808V85.333333h-54.186666v488.896L381.866667 470.421333l-38.464 38.186667L512 678.442667 680.533333 508.586667z"></path><path d="M340.224 294.4H341.333333v51.2c-30.293333 0-51.477333 0-67.989333 1.365333-16.192 1.322667-25.6 3.797333-32.810667 7.466667a81.066667 81.066667 0 0 0-35.434666 35.413333c-3.669333 7.210667-6.144 16.64-7.466667 32.853334C196.266667 439.189333 196.266667 460.373333 196.266667 490.666667v213.333333c0 30.293333 0 51.477333 1.365333 67.968 1.322667 16.213333 3.797333 25.642667 7.466667 32.853333a81.066667 81.066667 0 0 0 35.413333 35.413334c7.210667 3.669333 16.64 6.144 32.853333 7.466666 16.490667 1.344 37.674667 1.365333 67.968 1.365334h341.333334c30.293333 0 51.477333 0 67.968-1.365334 16.213333-1.322667 25.642667-3.797333 32.832-7.466666a81.066667 81.066667 0 0 0 35.413333-35.413334c3.690667-7.210667 6.165333-16.64 7.466667-32.853333 1.365333-16.490667 1.386667-37.674667 1.386666-67.968V490.666667c0-30.293333-0.021333-51.477333-1.365333-67.968-1.322667-16.213333-3.797333-25.642667-7.466667-32.853334a81.066667 81.066667 0 0 0-35.434666-35.413333c-7.189333-3.669333-16.64-6.144-32.832-7.466667-16.490667-1.344-37.674667-1.365333-67.968-1.365333v-51.2h1.088c28.949333 0 52.224 0 71.04 1.536 19.370667 1.578667 36.288 4.906667 51.925333 12.885333a132.266667 132.266667 0 0 1 57.792 57.813334c7.957333 15.594667 11.306667 32.512 12.885333 51.882666 1.536 18.837333 1.536 42.112 1.536 71.04v215.530667c0 28.949333 0 52.224-1.536 71.04-1.6 19.392-4.906667 36.309333-12.885333 51.925333a132.266667 132.266667 0 0 1-57.813333 57.813334c-15.616 7.936-32.533333 11.285333-51.882667 12.864-18.837333 1.536-42.112 1.536-71.04 1.536H340.202667c-28.928 0-52.202667 0-71.04-1.536-19.370667-1.578667-36.266667-4.906667-51.904-12.885334a132.266667 132.266667 0 0 1-57.813334-57.813333c-7.936-15.594667-11.285333-32.512-12.864-51.882667-1.536-18.837333-1.536-42.112-1.536-71.04V489.557333c0-28.928 0-52.202667 1.536-71.04 1.578667-19.370667 4.906667-36.266667 12.885334-51.904a132.266667 132.266667 0 0 1 57.813333-57.813333c15.594667-7.936 32.512-11.285333 51.882667-12.864 18.837333-1.536 42.112-1.536 71.04-1.536z"></path>
</svg>