<svg t="1642829350870" class="icon" viewBox="0 0 1402 1024" version="1.1" xmlns="http://www.w3.org/2000/svg" p-id="4709"
     width="200" height="200">
    <path d="M362.666667 145.066667h298.666666v51.2H362.666667zM422.4 426.666667h51.2v277.333333h-51.2zM550.4 426.666667h51.2v277.333333h-51.2z"></path>
    <path d="M192 273.066667v51.2h59.733333v381.866666c0 27.733333 0 51.2 2.133334 70.4 2.133333 19.2 4.266667 36.266667 12.8 51.2 12.8 25.6 34.133333 46.933333 59.733333 59.733334 14.933333 8.533333 32 10.666667 51.2 12.8 19.2 2.133333 40.533333 2.133333 70.4 2.133333h132.266667c27.733333 0 51.2 0 70.4-2.133333 19.2-2.133333 36.266667-4.266667 51.2-12.8 25.6-12.8 46.933333-34.133333 59.733333-59.733334 8.533333-14.933333 10.666667-32 12.8-51.2 2.133333-19.2 2.133333-40.533333 2.133333-70.4V324.266667H832v-51.2H192z m529.066667 433.066666c0 29.866667 0 51.2-2.133334 66.133334-2.133333 14.933333-4.266667 25.6-6.4 32-8.533333 14.933333-21.333333 27.733333-36.266666 36.266666-6.4 4.266667-17.066667 6.4-32 6.4-17.066667 2.133333-36.266667 2.133333-66.133334 2.133334H448c-29.866667 0-51.2 0-66.133333-2.133334-14.933333-2.133333-25.6-4.266667-32-6.4-14.933333-8.533333-27.733333-21.333333-36.266667-36.266666-4.266667-6.4-6.4-17.066667-6.4-32-2.133333-17.066667-2.133333-36.266667-2.133333-66.133334V324.266667h418.133333v381.866666z"></path>
</svg>