<svg t="1659779241057" class="icon" viewBox="0 0 1500 1024" version="1.1" xmlns="http://www.w3.org/2000/svg" p-id="9132" width="128" height="128"><path d="M800 384c16.954 0 32.986 6.696 45.145 18.855C857.304 415.014 864 431.046 864 448v384c0 16.954-6.696 32.986-18.855 45.145C832.986 889.304 816.954 896 800 896H224c-16.954 0-32.986-6.696-45.145-18.855C166.696 864.986 160 848.954 160 832V448c0-16.954 6.696-32.986 18.855-45.145C191.014 390.696 207.046 384 224 384h576m0-64H224c-70.4 0-128 57.6-128 128v384c0 70.4 57.6 128 128 128h576c70.4 0 128-57.6 128-128V448c0-70.4-57.6-128-128-128zM832 256H192c-17.6 0-32-14.4-32-32s14.4-32 32-32h640c17.6 0 32 14.4 32 32s-14.4 32-32 32zM768 128H256c-17.6 0-32-14.4-32-32s14.4-32 32-32h512c17.6 0 32 14.4 32 32s-14.4 32-32 32z" p-id="9133"></path><path d="M662.51 649.49c-12.445-12.445-32.81-12.445-45.255 0L544 722.745V480c0-17.6-14.4-32-32-32s-32 14.4-32 32v242.745l-73.255-73.255c-12.445-12.445-32.81-12.445-45.255 0s-12.445 32.81 0 45.255L489.255 822.51a31.834 31.834 0 0 0 4.489 3.723C498.931 829.861 505.226 832 512 832c6.774 0 13.069-2.139 18.256-5.767a31.834 31.834 0 0 0 4.489-3.723L662.51 694.745c12.445-12.445 12.445-32.81 0-45.255z" p-id="9134"></path></svg>