<?xml version="1.0" encoding="UTF-8"?>
<svg width="138px" height="33px" viewBox="0 0 138 33" version="1.1" xmlns="http://www.w3.org/2000/svg" xmlns:xlink="http://www.w3.org/1999/xlink">
    <title>U-File</title>
    <g id="页面-1" stroke="none" stroke-width="1" fill="none" fill-rule="evenodd">
        <g id="U-File" transform="translate(0.010000, 0.696000)" fill="#409EFF" fill-rule="nonzero">
            <path d="M0,0.602 L0,19.651 C0,23.65 1.118,26.703 3.397,28.853 C5.547,30.874 8.686,31.906 12.771,31.906 C16.813,31.906 19.952,30.874 22.188,28.81 C24.424,26.703 25.542,23.65 25.542,19.651 L25.542,0.602 L20.511,0.602 L20.511,19.737 C20.511,22.403 19.866,24.338 18.662,25.628 C17.415,26.875 15.437,27.52 12.771,27.52 C10.062,27.52 8.084,26.875 6.88,25.628 C5.633,24.338 5.031,22.403 5.031,19.737 L5.031,0.602 L0,0.602 Z" id="路径"></path>
            <polygon id="路径" points="33.153 18.146 33.153 22.188 54.868 22.188 54.868 18.146"></polygon>
            <polygon id="路径" points="62.479 0.602 62.479 31.304 67.51 31.304 67.51 17.716 82.517 17.716 82.517 13.416 67.51 13.416 67.51 4.902 83.42 4.902 83.42 0.602"></polygon>
            <path d="M92.837,0 C91.891,0 91.117,0.301 90.472,0.903 C89.827,1.505 89.526,2.279 89.526,3.225 C89.526,4.171 89.827,4.945 90.472,5.59 C91.117,6.192 91.891,6.493 92.837,6.493 C93.783,6.493 94.557,6.192 95.202,5.59 C95.847,4.988 96.191,4.171 96.191,3.225 C96.191,2.279 95.847,1.505 95.245,0.903 C94.6,0.301 93.783,0 92.837,0 Z M90.386,9.073 L90.386,31.304 L95.288,31.304 L95.288,9.073 L90.386,9.073 Z" id="形状"></path>
            <polygon id="路径" points="104.232 0 104.232 31.304 109.134 31.304 109.134 0"></polygon>
            <path d="M126.635,8.471 C123.324,8.471 120.701,9.589 118.809,11.868 C116.831,14.104 115.885,16.856 115.885,20.167 C115.885,23.865 116.917,26.746 118.981,28.853 C120.916,30.874 123.539,31.906 126.85,31.906 C129.817,31.906 132.268,31.046 134.246,29.369 C135.794,27.993 136.826,26.23 137.342,24.166 L132.44,24.166 C131.838,25.413 131.193,26.316 130.462,26.875 C129.516,27.563 128.312,27.907 126.807,27.907 C125.044,27.907 123.668,27.348 122.722,26.273 C121.776,25.198 121.217,23.607 121.045,21.543 L137.686,21.543 C137.686,17.544 136.783,14.405 135.02,12.169 C133.085,9.675 130.29,8.471 126.635,8.471 Z M126.764,12.47 C130.204,12.47 132.139,14.233 132.569,17.845 L121.131,17.845 C121.432,16.082 122.034,14.749 122.937,13.846 C123.883,12.9 125.13,12.47 126.764,12.47 Z" id="形状"></path>
        </g>
    </g>
</svg>