<svg t="1642829485266" class="icon" viewBox="0 0 1024 1024" version="1.1" xmlns="http://www.w3.org/2000/svg" p-id="6316" width="100" height="100"><path d="M819.733081 102.739233a479.288216 479.288216 0 0 0-59.60814-38.284903 33.923332 33.923332 0 0 0-43.131093 8.723143L589.054425 242.309513l-7.269285 13.084713a70.269759 70.269759 0 0 1-59.123521 27.623285h-25.20019a228.255561 228.255561 0 0 0-213.71699 239.886417 25.200189 25.200189 0 0 0 14.538571 21.807856 60.092759 60.092759 0 1 1-82.385234 71.723616v-3.876952a60.577378 60.577378 0 0 1 11.630856-48.461903 36.831046 36.831046 0 0 0 7.753905-26.654046 279.140558 279.140558 0 0 1 276.717463-303.37151 51.854236 51.854236 0 0 0 41.192617-20.838618l117.762423-156.531945a21.323237 21.323237 0 0 0-11.630856-33.923332A511.75769 511.75769 0 0 0 263.39044 959.54567a33.923332 33.923332 0 0 0 43.615712-9.207762L436.399432 780.721249l8.723143-12.115475a70.754378 70.754378 0 0 1 59.123521-27.623285 218.56318 218.56318 0 0 0 25.200189 0 230.194037 230.194037 0 0 0 168.162802-90.623757 225.832466 225.832466 0 0 0 45.554188-149.26266 25.200189 25.200189 0 0 0-14.538571-21.807856 60.092759 60.092759 0 0 1-35.861808-43.131093 60.092759 60.092759 0 0 1 117.277804-27.138666 14.053952 14.053952 0 0 0 0 4.361571 61.061997 61.061997 0 0 1-11.630856 48.461903 36.831046 36.831046 0 0 0-7.753905 26.654046 279.140558 279.140558 0 0 1-276.717463 303.37151 51.854236 51.854236 0 0 0-41.192617 20.838618L355.952674 969.23805a21.807856 21.807856 0 0 0 11.146238 33.923332 512.24231 512.24231 0 0 0 452.634169-900.422149z" fill="#009FFF" p-id="6317"></path></svg>