<?xml version="1.0" standalone="no"?><!DOCTYPE svg PUBLIC "-//W3C//DTD SVG 1.1//EN" "http://www.w3.org/Graphics/SVG/1.1/DTD/svg11.dtd"><svg t="1652695364897" class="icon" viewBox="0 0 1024 1024" version="1.1" xmlns="http://www.w3.org/2000/svg" p-id="1631" xmlns:xlink="http://www.w3.org/1999/xlink" width="200" height="200"><defs><style type="text/css"></style></defs><path d="M204.8 0h610.014q204.8 0 204.8 204.8v607.573q0 204.8-204.8 204.8H204.8q-204.8 0-204.8-204.8V204.8Q0 0 204.8 0z" fill="#51BCFF" p-id="1632"></path><path d="M510.686 153.6a47.005 47.005 0 0 0 7.065 2.355c21.214 3.652 33.997 17.545 34.765 37.974 0.785 21.555-10.718 36.608-32.12 41.352a83.066 83.066 0 0 1-18.141 1.946c-58.18 0.17-116.36 0-174.54 0.256-62.311 0.341-91.649 28.16-92.041 90.043-0.785 123.392-0.393 246.801 0 370.21a138.088 138.088 0 0 0 5.785 38.674c10.308 34.457 39.373 52.104 84.617 52.258 70.895 0.256 141.79 0 212.685 0 51.61 0 103.236 0.17 154.914-0.137a158.72 158.72 0 0 0 32.307-3.242c37.393-8.192 59.733-35.772 60.399-75.213 0.682-48.094 0.17-96.222 0.392-144.401 0-7.851 0.785-15.702 2.304-23.399a39.117 39.117 0 0 1 63.437-22.477c6.332 5.257 11.947 11.35 17.886 17.067v65.639a96.293 96.293 0 0 0-2.1 13.602c-0.665 36.761-0.392 73.352-1.791 109.994-1.878 49.886-25.378 88.354-66.048 115.678-16.282 10.923-35.567 17.408-53.47 25.924H489.677a111.53 111.53 0 0 0-15.172-2.116c-61.202-0.392-122.403-0.341-183.604-1.04-11.605-0.137-24.012-0.922-34.594-5.036-50.978-19.865-84.019-56.49-97.69-109.84-1.604-6.196-3.344-12.34-5.017-18.5V295.39a16.981 16.981 0 0 0 2.133-4.54c11.384-69.24 57.976-118.289 126.242-132.66 8.756-1.962 17.682-3.071 26.54-4.59h202.17z m-45.841 217.941l51.097 50.313c-3.942 4.215-7.884 8.755-12.22 13.141-33.962 34.134-67.788 68.267-102.16 101.956-11.896 11.623-14.353 24.064-8.773 39.186 11.06 29.934 31.062 51.131 60.604 63.317 20.77 8.55 29.935 6.741 45.824-9.148 34.304-34.304 68.608-68.625 102.895-102.98 3.106-3.09 5.751-6.588 7.458-8.55l52.77 52.872c-7.867 7.885-18.21 17.63-28.33 27.63-28.877 28.639-58.027 57.004-86.375 86.153-31.385 32.188-68.062 40.585-110.285 26.642-74.922-24.815-122.555-87.689-121.344-159.54a77.653 77.653 0 0 1 22.99-55.398 27197.323 27197.323 0 0 1 121.497-121.566c1.485-1.621 3.191-2.935 4.352-4.045z m202.018-1.484c16.401 19.507 16.981 29.934-1.126 48.674a3692.171 3692.171 0 0 1-99.209 99.02c-6.69 6.622-16.93 9.387-21.316 11.657-20.992-0.683-32.188-8.363-38.434-22.135-6.69-14.763-2.782-28.468 8.106-39.68 25.873-26.59 52.156-52.822 78.336-79.156 7.049-7.116 14.302-14.046 21.607-20.992 17.664-16.725 36.54-15.77 52.036 2.612z m87.552-192.376c59.7 23.62 98.202 67.02 109.312 131.516 4.727 27.306-0.154 54.852-19.183 75.059-42.496 45.107-87.313 88.047-130.509 131.294l-51.746-52.514c30.43-29.355 62.55-60.4 94.532-91.222 8.5-8.192 16.948-16.4 25.259-24.815 9.557-9.608 11.913-20.838 7.817-33.757-10.377-32.598-32.683-54.136-63.01-67.755-19.644-8.755-34.714 1.297-48.01 14.421-33.57 33.212-66.832 66.748-100.266 100.113-3.123 3.021-6.314 5.854-7.526 6.964l-54.358-48.675c41.353-41.591 80.572-81.97 120.781-121.258 34.134-33.16 75.094-35.943 116.907-19.37z" fill="#FFFFFF" p-id="1633"></path></svg>
