<?xml version="1.0" encoding="UTF-8"?>
<svg width="287px" height="252px" viewBox="0 0 287 252" version="1.1" xmlns="http://www.w3.org/2000/svg" xmlns:xlink="http://www.w3.org/1999/xlink">
    <title>logo 纵向</title>
    <g id="页面-1" stroke="none" stroke-width="1" fill="none" fill-rule="evenodd">
        <g id="logo-纵向" fill-rule="nonzero">
            <g id="ZFILE" transform="translate(8.300000, 167.600000)">
                <polygon id="路径" fill="#595BB3" points="1.42108547e-14 69.4 55.5 69.4 55.5 56.2 18.3 56.2 18.3 55.6 52.9 13.1 52.9 -2.84217094e-14 1.9 -2.84217094e-14 1.9 13.1 34.1 13.1 34.2 13.7 1.42108547e-14 55.8"></polygon>
                <polygon id="路径" fill="#000000" points="115.4 13.2 115.4 -2.84217094e-14 73 -2.84217094e-14 73 69.4 88.2 69.4 88.2 42.4 113.4 42.4 113.4 29.3 88.2 29.3 88.2 13.2"></polygon>
                <polygon id="路径" fill="#000000" points="132.6 69.4 147.8 69.4 147.8 -2.84217094e-14 132.6 -2.84217094e-14"></polygon>
                <polygon id="路径" fill="#000000" points="184.1 56.2 184.1 -2.84217094e-14 168.9 -2.84217094e-14 168.9 69.4 211.7 69.4 211.7 56.2"></polygon>
                <polygon id="路径" fill="#000000" points="242.6 56.2 242.6 40.2 267.8 40.2 267.8 27.5 242.6 27.5 242.6 13.2 269.8 13.2 269.8 -2.84217094e-14 227.4 -2.84217094e-14 227.4 69.4 271.2 69.4 271.2 56.2"></polygon>
            </g>
            <path d="M155.303566,34.8843743 C143.014443,29.7463611 128.839849,32.5252418 119.400426,41.9230624 C109.961003,51.3208831 107.119541,65.4830638 112.203222,77.7947622 C117.286904,90.1064605 129.29251,98.1383638 142.612485,98.1383638 C151.319007,98.1578447 159.676691,94.7178188 165.846729,88.5749741 C172.016767,82.4321294 175.493676,74.0897209 175.513125,65.3831971 C175.57119,52.0633514 167.59269,40.0223874 155.303566,34.8843743 Z" id="路径" fill="#F4CA1C"></path>
            <path d="M234.965485,82.8451971 C234.902832,69.0287019 228.809887,55.9284521 218.283833,46.9784997 C207.757779,38.0285474 193.848266,34.1213759 180.201485,36.2811971 C174.82387,18.3284796 159.76454,4.9549997 141.30214,1.73652475 C122.839739,-1.4819502 104.143536,6.00706534 93.0084849,21.0811971 C86.5932216,29.7336192 83.2301823,40.2701107 83.4464849,51.0391971 C62.9603859,54.3195973 48.4484851,72.812069 50.1328507,93.4906615 C51.8172162,114.169254 69.1305536,130.069415 89.8774849,129.991484 L192.958485,129.991484 C193.963224,129.984369 194.951497,129.735329 195.839485,129.265197 C218.406796,125.316997 234.894863,105.75517 234.965485,82.8451971 L234.965485,82.8451971 Z M187.615485,117.474699 L89.8774849,117.474699 C80.1121566,117.533383 71.0631901,112.357596 66.1633607,103.9103 C61.2635313,95.4630038 61.2635313,85.0383905 66.1633607,76.5910944 C71.0631901,68.1437983 80.1121566,62.9680114 89.8774849,63.0271971 C90.4535248,63.0187072 91.0256184,62.9305375 91.5774849,62.7651971 C94.7965405,62.0685748 96.9207179,58.9910781 96.4304849,55.7341971 C94.9630708,46.1041774 97.3863191,36.2859503 103.165872,28.444563 C108.945424,20.6031757 117.606596,15.3826562 127.239485,13.9341971 C145.453006,11.1172622 162.942487,22.2047025 168.165485,39.8791971 C151.224797,47.4677777 140.306113,64.2825514 140.265485,82.8451971 C140.265485,86.3163068 143.079375,89.1301971 146.550485,89.1301971 C150.021595,89.1301971 152.835485,86.3163068 152.835485,82.8451971 C152.774757,68.7650048 161.209669,56.0374193 174.200642,50.6069386 C187.191615,45.1764578 202.17514,48.114679 212.153069,58.0492876 C222.130997,67.9838962 225.134384,82.9544952 219.760479,95.9689735 C214.386573,108.983452 201.695808,117.474699 187.615485,117.474699 L187.615485,117.474699 Z" id="形状" fill="#595BB3"></path>
        </g>
    </g>
</svg>