<?xml version="1.0" encoding="UTF-8"?>
<svg width="538px" height="143px" viewBox="0 0 538 143" version="1.1" xmlns="http://www.w3.org/2000/svg" xmlns:xlink="http://www.w3.org/1999/xlink">
    <title>logo 横向</title>
    <g id="页面-1" stroke="none" stroke-width="1" fill="none" fill-rule="evenodd">
        <g id="logo-横向" fill-rule="nonzero">
            <g id="ZFILE" transform="translate(248.300000, 38.600000)">
                <path d="M52.9,0 L52.9,13.1 L18.3,55.6 L18.3,56.2 L55.5,56.2 L55.5,69.4 L0,69.4 L0,55.8 L34.2,13.7 L34.1,13.1 L1.9,13.1 L1.9,0 L52.9,0 Z M115.4,0 L115.4,13.2 L88.2,13.2 L88.2,29.3 L113.4,29.3 L113.4,42.4 L88.2,42.4 L88.2,69.4 L73,69.4 L73,0 L115.4,0 Z" id="路径-2" fill="#595BB3"></path>
                <polygon id="路径" fill="#000000" points="132.6 69.4 147.8 69.4 147.8 0 132.6 0"></polygon>
                <polygon id="路径" fill="#000000" points="184.1 56.2 184.1 0 168.9 0 168.9 69.4 211.7 69.4 211.7 56.2"></polygon>
                <polygon id="路径" fill="#000000" points="242.6 56.2 242.6 40.2 267.8 40.2 267.8 27.5 242.6 27.5 242.6 13.2 269.8 13.2 269.8 0 227.4 0 227.4 69.4 271.2 69.4 271.2 56.2"></polygon>
            </g>
            <path d="M128.512807,71.3831971 C128.57119,58.0633514 120.59269,46.0223874 108.303566,40.8843743 C96.0144427,35.7463611 81.8398493,38.5252418 72.4004264,47.9230624 C62.9610034,57.3208831 60.1195406,71.4830638 65.2032225,83.7947622 C70.2869044,96.1064605 82.2925097,104.138281 95.6124849,104.138281 C104.319007,104.157845 112.676691,100.717819 118.846729,94.5749741 C125.016767,88.4321294 128.493676,80.0897209 128.512807,71.3831971 L128.512807,71.3831971 Z" id="路径" fill="#F4CA1C"></path>
            <path d="M187.965485,88.8451971 C187.902832,75.0287019 181.809887,61.9284521 171.283833,52.9784997 C160.757779,44.0285474 146.848266,40.1213759 133.201485,42.2811971 C127.82387,24.3284796 112.76454,10.9549997 94.3021397,7.73652475 C75.8397393,4.5180498 57.1435358,12.0070653 46.0084849,27.0811971 C39.5932216,35.7336192 36.2301823,46.2701107 36.4464849,57.0391971 C15.9603859,60.3195973 1.44848513,78.812069 3.13285068,99.4906615 C4.81721623,120.169254 22.1305536,136.069415 42.8774849,135.991484 L145.958485,135.991484 C146.963224,135.984369 147.951497,135.735329 148.839485,135.265197 C171.406796,131.316997 187.894863,111.75517 187.965485,88.8451971 L187.965485,88.8451971 Z M140.615485,123.474699 L42.8774849,123.474699 C33.1121566,123.533383 24.0631901,118.357596 19.1633607,109.9103 C14.2635313,101.463004 14.2635313,91.0383905 19.1633607,82.5910944 C24.0631901,74.1437983 33.1121566,68.9680114 42.8774849,69.0271971 C43.4535248,69.0187072 44.0256184,68.9305375 44.5774849,68.7651971 C47.7965405,68.0685748 49.9207179,64.9910781 49.4304849,61.7341971 C47.9630708,52.1041774 50.3863191,42.2859503 56.1658718,34.444563 C61.9454244,26.6031757 70.6065959,21.3826562 80.2394849,19.9341971 C98.4530058,17.1172622 115.942487,28.2047025 121.165485,45.8791971 C104.224797,53.4677777 93.3061126,70.2825514 93.2654849,88.8451971 C93.2654849,92.3163068 96.0793752,95.1301971 99.5504849,95.1301971 C103.021595,95.1301971 105.835485,92.3163068 105.835485,88.8451971 C105.774757,74.7650048 114.209669,62.0374193 127.200642,56.6069386 C140.191615,51.1764578 155.17514,54.114679 165.153069,64.0492876 C175.130997,73.9838962 178.134384,88.9544952 172.760479,101.968973 C167.386573,114.983452 154.695808,123.474699 140.615485,123.474699 L140.615485,123.474699 Z" id="形状" fill="#595BB3"></path>
        </g>
    </g>
</svg>