<svg xmlns="http://www.w3.org/2000/svg" width="20" height="20" viewBox="0 0 20 20">
    <path fill="#a4c639" d="M14.5 3.2C14.4 3.2 14.2 3.3 14.1 3.5L13.3 5C12.3 4.4 11.2 4 10 4 8.8 4 7.7 4.3 6.8 4.9L5.9 3.5C5.8 3.3 5.6 3.2 5.5 3.3 5.4 3.3 5.4 3.2 5.3 3.3L5.2 3.3C5 3.5 4.9 3.8 5.1 4L6 5.6C4.8 6.7 4 8.2 4 10L16 10C16 8.3 15.3 6.7 14.1 5.6L15 4C15.1 3.8 15 3.5 14.8 3.3L14.7 3.3C14.7 3.2 14.6 3.2 14.5 3.2zM7.3 7C7.8 7 8.2 7.4 8.2 7.9 8.2 8.4 7.8 8.8 7.3 8.8 6.8 8.8 6.4 8.4 6.4 7.9 6.4 7.4 6.8 7 7.3 7zM12.7 7C13.2 7 13.6 7.4 13.6 7.9 13.6 8.4 13.2 8.8 12.7 8.8 12.2 8.8 11.8 8.4 11.8 7.9 11.8 7.4 12.2 7 12.7 7zM4 10.5L4 16 16 16 16 10.5 4 10.5z"/>
</svg>