<svg xmlns="http://www.w3.org/2000/svg" width="20" height="20" viewBox="0 0 13.913043 15.22257">
  <g fill="#000" transform="matrix(0.01974442,0,0,0.01974442,0.59799609,3.692127)">
    <path d="m 242.1304,26.136154 c 12.57375,-1.931991 25.25548,-3.344345 37.9671,-4.013656 2.25826,-0.538041 4.59412,-0.428086 6.90119,-0.510544 18.03637,-0.575318 36.09759,-0.549286 54.12636,0.262939 32.54014,2.301468 64.91549,7.707276 96.30586,16.718582 l -0.13292,0.17627 c -4.60202,6.223907 -9.21752,12.438019 -13.73035,18.725891 -1.35219,0.249481 -2.53581,-0.605759 -3.74014,-1.036484 -23.8157,-9.827469 -49.16701,-15.53215 -74.68315,-18.619186 -41.97006,-4.297928 -84.93817,-0.844666 -125.2014,12.070068 -29.64401,9.587738 -58.27112,24.371842 -80.37665,46.666519 -15.66559,16.020307 -27.69327,36.744737 -29.32584,59.451997 -1.51913,10.82149 1.07187,21.62427 3.36382,32.12558 L 14.185699,205.68005 C 13.945419,188.13843 18.523071,170.78329 25.80806,154.91394 40.297989,124.01501 65.424713,99.327652 93.421997,80.42572 112.35318,67.714981 132.81692,57.345383 154.07152,49.122925 182.38751,38.052567 212.05559,30.488739 242.1304,26.136154 z"/>
    <path d="m 301.70334,148.63515 c 1.94578,-3.16858 5.37183,-5.69597 9.26865,-5.22687 4.4046,0.11267 7.79878,3.75244 8.71124,7.87158 l 310.75082,55.27789 -1.03752,5.20607 -310.68332,-54.48095 c -2.47844,4.31216 -8.22775,6.5392 -12.74457,3.9928 -3.13145,-1.36889 -4.19975,-4.71973 -5.61303,-7.53113 l -19.12972,-3.06511 0.87691,-5.38129 19.60054,3.33701 z"/>
    <path d="m 13.649231,221.30466 c 18.262405,-0.12262 36.52626,-0.0226 54.789398,-0.051 0.01808,0.6767 0.05426,2.03008 0.07234,2.70677 13.269959,-2.88977 26.908417,-4.11874 40.480651,-3.36956 9.88256,0.90474 18.95615,5.13992 27.79413,9.3441 -9.96293,6.16172 -20.10092,12.09585 -29.82344,18.61522 -10.834169,-8.36657 -25.559114,-8.37398 -38.193818,-4.71335 -0.157685,1.35187 -0.305954,2.70839 -0.319413,4.07715 0.0064,31.4396 0.01517,62.87977 -0.0037,94.32 -18.255799,-0.006 -36.511368,0.0168 -54.767029,-0.0115 -0.0388,-40.30612 0.01926,-80.61204 -0.02911,-120.91781 z"/>
    <path d="m 155.75305,221.30997 c 16.07997,-0.13549 32.16204,-0.0238 48.2433,-0.0572 23.83194,-0.13529 48.05416,2.93651 70.20328,12.1031 13.75632,5.82483 27.06233,14.43199 35.03758,27.39059 6.05672,10.0663 8.17432,22.99054 3.41974,34.00478 -5.58125,13.21376 -17.53407,22.37564 -29.70006,29.22304 -22.30197,11.93273 -47.08825,18.27707 -72.31572,19.34199 l -0.0437,24.93099 -54.85077,7.52423 0.006,-154.46153 z"/>
    <path d="m 350.73776,221.33231 c 62.75727,-0.19167 125.51848,-0.0234 188.27761,-0.0843 18.36058,0.076 37.02661,0.1922 54.8872,4.94194 5.14029,1.69319 11.99558,3.70666 13.34763,9.68171 0.13403,35.45186 0.05,70.91191 0.0409,106.36713 -18.26615,-0.004 -36.53138,-0.0113 -54.79609,0.004 -0.004,-35.17893 -0.0756,-70.3591 0.0357,-105.53679 -3.31824,-2.87891 -8.04874,-2.75609 -12.16869,-3.25885 -11.26521,-0.29326 -22.53945,-0.084 -33.80654,-0.11576 0.002,36.30307 0.0406,72.60642 -0.0191,108.90969 -18.292,-0.0171 -36.58319,0.005 -54.87403,-0.0112 -0.0542,-29.07907 -0.008,-58.15799 -0.0231,-87.23671 -0.14635,-6.3542 0.31845,-12.73225 -0.27677,-19.06588 -5.14636,-2.16309 -10.78398,-2.58689 -16.30214,-2.61335 -9.79776,-0.0158 -19.5944,0.007 -29.39029,-0.01 -0.048,36.31536 0.0591,72.63149 -0.0537,108.94673 -17.22348,-0.022 -34.44665,-0.0339 -51.66902,0.007 l -3.31752,-0.0131 c 0.28336,-40.07539 0.0678,-80.83315 0.108,-120.91222 z"/>
    <path fill="#d72123" d="m 423.56764,57.495636 c 4.51283,-6.287872 9.12833,-12.501984 13.73035,-18.725891 42.14722,12.344238 82.84823,31.836792 116.09491,60.881943 13.59442,12.173292 25.88991,25.944912 35.33316,41.613512 11.1826,18.43936 18.26884,39.55612 19.02705,61.19006 -33.0565,-5.77759 -66.1038,-11.60446 -99.1558,-17.40172 4.06793,-12.93818 4.10266,-27.0249 1.31704,-40.22806 -5.16264,-22.81849 -19.7915,-42.41004 -37.43728,-57.282084 C 457.76711,75.165924 440.98531,65.246307 423.20515,57.986771 l 0.36249,-0.491135 z"/>
    <path fill="#fff" d="m 210.67975,234.60013 c 14.04689,1.40957 26.7447,9.34711 36.33964,19.39103 8.27451,8.70258 14.12349,20.84611 12.10276,33.07682 -2.20877,12.25284 -10.73442,22.20633 -20.32152,29.61572 -8.32672,6.11266 -17.74312,11.38919 -28.12337,12.77234 -0.0358,-31.61874 -0.0407,-63.2376 0.002,-94.85591 z"/>
  </g>
</svg>