<svg xmlns="http://www.w3.org/2000/svg" width="20" height="20" viewBox="0 0 20 20">
    <path fill="#795548" d="M18 9.9 17.3 9.5c0 0 0-0.1 0-0.1L17.9 8.8C17.9 8.8 18 8.6 18 8.5 18 8.4 17.9 8.4 17.9 8.4L17.1 8.1c0 0 0-0.1 0-0.1l0.4-0.7c0 0 0-0.1 0-0.3 0-0.1-0.1-0.1-0.1-0.1L16.5 6.7c0 0 0-0.1-0.1-0.1l0.3-0.7c0-0.1 0-0.1 0-0.3 0 0-0.1-0.1-0.1-0.1l-0.8 0c0 0-0.1-0.1-0.1-0.1L15.7 4.6c0-0.1 0-0.1 0-0.3 0 0-0.1-0.1-0.3 0l-0.8 0.1c0 0-0.1-0.1-0.1-0.1l0-0.8c0-0.1 0-0.1-0.1-0.1 0 0-0.1 0-0.3 0l-0.7 0.3c0 0-0.1 0-0.1-0.1L13.1 2.7c0-0.1 0-0.1-0.1-0.1-0.1 0-0.1 0-0.3 0l-0.7 0.4c0 0-0.1 0-0.1 0L11.6 2.3c0-0.1-0.1-0.1-0.1-0.1-0.1 0-0.1 0-0.3 0.1l-0.5 0.5c0 0-0.1 0-0.1 0L10.1 2.1C10.1 2 10 2 10 2 9.9 2 9.9 2 9.9 2.1l-0.4 0.7c0 0-0.1 0-0.1 0L8.8 2.3c0 0-0.1-0.1-0.3-0.1-0.1 0-0.1 0.1-0.1 0.1L8.1 2.9c0 0-0.1 0-0.1 0L7.3 2.5c0 0-0.1 0-0.3 0-0.1 0-0.1 0.1-0.1 0.1L6.7 3.5c0 0-0.1 0-0.1 0.1L5.9 3.4c-0.1 0-0.1 0-0.3 0 0 0-0.1 0.1-0.1 0.1l0 0.8c0 0-0.1 0.1-0.1 0.1L4.6 4.3c-0.1 0-0.1 0-0.3 0 0 0-0.1 0.1 0 0.3l0.1 0.8c0 0-0.1 0.1-0.1 0.1l-0.8 0c-0.1 0-0.1 0-0.1 0.1 0 0 0 0.1 0 0.3l0.3 0.7c0 0 0 0.1-0.1 0.1L2.7 6.9c-0.1 0-0.1 0-0.1 0.1 0 0.1 0 0.1 0 0.3l0.4 0.7c0 0 0 0.1 0 0.1L2.3 8.4c-0.1 0-0.1 0.1-0.1 0.1 0 0.1 0 0.1 0.1 0.3l0.5 0.5c0 0 0 0.1 0 0.1L2.1 9.9C2 9.9 2 10 2 10c0 0.1 0 0.1 0.1 0.1l0.7 0.4c0 0 0 0.1 0 0.1l-0.5 0.5c0 0-0.1 0.1-0.1 0.3 0 0.1 0.1 0.1 0.1 0.1l0.7 0.3c0 0 0 0.1 0 0.1l-0.4 0.7c0 0 0 0.1 0 0.3 0 0.1 0.1 0.1 0.1 0.1l0.8 0.1c0 0 0 0.1 0.1 0.1l-0.3 0.7c0 0.1 0 0.1 0 0.3 0 0 0.1 0.1 0.1 0.1l0.8 0c0 0 0.1 0.1 0.1 0.1l-0.1 0.8c0 0.1 0 0.1 0 0.3 0 0 0.1 0.1 0.3 0l0.8-0.1c0 0 0.1 0.1 0.1 0.1l0 0.8c0 0.1 0 0.1 0.1 0.1 0 0 0.1 0 0.3 0l0.7-0.3c0 0 0.1 0 0.1 0.1l0.1 0.8c0 0.1 0 0.1 0.1 0.1 0.1 0 0.1 0 0.3 0l0.7-0.4c0 0 0.1 0 0.1 0l0.3 0.7c0 0.1 0.1 0.1 0.1 0.1 0.1 0 0.1 0 0.3-0.1l0.5-0.5c0 0 0.1 0 0.1 0l0.4 0.7C9.9 17.9 10 18 10 18c0.1 0 0.1 0 0.1-0.1l0.4-0.7c0 0 0.1 0 0.1 0l0.5 0.5c0 0 0.1 0.1 0.3 0.1 0.1 0 0.1-0.1 0.1-0.1l0.3-0.7c0 0 0.1 0 0.1 0l0.7 0.4c0 0 0.1 0 0.3 0 0.1 0 0.1-0.1 0.1-0.1l0.1-0.8c0 0 0.1 0 0.1-0.1l0.7 0.3c0.1 0 0.1 0 0.3 0 0 0 0.1-0.1 0.1-0.1l0-0.8c0 0 0.1-0.1 0.1-0.1l0.8 0.1c0.1 0 0.1 0 0.3 0 0 0 0.1-0.1 0-0.3l-0.1-0.8c0 0 0.1-0.1 0.1-0.1l0.8 0c0.1 0 0.1 0 0.1-0.1 0 0 0-0.1 0-0.3l-0.3-0.7c0 0 0-0.1 0.1-0.1l0.8-0.1c0.1 0 0.1 0 0.1-0.1 0-0.1 0-0.1 0-0.3l-0.4-0.7c0 0 0-0.1 0-0.1l0.7-0.3c0.1 0 0.1-0.1 0.1-0.1 0-0.1 0-0.1-0.1-0.3l-0.5-0.5c0 0 0-0.1 0-0.1l0.7-0.4C18 10.1 18 10 18 10 18 9.9 18 9.9 17.9 9.9zm-4.5 5.6c-0.3 0-0.4-0.3-0.4-0.5 0-0.3 0.3-0.4 0.5-0.4 0.3 0 0.4 0.3 0.4 0.5 0 0.3-0.3 0.4-0.5 0.4zm-0.3-1.5c-0.3 0-0.4 0.1-0.5 0.3l-0.3 1.1C11.8 15.6 10.9 15.8 10 15.8c-0.8 0-1.8-0.1-2.4-0.5L7.3 14.2c0-0.3-0.3-0.4-0.5-0.3L5.8 14.2C5.7 13.9 5.5 13.7 5.4 13.5l4.7 0c0 0 0.1 0 0.1 0l0-1.6c0 0 0 0-0.1 0l-1.4 0 0-1.1 1.5 0c0.1 0 0.7 0 0.9 0.8 0 0.3 0.1 0.9 0.3 1.2 0.1 0.3 0.4 0.8 0.8 0.8l2.4 0c0 0 0 0 0.1 0-0.1 0.3-0.4 0.4-0.5 0.7l-1.1-0.4zm-6.6 1.5c-0.3 0-0.5-0.1-0.5-0.4 0-0.3 0.1-0.5 0.4-0.5 0.3 0 0.5 0.1 0.5 0.4 0 0.3-0.1 0.5-0.4 0.5zM4.8 8.1c0.1 0.3 0 0.5-0.3 0.7-0.3 0.1-0.5 0-0.7-0.3-0.1-0.3 0-0.5 0.3-0.7 0.3-0.1 0.5 0 0.7 0.3zM4.3 9.5 5.4 9.1C5.7 8.9 5.7 8.6 5.7 8.5l-0.3-0.5 0.8 0 0 3.8-1.6 0C4.4 11.2 4.3 10.7 4.3 10.1c0-0.3 0-0.4 0-0.7zm4.5-0.4 0-1.1 2 0c0.1 0 0.7 0.1 0.7 0.5 0 0.4-0.4 0.5-0.8 0.5l-1.8 0zM16 10c0 0.1 0 0.3 0 0.4l-0.5 0c0 0-0.1 0-0.1 0.1l0 0.3c0 0.7-0.4 0.8-0.7 0.8-0.3 0-0.7-0.1-0.7-0.3-0.1-0.9-0.5-1.2-0.9-1.6 0.5-0.4 1.2-0.9 1.2-1.6 0-0.8-0.5-1.4-0.9-1.5C12.7 6.2 12.2 6.2 12 6.2l-6.2 0C6.6 5.3 7.8 4.6 9.1 4.3l0.7 0.8c0.1 0.1 0.4 0.1 0.7 0l0.8-0.8c1.8 0.3 3.1 1.4 3.9 2.8l-0.5 1.2c-0.1 0.3 0 0.4 0.3 0.5l1.1 0.5c0 0.1 0 0.4 0 0.5zM9.7 3.6c0.1-0.1 0.5-0.1 0.7 0 0.1 0.1 0.1 0.5 0 0.7-0.1 0.1-0.5 0.1-0.7 0-0.1-0.1-0.1-0.5 0-0.7zm5.6 4.5C15.4 7.8 15.7 7.7 16 7.8 16.2 8 16.4 8.2 16.2 8.5 16.1 8.8 15.8 8.9 15.6 8.8 15.3 8.6 15.2 8.4 15.3 8.1z"/>
</svg>