<svg xmlns="http://www.w3.org/2000/svg" width="20" height="20" viewBox="0 0 20 20">
  <path fill="#1976d2" d="M 8.59375 3 L 8 5.09375 L 6.84375 5.8125 L 4.625 5.34375 L 3.21875 7.65625 L 4.84375 9.3125 L 4.84375 10.6875 L 3.21875 12.34375 L 4.625 14.65625 L 6.84375 14.1875 L 8 14.90625 L 8.59375 17 L 11.40625 17 L 12.09375 14.90625 L 13.15625 14.1875 L 15.375 14.65625 L 16.78125 12.34375 L 15.25 10.6875 L 15.25 9.3125 L 16.78125 7.65625 L 15.375 5.34375 L 13.15625 5.8125 L 12.09375 5.09375 L 11.40625 3 L 8.59375 3 z M 10 7.5 C 11.380712 7.5 12.5 8.6192881 12.5 10 C 12.5 11.380712 11.380712 12.5 10 12.5 C 8.6192881 12.5 7.5 11.380712 7.5 10 C 7.5 8.6192881 8.6192881 7.5 10 7.5 z"/>
</svg>