<svg xmlns="http://www.w3.org/2000/svg" width="20" height="20" viewBox="0 0 20 20">
  <g fill="#5c6bc0" transform="matrix(0.02460339,0,0,0.02460339,1.0508613,-2.0358995)">
    <path d="m 635.0385,526.8108 c 35.909,12.563 53.856,34.088 53.856,64.543 0,20.046 -7.443,35.957 -22.296,47.725 -14.838,11.776 -36.005,19.084 -63.557,19.084 -27.552,0 -53.037,-7.983 -76.51,-21.088 0.254,-6.95 2.091,-14.575 5.463,-22.852 3.372,-8.277 7.363,-14.853 11.936,-19.656 21.573,11.211 40.346,16.826 56.281,16.826 7.531,0 13.358,-1.264 17.414,-3.809 4.063,-2.536 6.083,-5.94 6.083,-10.217 0,-8.039 -6.226,-14.051 -18.638,-18.058 l -22.296,-8.421 c -33.73,-12.293 -50.596,-32.323 -50.596,-60.146 0,-20.316 7.085,-36.418 21.255,-48.33 14.17,-11.895 33.269,-22.137 57.283,-22.137 11.88,0 24.96,1.67 39.272,5.01 14.297,3.348 26.042,11.594 35.218,16.125 0.541,7.49 -0.962,15.712 -4.452,24.665 -3.515,8.961 -7.824,15.306 -12.969,19.052 -22.685,-10.162 -41.562,-15.243 -56.686,-15.243 -5.415,0 -9.494,1.201 -12.357,3.618 -2.831,2.41 -4.223,5.478 -4.223,9.224 0,6.417 5.121,11.49 15.386,15.235 l 25.133,8.85 z"/>
    <path d="m 455.6835,526.8108 c 35.909,12.563 53.848,34.088 53.848,64.543 0,20.046 -7.443,35.957 -22.272,47.725 -14.853,11.776 -36.028,19.084 -63.572,19.084 -27.528,0 -53.045,-7.983 -76.51,-21.088 0.254,-6.95 2.091,-14.575 5.47,-22.852 3.372,-8.277 7.347,-14.853 11.936,-19.656 21.597,11.211 40.362,16.826 56.289,16.826 7.538,0 13.366,-1.264 17.406,-3.809 4.048,-2.536 6.083,-5.94 6.083,-10.217 0,-8.039 -6.226,-14.051 -18.638,-18.058 l -22.281,-8.421 c -33.738,-12.293 -50.611,-32.323 -50.611,-60.146 0,-20.316 7.085,-36.418 21.27,-48.33 14.162,-11.895 33.253,-22.137 57.267,-22.137 11.872,0 24.984,1.67 39.265,5.01 14.313,3.348 26.042,11.594 35.225,16.125 0.541,7.49 -0.962,15.712 -4.452,24.665 -3.507,8.961 -7.824,15.306 -12.961,19.052 -22.694,-10.162 -41.571,-15.243 -56.702,-15.243 -5.407,0 -9.502,1.201 -12.349,3.618 -2.823,2.41 -4.23,5.478 -4.23,9.224 0,6.417 5.128,11.49 15.394,15.235 l 25.125,8.85 z"/>
    <path d="m 324.8885,529.6408 c 0,-12.293 -1.956,-23.656 -5.868,-34.089 -3.904,-10.432 -9.51,-19.378 -16.794,-26.868 -7.292,-7.49 -16.126,-13.367 -26.511,-17.645 -10.401,-4.27 -22.074,-10.711 -35.027,-10.711 -15.387,0 -28.816,6.966 -40.282,12.317 -11.466,5.344 -20.913,12.691 -28.332,22.05 -7.435,9.366 -12.969,20.388 -16.611,33.086 -3.642,12.699 -5.463,26.534 -5.463,41.499 0,15.49 1.479,29.818 4.453,42.914 2.966,13.08 8.03,24.435 15.18,34.073 7.156,9.621 16.467,17.104 27.941,22.439 11.474,5.344 25.715,9.447 42.716,9.447 31.305,0 57.752,-9.065 79.348,-24.292 -2.139,-15.49 -7.657,-27.807 -16.523,-36.896 -11.029,4.142 -20.786,7.108 -29.246,8.93 -8.468,1.798 -15.935,2.704 -22.383,2.704 -12.906,0 -22.193,-3.284 -27.83,-9.915 -5.631,-6.608 -8.72,-14.424 -9.267,-26.296 h 105.265 c 3.477,-11.243 5.234,-26.438 5.234,-42.747 z m -110.9,2.776 c 0.802,-13.645 3.292,-28.244 7.435,-34.255 4.151,-6.019 10.504,-9.025 19.083,-9.025 8.835,0 15.466,3.197 19.879,9.614 4.422,6.417 6.631,19.346 6.631,29.237 l 0.008,4.429 h -53.036 l 0,0 z"/>
    <path d="m 129.3525,604.6078 h -10.933 c -11.887,0 -16.364,-6.25 -16.364,-18.805 V 355.05779 c 0,-13.875 -4.007,-23.616 -9.137,-29.229 -5.129,-5.598 -14.034,-5.542 -26.717,-5.542 h -24.69 l -2.91,-0.056 v 0.238 l -0.024,34.343 V 596.9678 c 0,19.258 4.326,33.349 12.022,42.318 7.705,8.953 20.722,13.422 39.074,13.422 12.691,0 27.131,-1.336 43.32,-4.016 0.811,-2.704 1.217,-8.492 1.217,-17.374 0,-8.906 -1.621,-17.788 -4.858,-26.71 z"/>
  </g>
</svg>