<svg xmlns="http://www.w3.org/2000/svg" width="20" height="20" viewBox="0 0 20 20">
  <path fill="#6c7eb7" fill-rule="evenodd" d="M 8.625 5.65625 L 7.25 12.6875 L 8.90625 12.6875 L 9.6875 8.78125 L 11 8.78125 C 11.609 8.78125 11.587 9.03375 11.5 9.46875 L 10.90625 12.6875 L 12.65625 12.6875 L 13.25 9.125 C 13.424 8.255 12.892 7.55575 11.5 7.46875 L 9.9375 7.46875 L 10.28125 5.65625 L 8.625 5.65625 z M 2.34375 7.46875 L 0.9375 14.53125 L 2.59375 14.53125 L 2.9375 12.6875 L 4.5 12.6875 C 5.979 12.7745 7.65625 11.55675 7.65625 9.46875 C 7.65625 8.25075 6.9545 7.55575 5.5625 7.46875 L 2.34375 7.46875 z M 13.84375 7.46875 L 12.4375 14.5 L 14.09375 14.5 L 14.4375 12.6875 L 16 12.6875 C 17.47899 12.7745 19.125 11.556754 19.125 9.46875 C 19.125 8.2507462 18.454491 7.55575 17.0625 7.46875 L 13.84375 7.46875 z M 15.21875 8.75 L 16.34375 8.75 C 16.952746 8.75 17.40625 9.0092466 17.40625 9.53125 C 17.31925 11.010253 16.626745 11.288 15.84375 11.375 L 14.78125 11.375 L 15.21875 8.75 z M 3.71875 8.78125 L 4.875 8.78125 C 5.484 8.78125 5.90625 9.0405 5.90625 9.5625 C 5.81925 11.0415 5.12675 11.31925 4.34375 11.40625 L 3.28125 11.40625 L 3.71875 8.78125 z"/>
</svg>