<svg xmlns="http://www.w3.org/2000/svg" width="20" height="20" viewBox="0 0 20 20">
  <g transform="matrix(0.03889348,0,0,0.03889348,0.04326912,-1.9134619)">
    <polygon fill="#e44d26" points="437.367,100.62 404.321,470.819 255.778,512 107.644,470.877 74.633,100.62"/>
    <polygon fill="#f16529" points="256,130.894 256,480.523 376.03,447.246 404.27,130.894"/>
    <polygon fill="#ebebeb" points="143.219,188.488 154.38,313.627 256,313.627 256,268.217 195.91,268.217 191.76,221.716 256,221.716 256,176.305 255.843,176.305 142.132,176.305"/>
    <polygon fill="#ebebeb" points="256,386.153 255.801,386.206 205.227,372.55 201.994,336.333 177.419,336.333 156.409,336.333 162.771,407.634 255.791,433.457 256,433.399"/>
    <polygon fill="#ffffff" points="255.843,433.435 348.937,407.634 349.62,399.962 360.291,280.411 361.399,268.217 349.162,268.217 255.843,268.217 255.843,313.627 311.761,313.627 306.49,372.521 255.843,386.191"/>
    <polygon fill="#ffffff" points="366.442,211.509 368.511,188.488 369.597,176.305 255.843,176.305 255.843,204.509 255.843,221.605 255.843,221.716 365.385,221.716 365.385,221.716 365.531,221.716"/>
  </g>
</svg>