<svg xmlns="http://www.w3.org/2000/svg" width="20" height="20" viewBox="0 0 20 20">
  <path fill="#fbc02d" stroke="#fbc02d" stroke-width="1" d="M 14.1875 4.6875 C 13.09018 4.6875104 12.199333 4.9405471 11.5625 5.46875 C 10.925664 5.9871904 10.624999 6.7055265 10.625 7.625 C 10.624999 8.0651846 10.696787 8.4682415 10.84375 8.78125 C 11.000508 9.0942712 11.192562 9.3375261 11.4375 9.5625 C 11.692232 9.7874849 11.989182 9.9997477 12.3125 10.15625 C 12.645612 10.302981 12.991037 10.435342 13.34375 10.5625 C 13.696455 10.679886 14.006917 10.810341 14.28125 10.9375 C 14.555575 11.054885 14.782593 11.165778 14.96875 11.3125 C 15.164694 11.449448 15.308271 11.605183 15.40625 11.78125 C 15.514016 11.957323 15.562494 12.16171 15.5625 12.40625 C 15.562494 12.817085 15.428715 13.150022 15.125 13.375 C 14.821273 13.599981 14.322474 13.718751 13.65625 13.71875 C 13.019412 13.718751 12.481931 13.646727 12.03125 13.5 C 11.580565 13.353276 11.23328 13.209228 10.96875 13.0625 L 10.40625 14.5625 C 10.52382 14.630973 10.679049 14.724461 10.875 14.8125 C 11.070949 14.890754 11.297967 14.952993 11.5625 15.03125 C 11.836828 15.109504 12.157087 15.169839 12.5 15.21875 C 12.852707 15.277443 13.234955 15.3125 13.65625 15.3125 C 14.910321 15.3125 15.853361 15.061368 16.5 14.5625 C 17.156424 14.053851 17.499993 13.325734 17.5 12.40625 C 17.499993 11.92695 17.418407 11.551332 17.28125 11.21875 C 17.144079 10.876394 16.952025 10.557047 16.6875 10.3125 C 16.432759 10.058181 16.132095 9.8635762 15.75 9.6875 C 15.377691 9.5016528 14.948821 9.3010768 14.46875 9.125 C 14.194416 9.0271889 13.922635 8.9201051 13.6875 8.8125 C 13.462155 8.7049074 13.270101 8.5959189 13.09375 8.46875 C 12.92719 8.3415943 12.785469 8.2190145 12.6875 8.0625 C 12.599319 7.896218 12.562497 7.693737 12.5625 7.46875 C 12.562497 7.0970525 12.694418 6.7991744 12.96875 6.59375 C 13.252873 6.3883426 13.656575 6.2812588 14.15625 6.28125 C 14.577537 6.2812588 14.983096 6.3396915 15.375 6.4375 C 15.776691 6.5353258 16.13563 6.6891556 16.46875 6.875 L 17.03125 5.375 C 16.747117 5.2087206 16.374665 5.0432042 15.875 4.90625 C 15.385121 4.7595342 14.82433 4.6875104 14.1875 4.6875 z M 6.9375 4.9375 L 6.9375 11.625 C 6.9374954 12.387977 6.8153722 12.936987 6.53125 13.25 C 6.2471196 13.563017 5.7832845 13.718751 5.15625 13.71875 C 4.7839439 13.718751 4.4250043 13.646727 4.0625 13.5 C 3.7097899 13.343494 3.4011857 13.166291 3.15625 13 L 2.5 14.46875 C 2.7547338 14.674167 3.1234709 14.876648 3.59375 15.0625 C 4.0738243 15.238567 4.6346149 15.3125 5.28125 15.3125 C 5.9768667 15.3125 6.5493124 15.217103 7 15.03125 C 7.460476 14.845398 7.829213 14.604047 8.09375 14.28125 C 8.3680731 13.958455 8.5484718 13.555398 8.65625 13.125 C 8.7640159 12.694607 8.8124936 12.248871 8.8125 11.75 L 8.8125 4.9375 L 6.9375 4.9375 z"/>
</svg>