<svg xmlns="http://www.w3.org/2000/svg" width="20" height="20" viewBox="0 0 20 20">
  <path fill="#f6d2a2" fill-rule="evenodd" stroke="#000" stroke-width="3" d="m 10.634,-238.979 c 0.764,15.751 16.499,8.463 23.626,3.539 6.765,-4.675 8.743,-0.789 9.337,-10.015 0.389,-6.064 1.088,-12.128 0.744,-18.216 -10.23,-0.927 -21.357,1.509 -29.744,7.602 -4.32,3.139 -12.42,13.158 -3.963,17.09" clip-rule="evenodd" stroke-linecap="round" transform="matrix(.03 0 0 .03 3.959 17.82)"/>
  <path fill="#c6b198" fill-rule="evenodd" stroke="#000" stroke-width="3" d="m 10.634,-238.979 c 2.29,-0.852 4.717,-1.457 6.271,-3.528" clip-rule="evenodd" stroke-linecap="round" transform="matrix(.03 0 0 .03 3.959 17.82)"/>
  <path fill="#6ad7e5" fill-rule="evenodd" stroke="#000" stroke-width="3" d="M46.997-426.619c-60.297-16.956-15.461-93.664 32.959-62.113l-32.959 62.113zM314.895-494.488c47.727-33.523 90.856 42.111 35.388 61.141l-35.388-61.141z" clip-rule="evenodd" stroke-linecap="round" transform="matrix(.03 0 0 .03 3.959 17.82)"/>
  <path fill="#f6d2a2" fill-rule="evenodd" stroke="#000" stroke-width="3" d="m 325.161,-45.128999 c 12.123,7.501 34.282,30.182 16.096,41.1799995 -17.474,15.9990005 -27.254,-17.5609995 -42.591,-22.2109995 6.605,-8.97 14.977,-17.149 26.495,-18.969 z" clip-rule="evenodd" stroke-linecap="round" transform="matrix(.03 0 0 .03 3.959 17.82)"/>
  <path fill="none" stroke="#000" stroke-width="3" d="m 341.257,-3.9499995 c -2.696,-5.361 -3.601,-11.6179995 -8.102,-15.9389995" clip-rule="evenodd" stroke-linecap="round" transform="matrix(.03 0 0 .03 3.959 17.82)"/>
  <path fill="#f6d2a2" fill-rule="evenodd" stroke="#000" stroke-width="3" d="m 108.579,-19.496999 c -14.229,2.202 -22.238,15.0389995 -34.1,21.5579995 -11.178,6.665 -15.454,-2.13399996 -16.461,-3.92 -1.752,-0.799 -1.605,0.744 -4.309,-1.979 -10.362,-16.3539995 10.797,-28.3079995 21.815,-36.4319995 15.346,-3.102 24.963,10.202 33.055,20.773 z" clip-rule="evenodd" stroke-linecap="round" transform="matrix(.03 0 0 .03 3.959 17.82)"/>
  <path fill="none" stroke="#000" stroke-width="3" d="m 58.019,-1.8599995 c 0.542,-6.233 5.484,-10.4069995 7.838,-15.6769995" clip-rule="evenodd" stroke-linecap="round" transform="matrix(.03 0 0 .03 3.959 17.82)"/>
  <path fill-rule="evenodd" d="M49.513-447.805c-7.955-4.208-13.791-9.923-8.925-19.124 4.505-8.518 12.874-7.593 20.83-3.385l-11.905 22.509zM337.716-455.805c7.955-4.208 13.791-9.923 8.925-19.124-4.505-8.518-12.874-7.593-20.83-3.385l11.905 22.509z" clip-rule="evenodd" transform="matrix(.03 0 0 .03 3.959 17.82)"/>
  <path fill="#f6d2a2" fill-rule="evenodd" stroke="#000" stroke-width="3" d="m 392.475,-240.979 c -0.764,15.751 -16.499,8.463 -23.626,3.539 -6.765,-4.675 -8.743,-0.789 -9.337,-10.015 -0.389,-6.064 -1.088,-12.128 -0.744,-18.216 10.23,-0.927 21.357,1.509 29.744,7.602 4.319,3.139 12.42,13.158 3.963,17.09" clip-rule="evenodd" stroke-linecap="round" transform="matrix(.03 0 0 .03 3.959 17.82)"/>
  <path fill="#c6b198" fill-rule="evenodd" stroke="#000" stroke-width="3" d="m 392.475,-240.979 c -2.29,-0.852 -4.717,-1.457 -6.271,-3.528" clip-rule="evenodd" stroke-linecap="round" transform="matrix(.03 0 0 .03 3.959 17.82)"/>
  <path fill="#6ad7e5" fill-rule="evenodd" stroke="#000" stroke-width="3" d="m 195.512,13.124 c 60.365,0 116.953,8.633 146.452,66.629 26.478,65.006 17.062,135.104 21.1,203.806 3.468,58.992 11.157,127.145 -16.21,181.812 -28.79,57.514 -100.73,71.982 -160,69.863 C 140.299,533.568 84.06,518.38 57.785,475.845 26.959,425.945 41.553,351.747 43.792,296.223 46.444,230.452 25.977,164.481 47.584,100.122 69.999,33.359 130.451,18.271 195.512,13.124" clip-rule="evenodd" stroke-linecap="round" transform="matrix(.03 0 0 .03 3.959 1.636)"/>
  <path fill="#fff" fill-rule="evenodd" stroke="#000" stroke-width="2.908" d="m 206.169,-445.312 c 10.838,63.003 113.822,46.345 99.03,-17.197 -13.264,-56.98 -102.632,-41.208 -99.03,17.197" clip-rule="evenodd" stroke-linecap="round" transform="matrix(.03 0 0 .03 3.959 17.82)"/>
  <path fill="#fff" fill-rule="evenodd" stroke="#000" stroke-width="2.821" d="m 83.103,-435.122 c 14.047,54.85 101.864,40.807 98.554,-14.213 -3.966,-65.895 -111.984,-53.18 -98.554,14.213" clip-rule="evenodd" stroke-linecap="round" transform="matrix(.03 0 0 .03 3.959 17.82)"/>
  <path fill="#fff" fill-rule="evenodd" stroke="#000" stroke-width="3" d="m 218.594,-369.71 c 0.046,8.191 1.861,17.387 0.312,26.101 -2.091,3.952 -6.193,4.37 -9.729,5.967 -4.89,-0.767 -9.002,-3.978 -10.963,-8.552 -1.255,-9.946 0.468,-19.576 0.785,-29.526 l 19.595,6.01 z" clip-rule="evenodd" stroke-linecap="round" transform="matrix(.03 0 0 .03 3.959 17.82)"/>
  <g fill-rule="evenodd" transform="matrix(.03 0 0 .03 3.959 1.636)" clip-rule="evenodd">
    <ellipse cx="107.324" cy="95.404" ry="16.062" rx="14.829"/>
    <ellipse cx="114.069" cy="99.029" fill="#fff" ry="4.082" rx="3.496"/>
  </g>
  <g fill-rule="evenodd" transform="matrix(.03 0 0 .03 3.959 1.636)" clip-rule="evenodd">
    <ellipse cx="231.571" cy="91.404" ry="16.062" rx="14.582"/>
    <ellipse cx="238.204" cy="95.029" fill="#fff" ry="4.082" rx="3.438"/>
  </g>
  <path fill="#fff" fill-rule="evenodd" stroke="#000" stroke-width="3" d="m 176.217,-370.602 c -6.47,15.68 3.608,47.035 21.163,23.908 -1.255,-9.946 0.468,-19.576 0.785,-29.526 l -21.948,5.618 z" clip-rule="evenodd" stroke-linecap="round" transform="matrix(.03 0 0 .03 3.959 17.82)"/>
  <g fill-rule="evenodd" clip-rule="evenodd">
    <path fill="#f6d2a2" stroke="#231f20" stroke-width="3" d="m 178.431,138.673 c -12.059,1.028 -21.916,15.366 -15.646,26.709 8.303,15.024 26.836,-1.329 38.379,0.203 13.285,0.272 24.17,14.047 34.84,2.49 11.867,-12.854 -5.109,-25.373 -18.377,-30.97 l -39.196,1.568 z" stroke-linecap="round" transform="matrix(.03 0 0 .03 3.959 1.636)"/>
    <path d="m 176.913,138.045 c -0.893,-20.891 38.938,-23.503 43.642,-6.016 4.692,17.446 -41.681,21.498 -43.642,6.016 -1.565,-12.363 0,0 0,0 z" transform="matrix(.03 0 0 .03 3.959 1.636)"/>
  </g>
</svg>