<svg xmlns="http://www.w3.org/2000/svg" width="20" height="20" viewBox="0 0 20 20">
  <path fill="#e53935" d="M 10.707376,3.0220971 12.625,4.28125 11.5,7.90625 7.4375,11.6875 3.90625,12.46875 3.1875,10.46875 3,14.15625 c 0.07668,2.758421 2.05851,2.788289 2.90625,2.8125 L 5.875,17 16.96875,16.90625 17.0625,5.8125 C 17.122609,4.2480709 15.364825,3.0014165 14.375,3 z M 5.8700983,5.9390704 C 3.7805688,8.0101404 3.256183,9.918237 4.289943,10.960517 5.3229925,12.003507 7.2816787,11.165285 9.3712087,9.09421 11.460739,7.0231401 12.097651,5.0845033 11.06453,4.0415133 9.4255397,2.6480655 6.9773962,4.7208064 5.8700983,5.9390704 z"/>
</svg>