<svg xmlns="http://www.w3.org/2000/svg" width="20" height="20" viewBox="0 0 20 20">
  <path fill="#e33" d="M 7.1837924,11.307953 C 7.6707878,10.353408 8.2243075,9.2777656 8.6673693,8.1977207 l 0,0 0.1750865,-0.4261233 C 8.2638361,5.5694562 7.9167872,3.8015945 8.2268175,2.65879 l 0,0 C 8.3103144,2.3606956 8.6554508,2.1799563 9.0244582,2.1799563 l 0,0 0.2246724,0.0031 0.041496,0 c 0.5051971,-0.00754 0.7430344,0.6351036 0.7700294,0.8848773 l 0,0 c 0.04457,0.4160895 -0.1480415,1.1202107 -0.1480415,1.1202107 l 0,0 c 0,-0.2842813 0.011293,-0.7436667 -0.1681885,-1.1402846 l 0,0 C 9.5354439,2.5891118 9.3358716,2.3148707 9.1570283,2.2715686 l 0,0 C 9.0667026,2.3318431 8.9787995,2.4566961 8.9486794,2.69706 l 0,0 c -0.062153,0.337009 -0.080934,0.7625005 -0.080934,0.9815213 l 0,0 c 0,0.7750507 0.1524795,1.7973568 0.4524699,2.8516732 l 0,0 C 9.376732,6.3670176 9.4262491,6.2102008 9.4658631,6.0633393 l 0,0 C 9.5273333,5.831768 9.9183329,4.2967327 9.9183329,4.2967327 l 0,0 c 0,0 -0.098522,2.0433649 -0.2359592,2.6615218 l 0,0 c -0.029539,0.130453 -0.062152,0.2598125 -0.095963,0.3922291 l 0,0 c 0.4945263,1.3812802 1.2909033,2.613824 2.2410503,3.5012084 l 0,0 c 0.374662,0.350187 0.847839,0.632591 1.295924,0.889897 l 0,0 c 0.977747,-0.140017 1.878312,-0.205837 2.629514,-0.197674 l 0,0 c 0.996584,0.01322 1.728324,0.160674 2.024539,0.452468 l 0,0 c 0.144967,0.141893 0.203958,0.313158 0.222161,0.505196 l 0,0 c 0.0046,0.07457 -0.03192,0.250406 -0.04265,0.294341 l 0,0 c 0.01063,-0.0533 0.01063,-0.315665 -0.789481,-0.571091 l 0,0 c -0.630087,-0.201452 -1.809285,-0.195167 -3.224454,-0.04454 l 0,0 c 1.636707,0.800785 3.231353,1.198664 3.736549,0.960177 l 0,0 c 0.123621,-0.06024 0.273628,-0.265462 0.273628,-0.265462 l 0,0 c 0,0 -0.08911,0.404778 -0.153163,0.505805 l 0,0 c -0.08162,0.109794 -0.241612,0.229069 -0.393496,0.26923 l 0,0 c -0.79828,0.212748 -2.875529,-0.279901 -4.686694,-1.314763 l 0,0 C 10.696554,12.63337 8.4743315,13.183748 6.69329,13.768015 l 0,0 c -1.7505467,3.067553 -3.0665588,4.476442 -4.1371905,3.940501 l 0,0 -0.3934914,-0.197673 C 2.0026124,17.419141 1.9780925,17.196419 2.0150773,17.015058 l 0,0 C 2.139895,16.40444 2.9055885,15.484427 4.443769,14.566287 l 0,0 c 0.1656275,-0.100408 0.9030766,-0.490141 0.9030766,-0.490141 l 0,0 c 0,0 -0.5459891,0.528424 -0.6740006,0.631965 l 0,0 c -1.2275229,1.005988 -2.1337362,2.2718 -2.1111425,2.762564 l 0,0 0.00437,0.04265 c 1.0430672,-0.148719 2.6069697,-2.271187 4.6177021,-6.205417 m 0.6369822,0.326336 C 7.4850166,12.266842 7.156801,12.852992 6.8536863,13.391448 l 0,0 C 8.5299255,12.689213 10.33419,12.239865 12.051848,11.920429 l 0,0 c -0.23094,-0.159484 -0.454977,-0.328215 -0.665855,-0.506443 l 0,0 C 10.440248,10.613209 9.7191732,9.6141206 9.196409,8.562942 l 0,0 C 8.8650521,9.4559636 8.4709445,10.40486 7.8207804,11.634266"/>
</svg>